G04 #@! TF.GenerationSoftware,KiCad,Pcbnew,(5.0.0-rc3-dev-2-g101b68b61)*
G04 #@! TF.CreationDate,2018-07-14T00:48:42-07:00*
G04 #@! TF.ProjectId,hp34401a_oled,68703334343031615F6F6C65642E6B69,rev?*
G04 #@! TF.SameCoordinates,Original*
G04 #@! TF.FileFunction,Soldermask,Top*
G04 #@! TF.FilePolarity,Negative*
%FSLAX46Y46*%
G04 Gerber Fmt 4.6, Leading zero omitted, Abs format (unit mm)*
G04 Created by KiCad (PCBNEW (5.0.0-rc3-dev-2-g101b68b61)) date 07/14/18 00:48:42*
%MOMM*%
%LPD*%
G01*
G04 APERTURE LIST*
%ADD10O,2.250000X1.250000*%
%ADD11C,1.240000*%
%ADD12R,1.240000X1.240000*%
%ADD13C,0.100000*%
%ADD14C,1.275000*%
%ADD15C,1.375000*%
%ADD16R,2.100000X2.100000*%
%ADD17O,2.100000X2.100000*%
%ADD18C,0.500000*%
%ADD19R,1.900000X1.400000*%
%ADD20R,2.400000X4.200000*%
%ADD21R,2.400000X1.900000*%
%ADD22C,3.600000*%
G04 APERTURE END LIST*
D10*
G04 #@! TO.C,J1*
X52720000Y-57125000D03*
X52720000Y-64275000D03*
D11*
X52500000Y-59400000D03*
X53500000Y-60050000D03*
X52500000Y-60700000D03*
X53500000Y-61350000D03*
D12*
X52500000Y-62000000D03*
G04 #@! TD*
D13*
G04 #@! TO.C,C3*
G36*
X63887493Y-54576535D02*
X63918435Y-54581125D01*
X63948778Y-54588725D01*
X63978230Y-54599263D01*
X64006508Y-54612638D01*
X64033338Y-54628719D01*
X64058463Y-54647353D01*
X64081640Y-54668360D01*
X64102647Y-54691537D01*
X64121281Y-54716662D01*
X64137362Y-54743492D01*
X64150737Y-54771770D01*
X64161275Y-54801222D01*
X64168875Y-54831565D01*
X64173465Y-54862507D01*
X64175000Y-54893750D01*
X64175000Y-55531250D01*
X64173465Y-55562493D01*
X64168875Y-55593435D01*
X64161275Y-55623778D01*
X64150737Y-55653230D01*
X64137362Y-55681508D01*
X64121281Y-55708338D01*
X64102647Y-55733463D01*
X64081640Y-55756640D01*
X64058463Y-55777647D01*
X64033338Y-55796281D01*
X64006508Y-55812362D01*
X63978230Y-55825737D01*
X63948778Y-55836275D01*
X63918435Y-55843875D01*
X63887493Y-55848465D01*
X63856250Y-55850000D01*
X63143750Y-55850000D01*
X63112507Y-55848465D01*
X63081565Y-55843875D01*
X63051222Y-55836275D01*
X63021770Y-55825737D01*
X62993492Y-55812362D01*
X62966662Y-55796281D01*
X62941537Y-55777647D01*
X62918360Y-55756640D01*
X62897353Y-55733463D01*
X62878719Y-55708338D01*
X62862638Y-55681508D01*
X62849263Y-55653230D01*
X62838725Y-55623778D01*
X62831125Y-55593435D01*
X62826535Y-55562493D01*
X62825000Y-55531250D01*
X62825000Y-54893750D01*
X62826535Y-54862507D01*
X62831125Y-54831565D01*
X62838725Y-54801222D01*
X62849263Y-54771770D01*
X62862638Y-54743492D01*
X62878719Y-54716662D01*
X62897353Y-54691537D01*
X62918360Y-54668360D01*
X62941537Y-54647353D01*
X62966662Y-54628719D01*
X62993492Y-54612638D01*
X63021770Y-54599263D01*
X63051222Y-54588725D01*
X63081565Y-54581125D01*
X63112507Y-54576535D01*
X63143750Y-54575000D01*
X63856250Y-54575000D01*
X63887493Y-54576535D01*
X63887493Y-54576535D01*
G37*
D14*
X63500000Y-55212500D03*
D13*
G36*
X63887493Y-56151535D02*
X63918435Y-56156125D01*
X63948778Y-56163725D01*
X63978230Y-56174263D01*
X64006508Y-56187638D01*
X64033338Y-56203719D01*
X64058463Y-56222353D01*
X64081640Y-56243360D01*
X64102647Y-56266537D01*
X64121281Y-56291662D01*
X64137362Y-56318492D01*
X64150737Y-56346770D01*
X64161275Y-56376222D01*
X64168875Y-56406565D01*
X64173465Y-56437507D01*
X64175000Y-56468750D01*
X64175000Y-57106250D01*
X64173465Y-57137493D01*
X64168875Y-57168435D01*
X64161275Y-57198778D01*
X64150737Y-57228230D01*
X64137362Y-57256508D01*
X64121281Y-57283338D01*
X64102647Y-57308463D01*
X64081640Y-57331640D01*
X64058463Y-57352647D01*
X64033338Y-57371281D01*
X64006508Y-57387362D01*
X63978230Y-57400737D01*
X63948778Y-57411275D01*
X63918435Y-57418875D01*
X63887493Y-57423465D01*
X63856250Y-57425000D01*
X63143750Y-57425000D01*
X63112507Y-57423465D01*
X63081565Y-57418875D01*
X63051222Y-57411275D01*
X63021770Y-57400737D01*
X62993492Y-57387362D01*
X62966662Y-57371281D01*
X62941537Y-57352647D01*
X62918360Y-57331640D01*
X62897353Y-57308463D01*
X62878719Y-57283338D01*
X62862638Y-57256508D01*
X62849263Y-57228230D01*
X62838725Y-57198778D01*
X62831125Y-57168435D01*
X62826535Y-57137493D01*
X62825000Y-57106250D01*
X62825000Y-56468750D01*
X62826535Y-56437507D01*
X62831125Y-56406565D01*
X62838725Y-56376222D01*
X62849263Y-56346770D01*
X62862638Y-56318492D01*
X62878719Y-56291662D01*
X62897353Y-56266537D01*
X62918360Y-56243360D01*
X62941537Y-56222353D01*
X62966662Y-56203719D01*
X62993492Y-56187638D01*
X63021770Y-56174263D01*
X63051222Y-56163725D01*
X63081565Y-56156125D01*
X63112507Y-56151535D01*
X63143750Y-56150000D01*
X63856250Y-56150000D01*
X63887493Y-56151535D01*
X63887493Y-56151535D01*
G37*
D14*
X63500000Y-56787500D03*
G04 #@! TD*
D13*
G04 #@! TO.C,C4*
G36*
X66387493Y-57576535D02*
X66418435Y-57581125D01*
X66448778Y-57588725D01*
X66478230Y-57599263D01*
X66506508Y-57612638D01*
X66533338Y-57628719D01*
X66558463Y-57647353D01*
X66581640Y-57668360D01*
X66602647Y-57691537D01*
X66621281Y-57716662D01*
X66637362Y-57743492D01*
X66650737Y-57771770D01*
X66661275Y-57801222D01*
X66668875Y-57831565D01*
X66673465Y-57862507D01*
X66675000Y-57893750D01*
X66675000Y-58531250D01*
X66673465Y-58562493D01*
X66668875Y-58593435D01*
X66661275Y-58623778D01*
X66650737Y-58653230D01*
X66637362Y-58681508D01*
X66621281Y-58708338D01*
X66602647Y-58733463D01*
X66581640Y-58756640D01*
X66558463Y-58777647D01*
X66533338Y-58796281D01*
X66506508Y-58812362D01*
X66478230Y-58825737D01*
X66448778Y-58836275D01*
X66418435Y-58843875D01*
X66387493Y-58848465D01*
X66356250Y-58850000D01*
X65643750Y-58850000D01*
X65612507Y-58848465D01*
X65581565Y-58843875D01*
X65551222Y-58836275D01*
X65521770Y-58825737D01*
X65493492Y-58812362D01*
X65466662Y-58796281D01*
X65441537Y-58777647D01*
X65418360Y-58756640D01*
X65397353Y-58733463D01*
X65378719Y-58708338D01*
X65362638Y-58681508D01*
X65349263Y-58653230D01*
X65338725Y-58623778D01*
X65331125Y-58593435D01*
X65326535Y-58562493D01*
X65325000Y-58531250D01*
X65325000Y-57893750D01*
X65326535Y-57862507D01*
X65331125Y-57831565D01*
X65338725Y-57801222D01*
X65349263Y-57771770D01*
X65362638Y-57743492D01*
X65378719Y-57716662D01*
X65397353Y-57691537D01*
X65418360Y-57668360D01*
X65441537Y-57647353D01*
X65466662Y-57628719D01*
X65493492Y-57612638D01*
X65521770Y-57599263D01*
X65551222Y-57588725D01*
X65581565Y-57581125D01*
X65612507Y-57576535D01*
X65643750Y-57575000D01*
X66356250Y-57575000D01*
X66387493Y-57576535D01*
X66387493Y-57576535D01*
G37*
D14*
X66000000Y-58212500D03*
D13*
G36*
X66387493Y-59151535D02*
X66418435Y-59156125D01*
X66448778Y-59163725D01*
X66478230Y-59174263D01*
X66506508Y-59187638D01*
X66533338Y-59203719D01*
X66558463Y-59222353D01*
X66581640Y-59243360D01*
X66602647Y-59266537D01*
X66621281Y-59291662D01*
X66637362Y-59318492D01*
X66650737Y-59346770D01*
X66661275Y-59376222D01*
X66668875Y-59406565D01*
X66673465Y-59437507D01*
X66675000Y-59468750D01*
X66675000Y-60106250D01*
X66673465Y-60137493D01*
X66668875Y-60168435D01*
X66661275Y-60198778D01*
X66650737Y-60228230D01*
X66637362Y-60256508D01*
X66621281Y-60283338D01*
X66602647Y-60308463D01*
X66581640Y-60331640D01*
X66558463Y-60352647D01*
X66533338Y-60371281D01*
X66506508Y-60387362D01*
X66478230Y-60400737D01*
X66448778Y-60411275D01*
X66418435Y-60418875D01*
X66387493Y-60423465D01*
X66356250Y-60425000D01*
X65643750Y-60425000D01*
X65612507Y-60423465D01*
X65581565Y-60418875D01*
X65551222Y-60411275D01*
X65521770Y-60400737D01*
X65493492Y-60387362D01*
X65466662Y-60371281D01*
X65441537Y-60352647D01*
X65418360Y-60331640D01*
X65397353Y-60308463D01*
X65378719Y-60283338D01*
X65362638Y-60256508D01*
X65349263Y-60228230D01*
X65338725Y-60198778D01*
X65331125Y-60168435D01*
X65326535Y-60137493D01*
X65325000Y-60106250D01*
X65325000Y-59468750D01*
X65326535Y-59437507D01*
X65331125Y-59406565D01*
X65338725Y-59376222D01*
X65349263Y-59346770D01*
X65362638Y-59318492D01*
X65378719Y-59291662D01*
X65397353Y-59266537D01*
X65418360Y-59243360D01*
X65441537Y-59222353D01*
X65466662Y-59203719D01*
X65493492Y-59187638D01*
X65521770Y-59174263D01*
X65551222Y-59163725D01*
X65581565Y-59156125D01*
X65612507Y-59151535D01*
X65643750Y-59150000D01*
X66356250Y-59150000D01*
X66387493Y-59151535D01*
X66387493Y-59151535D01*
G37*
D14*
X66000000Y-59787500D03*
G04 #@! TD*
D13*
G04 #@! TO.C,C5*
G36*
X66387493Y-50576535D02*
X66418435Y-50581125D01*
X66448778Y-50588725D01*
X66478230Y-50599263D01*
X66506508Y-50612638D01*
X66533338Y-50628719D01*
X66558463Y-50647353D01*
X66581640Y-50668360D01*
X66602647Y-50691537D01*
X66621281Y-50716662D01*
X66637362Y-50743492D01*
X66650737Y-50771770D01*
X66661275Y-50801222D01*
X66668875Y-50831565D01*
X66673465Y-50862507D01*
X66675000Y-50893750D01*
X66675000Y-51531250D01*
X66673465Y-51562493D01*
X66668875Y-51593435D01*
X66661275Y-51623778D01*
X66650737Y-51653230D01*
X66637362Y-51681508D01*
X66621281Y-51708338D01*
X66602647Y-51733463D01*
X66581640Y-51756640D01*
X66558463Y-51777647D01*
X66533338Y-51796281D01*
X66506508Y-51812362D01*
X66478230Y-51825737D01*
X66448778Y-51836275D01*
X66418435Y-51843875D01*
X66387493Y-51848465D01*
X66356250Y-51850000D01*
X65643750Y-51850000D01*
X65612507Y-51848465D01*
X65581565Y-51843875D01*
X65551222Y-51836275D01*
X65521770Y-51825737D01*
X65493492Y-51812362D01*
X65466662Y-51796281D01*
X65441537Y-51777647D01*
X65418360Y-51756640D01*
X65397353Y-51733463D01*
X65378719Y-51708338D01*
X65362638Y-51681508D01*
X65349263Y-51653230D01*
X65338725Y-51623778D01*
X65331125Y-51593435D01*
X65326535Y-51562493D01*
X65325000Y-51531250D01*
X65325000Y-50893750D01*
X65326535Y-50862507D01*
X65331125Y-50831565D01*
X65338725Y-50801222D01*
X65349263Y-50771770D01*
X65362638Y-50743492D01*
X65378719Y-50716662D01*
X65397353Y-50691537D01*
X65418360Y-50668360D01*
X65441537Y-50647353D01*
X65466662Y-50628719D01*
X65493492Y-50612638D01*
X65521770Y-50599263D01*
X65551222Y-50588725D01*
X65581565Y-50581125D01*
X65612507Y-50576535D01*
X65643750Y-50575000D01*
X66356250Y-50575000D01*
X66387493Y-50576535D01*
X66387493Y-50576535D01*
G37*
D14*
X66000000Y-51212500D03*
D13*
G36*
X66387493Y-52151535D02*
X66418435Y-52156125D01*
X66448778Y-52163725D01*
X66478230Y-52174263D01*
X66506508Y-52187638D01*
X66533338Y-52203719D01*
X66558463Y-52222353D01*
X66581640Y-52243360D01*
X66602647Y-52266537D01*
X66621281Y-52291662D01*
X66637362Y-52318492D01*
X66650737Y-52346770D01*
X66661275Y-52376222D01*
X66668875Y-52406565D01*
X66673465Y-52437507D01*
X66675000Y-52468750D01*
X66675000Y-53106250D01*
X66673465Y-53137493D01*
X66668875Y-53168435D01*
X66661275Y-53198778D01*
X66650737Y-53228230D01*
X66637362Y-53256508D01*
X66621281Y-53283338D01*
X66602647Y-53308463D01*
X66581640Y-53331640D01*
X66558463Y-53352647D01*
X66533338Y-53371281D01*
X66506508Y-53387362D01*
X66478230Y-53400737D01*
X66448778Y-53411275D01*
X66418435Y-53418875D01*
X66387493Y-53423465D01*
X66356250Y-53425000D01*
X65643750Y-53425000D01*
X65612507Y-53423465D01*
X65581565Y-53418875D01*
X65551222Y-53411275D01*
X65521770Y-53400737D01*
X65493492Y-53387362D01*
X65466662Y-53371281D01*
X65441537Y-53352647D01*
X65418360Y-53331640D01*
X65397353Y-53308463D01*
X65378719Y-53283338D01*
X65362638Y-53256508D01*
X65349263Y-53228230D01*
X65338725Y-53198778D01*
X65331125Y-53168435D01*
X65326535Y-53137493D01*
X65325000Y-53106250D01*
X65325000Y-52468750D01*
X65326535Y-52437507D01*
X65331125Y-52406565D01*
X65338725Y-52376222D01*
X65349263Y-52346770D01*
X65362638Y-52318492D01*
X65378719Y-52291662D01*
X65397353Y-52266537D01*
X65418360Y-52243360D01*
X65441537Y-52222353D01*
X65466662Y-52203719D01*
X65493492Y-52187638D01*
X65521770Y-52174263D01*
X65551222Y-52163725D01*
X65581565Y-52156125D01*
X65612507Y-52151535D01*
X65643750Y-52150000D01*
X66356250Y-52150000D01*
X66387493Y-52151535D01*
X66387493Y-52151535D01*
G37*
D14*
X66000000Y-52787500D03*
G04 #@! TD*
D13*
G04 #@! TO.C,C6*
G36*
X68887493Y-56151535D02*
X68918435Y-56156125D01*
X68948778Y-56163725D01*
X68978230Y-56174263D01*
X69006508Y-56187638D01*
X69033338Y-56203719D01*
X69058463Y-56222353D01*
X69081640Y-56243360D01*
X69102647Y-56266537D01*
X69121281Y-56291662D01*
X69137362Y-56318492D01*
X69150737Y-56346770D01*
X69161275Y-56376222D01*
X69168875Y-56406565D01*
X69173465Y-56437507D01*
X69175000Y-56468750D01*
X69175000Y-57106250D01*
X69173465Y-57137493D01*
X69168875Y-57168435D01*
X69161275Y-57198778D01*
X69150737Y-57228230D01*
X69137362Y-57256508D01*
X69121281Y-57283338D01*
X69102647Y-57308463D01*
X69081640Y-57331640D01*
X69058463Y-57352647D01*
X69033338Y-57371281D01*
X69006508Y-57387362D01*
X68978230Y-57400737D01*
X68948778Y-57411275D01*
X68918435Y-57418875D01*
X68887493Y-57423465D01*
X68856250Y-57425000D01*
X68143750Y-57425000D01*
X68112507Y-57423465D01*
X68081565Y-57418875D01*
X68051222Y-57411275D01*
X68021770Y-57400737D01*
X67993492Y-57387362D01*
X67966662Y-57371281D01*
X67941537Y-57352647D01*
X67918360Y-57331640D01*
X67897353Y-57308463D01*
X67878719Y-57283338D01*
X67862638Y-57256508D01*
X67849263Y-57228230D01*
X67838725Y-57198778D01*
X67831125Y-57168435D01*
X67826535Y-57137493D01*
X67825000Y-57106250D01*
X67825000Y-56468750D01*
X67826535Y-56437507D01*
X67831125Y-56406565D01*
X67838725Y-56376222D01*
X67849263Y-56346770D01*
X67862638Y-56318492D01*
X67878719Y-56291662D01*
X67897353Y-56266537D01*
X67918360Y-56243360D01*
X67941537Y-56222353D01*
X67966662Y-56203719D01*
X67993492Y-56187638D01*
X68021770Y-56174263D01*
X68051222Y-56163725D01*
X68081565Y-56156125D01*
X68112507Y-56151535D01*
X68143750Y-56150000D01*
X68856250Y-56150000D01*
X68887493Y-56151535D01*
X68887493Y-56151535D01*
G37*
D14*
X68500000Y-56787500D03*
D13*
G36*
X68887493Y-54576535D02*
X68918435Y-54581125D01*
X68948778Y-54588725D01*
X68978230Y-54599263D01*
X69006508Y-54612638D01*
X69033338Y-54628719D01*
X69058463Y-54647353D01*
X69081640Y-54668360D01*
X69102647Y-54691537D01*
X69121281Y-54716662D01*
X69137362Y-54743492D01*
X69150737Y-54771770D01*
X69161275Y-54801222D01*
X69168875Y-54831565D01*
X69173465Y-54862507D01*
X69175000Y-54893750D01*
X69175000Y-55531250D01*
X69173465Y-55562493D01*
X69168875Y-55593435D01*
X69161275Y-55623778D01*
X69150737Y-55653230D01*
X69137362Y-55681508D01*
X69121281Y-55708338D01*
X69102647Y-55733463D01*
X69081640Y-55756640D01*
X69058463Y-55777647D01*
X69033338Y-55796281D01*
X69006508Y-55812362D01*
X68978230Y-55825737D01*
X68948778Y-55836275D01*
X68918435Y-55843875D01*
X68887493Y-55848465D01*
X68856250Y-55850000D01*
X68143750Y-55850000D01*
X68112507Y-55848465D01*
X68081565Y-55843875D01*
X68051222Y-55836275D01*
X68021770Y-55825737D01*
X67993492Y-55812362D01*
X67966662Y-55796281D01*
X67941537Y-55777647D01*
X67918360Y-55756640D01*
X67897353Y-55733463D01*
X67878719Y-55708338D01*
X67862638Y-55681508D01*
X67849263Y-55653230D01*
X67838725Y-55623778D01*
X67831125Y-55593435D01*
X67826535Y-55562493D01*
X67825000Y-55531250D01*
X67825000Y-54893750D01*
X67826535Y-54862507D01*
X67831125Y-54831565D01*
X67838725Y-54801222D01*
X67849263Y-54771770D01*
X67862638Y-54743492D01*
X67878719Y-54716662D01*
X67897353Y-54691537D01*
X67918360Y-54668360D01*
X67941537Y-54647353D01*
X67966662Y-54628719D01*
X67993492Y-54612638D01*
X68021770Y-54599263D01*
X68051222Y-54588725D01*
X68081565Y-54581125D01*
X68112507Y-54576535D01*
X68143750Y-54575000D01*
X68856250Y-54575000D01*
X68887493Y-54576535D01*
X68887493Y-54576535D01*
G37*
D14*
X68500000Y-55212500D03*
G04 #@! TD*
D13*
G04 #@! TO.C,D1*
G36*
X52439943Y-51601655D02*
X52473312Y-51606605D01*
X52506035Y-51614802D01*
X52537797Y-51626166D01*
X52568293Y-51640590D01*
X52597227Y-51657932D01*
X52624323Y-51678028D01*
X52649318Y-51700682D01*
X52671972Y-51725677D01*
X52692068Y-51752773D01*
X52709410Y-51781707D01*
X52723834Y-51812203D01*
X52735198Y-51843965D01*
X52743395Y-51876688D01*
X52748345Y-51910057D01*
X52750000Y-51943750D01*
X52750000Y-53056250D01*
X52748345Y-53089943D01*
X52743395Y-53123312D01*
X52735198Y-53156035D01*
X52723834Y-53187797D01*
X52709410Y-53218293D01*
X52692068Y-53247227D01*
X52671972Y-53274323D01*
X52649318Y-53299318D01*
X52624323Y-53321972D01*
X52597227Y-53342068D01*
X52568293Y-53359410D01*
X52537797Y-53373834D01*
X52506035Y-53385198D01*
X52473312Y-53393395D01*
X52439943Y-53398345D01*
X52406250Y-53400000D01*
X51718750Y-53400000D01*
X51685057Y-53398345D01*
X51651688Y-53393395D01*
X51618965Y-53385198D01*
X51587203Y-53373834D01*
X51556707Y-53359410D01*
X51527773Y-53342068D01*
X51500677Y-53321972D01*
X51475682Y-53299318D01*
X51453028Y-53274323D01*
X51432932Y-53247227D01*
X51415590Y-53218293D01*
X51401166Y-53187797D01*
X51389802Y-53156035D01*
X51381605Y-53123312D01*
X51376655Y-53089943D01*
X51375000Y-53056250D01*
X51375000Y-51943750D01*
X51376655Y-51910057D01*
X51381605Y-51876688D01*
X51389802Y-51843965D01*
X51401166Y-51812203D01*
X51415590Y-51781707D01*
X51432932Y-51752773D01*
X51453028Y-51725677D01*
X51475682Y-51700682D01*
X51500677Y-51678028D01*
X51527773Y-51657932D01*
X51556707Y-51640590D01*
X51587203Y-51626166D01*
X51618965Y-51614802D01*
X51651688Y-51606605D01*
X51685057Y-51601655D01*
X51718750Y-51600000D01*
X52406250Y-51600000D01*
X52439943Y-51601655D01*
X52439943Y-51601655D01*
G37*
D15*
X52062500Y-52500000D03*
D13*
G36*
X54314943Y-51601655D02*
X54348312Y-51606605D01*
X54381035Y-51614802D01*
X54412797Y-51626166D01*
X54443293Y-51640590D01*
X54472227Y-51657932D01*
X54499323Y-51678028D01*
X54524318Y-51700682D01*
X54546972Y-51725677D01*
X54567068Y-51752773D01*
X54584410Y-51781707D01*
X54598834Y-51812203D01*
X54610198Y-51843965D01*
X54618395Y-51876688D01*
X54623345Y-51910057D01*
X54625000Y-51943750D01*
X54625000Y-53056250D01*
X54623345Y-53089943D01*
X54618395Y-53123312D01*
X54610198Y-53156035D01*
X54598834Y-53187797D01*
X54584410Y-53218293D01*
X54567068Y-53247227D01*
X54546972Y-53274323D01*
X54524318Y-53299318D01*
X54499323Y-53321972D01*
X54472227Y-53342068D01*
X54443293Y-53359410D01*
X54412797Y-53373834D01*
X54381035Y-53385198D01*
X54348312Y-53393395D01*
X54314943Y-53398345D01*
X54281250Y-53400000D01*
X53593750Y-53400000D01*
X53560057Y-53398345D01*
X53526688Y-53393395D01*
X53493965Y-53385198D01*
X53462203Y-53373834D01*
X53431707Y-53359410D01*
X53402773Y-53342068D01*
X53375677Y-53321972D01*
X53350682Y-53299318D01*
X53328028Y-53274323D01*
X53307932Y-53247227D01*
X53290590Y-53218293D01*
X53276166Y-53187797D01*
X53264802Y-53156035D01*
X53256605Y-53123312D01*
X53251655Y-53089943D01*
X53250000Y-53056250D01*
X53250000Y-51943750D01*
X53251655Y-51910057D01*
X53256605Y-51876688D01*
X53264802Y-51843965D01*
X53276166Y-51812203D01*
X53290590Y-51781707D01*
X53307932Y-51752773D01*
X53328028Y-51725677D01*
X53350682Y-51700682D01*
X53375677Y-51678028D01*
X53402773Y-51657932D01*
X53431707Y-51640590D01*
X53462203Y-51626166D01*
X53493965Y-51614802D01*
X53526688Y-51606605D01*
X53560057Y-51601655D01*
X53593750Y-51600000D01*
X54281250Y-51600000D01*
X54314943Y-51601655D01*
X54314943Y-51601655D01*
G37*
D15*
X53937500Y-52500000D03*
G04 #@! TD*
D13*
G04 #@! TO.C,D2*
G36*
X54314943Y-49101655D02*
X54348312Y-49106605D01*
X54381035Y-49114802D01*
X54412797Y-49126166D01*
X54443293Y-49140590D01*
X54472227Y-49157932D01*
X54499323Y-49178028D01*
X54524318Y-49200682D01*
X54546972Y-49225677D01*
X54567068Y-49252773D01*
X54584410Y-49281707D01*
X54598834Y-49312203D01*
X54610198Y-49343965D01*
X54618395Y-49376688D01*
X54623345Y-49410057D01*
X54625000Y-49443750D01*
X54625000Y-50556250D01*
X54623345Y-50589943D01*
X54618395Y-50623312D01*
X54610198Y-50656035D01*
X54598834Y-50687797D01*
X54584410Y-50718293D01*
X54567068Y-50747227D01*
X54546972Y-50774323D01*
X54524318Y-50799318D01*
X54499323Y-50821972D01*
X54472227Y-50842068D01*
X54443293Y-50859410D01*
X54412797Y-50873834D01*
X54381035Y-50885198D01*
X54348312Y-50893395D01*
X54314943Y-50898345D01*
X54281250Y-50900000D01*
X53593750Y-50900000D01*
X53560057Y-50898345D01*
X53526688Y-50893395D01*
X53493965Y-50885198D01*
X53462203Y-50873834D01*
X53431707Y-50859410D01*
X53402773Y-50842068D01*
X53375677Y-50821972D01*
X53350682Y-50799318D01*
X53328028Y-50774323D01*
X53307932Y-50747227D01*
X53290590Y-50718293D01*
X53276166Y-50687797D01*
X53264802Y-50656035D01*
X53256605Y-50623312D01*
X53251655Y-50589943D01*
X53250000Y-50556250D01*
X53250000Y-49443750D01*
X53251655Y-49410057D01*
X53256605Y-49376688D01*
X53264802Y-49343965D01*
X53276166Y-49312203D01*
X53290590Y-49281707D01*
X53307932Y-49252773D01*
X53328028Y-49225677D01*
X53350682Y-49200682D01*
X53375677Y-49178028D01*
X53402773Y-49157932D01*
X53431707Y-49140590D01*
X53462203Y-49126166D01*
X53493965Y-49114802D01*
X53526688Y-49106605D01*
X53560057Y-49101655D01*
X53593750Y-49100000D01*
X54281250Y-49100000D01*
X54314943Y-49101655D01*
X54314943Y-49101655D01*
G37*
D15*
X53937500Y-50000000D03*
D13*
G36*
X52439943Y-49101655D02*
X52473312Y-49106605D01*
X52506035Y-49114802D01*
X52537797Y-49126166D01*
X52568293Y-49140590D01*
X52597227Y-49157932D01*
X52624323Y-49178028D01*
X52649318Y-49200682D01*
X52671972Y-49225677D01*
X52692068Y-49252773D01*
X52709410Y-49281707D01*
X52723834Y-49312203D01*
X52735198Y-49343965D01*
X52743395Y-49376688D01*
X52748345Y-49410057D01*
X52750000Y-49443750D01*
X52750000Y-50556250D01*
X52748345Y-50589943D01*
X52743395Y-50623312D01*
X52735198Y-50656035D01*
X52723834Y-50687797D01*
X52709410Y-50718293D01*
X52692068Y-50747227D01*
X52671972Y-50774323D01*
X52649318Y-50799318D01*
X52624323Y-50821972D01*
X52597227Y-50842068D01*
X52568293Y-50859410D01*
X52537797Y-50873834D01*
X52506035Y-50885198D01*
X52473312Y-50893395D01*
X52439943Y-50898345D01*
X52406250Y-50900000D01*
X51718750Y-50900000D01*
X51685057Y-50898345D01*
X51651688Y-50893395D01*
X51618965Y-50885198D01*
X51587203Y-50873834D01*
X51556707Y-50859410D01*
X51527773Y-50842068D01*
X51500677Y-50821972D01*
X51475682Y-50799318D01*
X51453028Y-50774323D01*
X51432932Y-50747227D01*
X51415590Y-50718293D01*
X51401166Y-50687797D01*
X51389802Y-50656035D01*
X51381605Y-50623312D01*
X51376655Y-50589943D01*
X51375000Y-50556250D01*
X51375000Y-49443750D01*
X51376655Y-49410057D01*
X51381605Y-49376688D01*
X51389802Y-49343965D01*
X51401166Y-49312203D01*
X51415590Y-49281707D01*
X51432932Y-49252773D01*
X51453028Y-49225677D01*
X51475682Y-49200682D01*
X51500677Y-49178028D01*
X51527773Y-49157932D01*
X51556707Y-49140590D01*
X51587203Y-49126166D01*
X51618965Y-49114802D01*
X51651688Y-49106605D01*
X51685057Y-49101655D01*
X51718750Y-49100000D01*
X52406250Y-49100000D01*
X52439943Y-49101655D01*
X52439943Y-49101655D01*
G37*
D15*
X52062500Y-50000000D03*
G04 #@! TD*
D16*
G04 #@! TO.C,J2*
X78340000Y-48100000D03*
D17*
X75800000Y-48100000D03*
X78340000Y-50640000D03*
X75800000Y-50640000D03*
X78340000Y-53180000D03*
X75800000Y-53180000D03*
X78340000Y-55720000D03*
X75800000Y-55720000D03*
X78340000Y-58260000D03*
X75800000Y-58260000D03*
X78340000Y-60800000D03*
X75800000Y-60800000D03*
X78340000Y-63340000D03*
X75800000Y-63340000D03*
X78340000Y-65880000D03*
X75800000Y-65880000D03*
G04 #@! TD*
D16*
G04 #@! TO.C,J3*
X57000000Y-66000000D03*
D17*
X59540000Y-66000000D03*
X62080000Y-66000000D03*
X64620000Y-66000000D03*
G04 #@! TD*
D16*
G04 #@! TO.C,J4*
X58000000Y-70500000D03*
D17*
X60540000Y-70500000D03*
X63080000Y-70500000D03*
X65620000Y-70500000D03*
X68160000Y-70500000D03*
X70700000Y-70500000D03*
G04 #@! TD*
D18*
G04 #@! TO.C,JP1*
X58500000Y-61550000D03*
D13*
G36*
X57553843Y-60960982D02*
X57565224Y-60923463D01*
X57583706Y-60888886D01*
X57608579Y-60858579D01*
X57638886Y-60833706D01*
X57673463Y-60815224D01*
X57710982Y-60803843D01*
X57750000Y-60800000D01*
X59250000Y-60800000D01*
X59289018Y-60803843D01*
X59326537Y-60815224D01*
X59361114Y-60833706D01*
X59391421Y-60858579D01*
X59416294Y-60888886D01*
X59434776Y-60923463D01*
X59446157Y-60960982D01*
X59450000Y-61000000D01*
X59450000Y-61550000D01*
X59449398Y-61556112D01*
X59449398Y-61574534D01*
X59448435Y-61594140D01*
X59443625Y-61642971D01*
X59440746Y-61662380D01*
X59431174Y-61710505D01*
X59426404Y-61729548D01*
X59412160Y-61776503D01*
X59405549Y-61794980D01*
X59386772Y-61840313D01*
X59378377Y-61858061D01*
X59355246Y-61901334D01*
X59345160Y-61918162D01*
X59317900Y-61958961D01*
X59306205Y-61974730D01*
X59275077Y-62012659D01*
X59261897Y-62027200D01*
X59227200Y-62061897D01*
X59212659Y-62075077D01*
X59174730Y-62106205D01*
X59158961Y-62117900D01*
X59118162Y-62145160D01*
X59101334Y-62155246D01*
X59058061Y-62178377D01*
X59040313Y-62186772D01*
X58994980Y-62205549D01*
X58976503Y-62212160D01*
X58929548Y-62226404D01*
X58910505Y-62231174D01*
X58862380Y-62240746D01*
X58842971Y-62243625D01*
X58794140Y-62248435D01*
X58774534Y-62249398D01*
X58756112Y-62249398D01*
X58750000Y-62250000D01*
X58250000Y-62250000D01*
X58243888Y-62249398D01*
X58225466Y-62249398D01*
X58205860Y-62248435D01*
X58157029Y-62243625D01*
X58137620Y-62240746D01*
X58089495Y-62231174D01*
X58070452Y-62226404D01*
X58023497Y-62212160D01*
X58005020Y-62205549D01*
X57959687Y-62186772D01*
X57941939Y-62178377D01*
X57898666Y-62155246D01*
X57881838Y-62145160D01*
X57841039Y-62117900D01*
X57825270Y-62106205D01*
X57787341Y-62075077D01*
X57772800Y-62061897D01*
X57738103Y-62027200D01*
X57724923Y-62012659D01*
X57693795Y-61974730D01*
X57682100Y-61958961D01*
X57654840Y-61918162D01*
X57644754Y-61901334D01*
X57621623Y-61858061D01*
X57613228Y-61840313D01*
X57594451Y-61794980D01*
X57587840Y-61776503D01*
X57573596Y-61729548D01*
X57568826Y-61710505D01*
X57559254Y-61662380D01*
X57556375Y-61642971D01*
X57551565Y-61594140D01*
X57550602Y-61574534D01*
X57550602Y-61556112D01*
X57550000Y-61550000D01*
X57550000Y-61000000D01*
X57553843Y-60960982D01*
X57553843Y-60960982D01*
G37*
D18*
X58500000Y-58950000D03*
D13*
G36*
X57550602Y-58943888D02*
X57550602Y-58925466D01*
X57551565Y-58905860D01*
X57556375Y-58857029D01*
X57559254Y-58837620D01*
X57568826Y-58789495D01*
X57573596Y-58770452D01*
X57587840Y-58723497D01*
X57594451Y-58705020D01*
X57613228Y-58659687D01*
X57621623Y-58641939D01*
X57644754Y-58598666D01*
X57654840Y-58581838D01*
X57682100Y-58541039D01*
X57693795Y-58525270D01*
X57724923Y-58487341D01*
X57738103Y-58472800D01*
X57772800Y-58438103D01*
X57787341Y-58424923D01*
X57825270Y-58393795D01*
X57841039Y-58382100D01*
X57881838Y-58354840D01*
X57898666Y-58344754D01*
X57941939Y-58321623D01*
X57959687Y-58313228D01*
X58005020Y-58294451D01*
X58023497Y-58287840D01*
X58070452Y-58273596D01*
X58089495Y-58268826D01*
X58137620Y-58259254D01*
X58157029Y-58256375D01*
X58205860Y-58251565D01*
X58225466Y-58250602D01*
X58243888Y-58250602D01*
X58250000Y-58250000D01*
X58750000Y-58250000D01*
X58756112Y-58250602D01*
X58774534Y-58250602D01*
X58794140Y-58251565D01*
X58842971Y-58256375D01*
X58862380Y-58259254D01*
X58910505Y-58268826D01*
X58929548Y-58273596D01*
X58976503Y-58287840D01*
X58994980Y-58294451D01*
X59040313Y-58313228D01*
X59058061Y-58321623D01*
X59101334Y-58344754D01*
X59118162Y-58354840D01*
X59158961Y-58382100D01*
X59174730Y-58393795D01*
X59212659Y-58424923D01*
X59227200Y-58438103D01*
X59261897Y-58472800D01*
X59275077Y-58487341D01*
X59306205Y-58525270D01*
X59317900Y-58541039D01*
X59345160Y-58581838D01*
X59355246Y-58598666D01*
X59378377Y-58641939D01*
X59386772Y-58659687D01*
X59405549Y-58705020D01*
X59412160Y-58723497D01*
X59426404Y-58770452D01*
X59431174Y-58789495D01*
X59440746Y-58837620D01*
X59443625Y-58857029D01*
X59448435Y-58905860D01*
X59449398Y-58925466D01*
X59449398Y-58943888D01*
X59450000Y-58950000D01*
X59450000Y-59500000D01*
X59446157Y-59539018D01*
X59434776Y-59576537D01*
X59416294Y-59611114D01*
X59391421Y-59641421D01*
X59361114Y-59666294D01*
X59326537Y-59684776D01*
X59289018Y-59696157D01*
X59250000Y-59700000D01*
X57750000Y-59700000D01*
X57710982Y-59696157D01*
X57673463Y-59684776D01*
X57638886Y-59666294D01*
X57608579Y-59641421D01*
X57583706Y-59611114D01*
X57565224Y-59576537D01*
X57553843Y-59539018D01*
X57550000Y-59500000D01*
X57550000Y-58950000D01*
X57550602Y-58943888D01*
X57550602Y-58943888D01*
G37*
D19*
X58500000Y-60250000D03*
G04 #@! TD*
D13*
G04 #@! TO.C,R1*
G36*
X67314943Y-53601655D02*
X67348312Y-53606605D01*
X67381035Y-53614802D01*
X67412797Y-53626166D01*
X67443293Y-53640590D01*
X67472227Y-53657932D01*
X67499323Y-53678028D01*
X67524318Y-53700682D01*
X67546972Y-53725677D01*
X67567068Y-53752773D01*
X67584410Y-53781707D01*
X67598834Y-53812203D01*
X67610198Y-53843965D01*
X67618395Y-53876688D01*
X67623345Y-53910057D01*
X67625000Y-53943750D01*
X67625000Y-55056250D01*
X67623345Y-55089943D01*
X67618395Y-55123312D01*
X67610198Y-55156035D01*
X67598834Y-55187797D01*
X67584410Y-55218293D01*
X67567068Y-55247227D01*
X67546972Y-55274323D01*
X67524318Y-55299318D01*
X67499323Y-55321972D01*
X67472227Y-55342068D01*
X67443293Y-55359410D01*
X67412797Y-55373834D01*
X67381035Y-55385198D01*
X67348312Y-55393395D01*
X67314943Y-55398345D01*
X67281250Y-55400000D01*
X66593750Y-55400000D01*
X66560057Y-55398345D01*
X66526688Y-55393395D01*
X66493965Y-55385198D01*
X66462203Y-55373834D01*
X66431707Y-55359410D01*
X66402773Y-55342068D01*
X66375677Y-55321972D01*
X66350682Y-55299318D01*
X66328028Y-55274323D01*
X66307932Y-55247227D01*
X66290590Y-55218293D01*
X66276166Y-55187797D01*
X66264802Y-55156035D01*
X66256605Y-55123312D01*
X66251655Y-55089943D01*
X66250000Y-55056250D01*
X66250000Y-53943750D01*
X66251655Y-53910057D01*
X66256605Y-53876688D01*
X66264802Y-53843965D01*
X66276166Y-53812203D01*
X66290590Y-53781707D01*
X66307932Y-53752773D01*
X66328028Y-53725677D01*
X66350682Y-53700682D01*
X66375677Y-53678028D01*
X66402773Y-53657932D01*
X66431707Y-53640590D01*
X66462203Y-53626166D01*
X66493965Y-53614802D01*
X66526688Y-53606605D01*
X66560057Y-53601655D01*
X66593750Y-53600000D01*
X67281250Y-53600000D01*
X67314943Y-53601655D01*
X67314943Y-53601655D01*
G37*
D15*
X66937500Y-54500000D03*
D13*
G36*
X65439943Y-53601655D02*
X65473312Y-53606605D01*
X65506035Y-53614802D01*
X65537797Y-53626166D01*
X65568293Y-53640590D01*
X65597227Y-53657932D01*
X65624323Y-53678028D01*
X65649318Y-53700682D01*
X65671972Y-53725677D01*
X65692068Y-53752773D01*
X65709410Y-53781707D01*
X65723834Y-53812203D01*
X65735198Y-53843965D01*
X65743395Y-53876688D01*
X65748345Y-53910057D01*
X65750000Y-53943750D01*
X65750000Y-55056250D01*
X65748345Y-55089943D01*
X65743395Y-55123312D01*
X65735198Y-55156035D01*
X65723834Y-55187797D01*
X65709410Y-55218293D01*
X65692068Y-55247227D01*
X65671972Y-55274323D01*
X65649318Y-55299318D01*
X65624323Y-55321972D01*
X65597227Y-55342068D01*
X65568293Y-55359410D01*
X65537797Y-55373834D01*
X65506035Y-55385198D01*
X65473312Y-55393395D01*
X65439943Y-55398345D01*
X65406250Y-55400000D01*
X64718750Y-55400000D01*
X64685057Y-55398345D01*
X64651688Y-55393395D01*
X64618965Y-55385198D01*
X64587203Y-55373834D01*
X64556707Y-55359410D01*
X64527773Y-55342068D01*
X64500677Y-55321972D01*
X64475682Y-55299318D01*
X64453028Y-55274323D01*
X64432932Y-55247227D01*
X64415590Y-55218293D01*
X64401166Y-55187797D01*
X64389802Y-55156035D01*
X64381605Y-55123312D01*
X64376655Y-55089943D01*
X64375000Y-55056250D01*
X64375000Y-53943750D01*
X64376655Y-53910057D01*
X64381605Y-53876688D01*
X64389802Y-53843965D01*
X64401166Y-53812203D01*
X64415590Y-53781707D01*
X64432932Y-53752773D01*
X64453028Y-53725677D01*
X64475682Y-53700682D01*
X64500677Y-53678028D01*
X64527773Y-53657932D01*
X64556707Y-53640590D01*
X64587203Y-53626166D01*
X64618965Y-53614802D01*
X64651688Y-53606605D01*
X64685057Y-53601655D01*
X64718750Y-53600000D01*
X65406250Y-53600000D01*
X65439943Y-53601655D01*
X65439943Y-53601655D01*
G37*
D15*
X65062500Y-54500000D03*
G04 #@! TD*
D13*
G04 #@! TO.C,R3*
G36*
X56439943Y-51601655D02*
X56473312Y-51606605D01*
X56506035Y-51614802D01*
X56537797Y-51626166D01*
X56568293Y-51640590D01*
X56597227Y-51657932D01*
X56624323Y-51678028D01*
X56649318Y-51700682D01*
X56671972Y-51725677D01*
X56692068Y-51752773D01*
X56709410Y-51781707D01*
X56723834Y-51812203D01*
X56735198Y-51843965D01*
X56743395Y-51876688D01*
X56748345Y-51910057D01*
X56750000Y-51943750D01*
X56750000Y-53056250D01*
X56748345Y-53089943D01*
X56743395Y-53123312D01*
X56735198Y-53156035D01*
X56723834Y-53187797D01*
X56709410Y-53218293D01*
X56692068Y-53247227D01*
X56671972Y-53274323D01*
X56649318Y-53299318D01*
X56624323Y-53321972D01*
X56597227Y-53342068D01*
X56568293Y-53359410D01*
X56537797Y-53373834D01*
X56506035Y-53385198D01*
X56473312Y-53393395D01*
X56439943Y-53398345D01*
X56406250Y-53400000D01*
X55718750Y-53400000D01*
X55685057Y-53398345D01*
X55651688Y-53393395D01*
X55618965Y-53385198D01*
X55587203Y-53373834D01*
X55556707Y-53359410D01*
X55527773Y-53342068D01*
X55500677Y-53321972D01*
X55475682Y-53299318D01*
X55453028Y-53274323D01*
X55432932Y-53247227D01*
X55415590Y-53218293D01*
X55401166Y-53187797D01*
X55389802Y-53156035D01*
X55381605Y-53123312D01*
X55376655Y-53089943D01*
X55375000Y-53056250D01*
X55375000Y-51943750D01*
X55376655Y-51910057D01*
X55381605Y-51876688D01*
X55389802Y-51843965D01*
X55401166Y-51812203D01*
X55415590Y-51781707D01*
X55432932Y-51752773D01*
X55453028Y-51725677D01*
X55475682Y-51700682D01*
X55500677Y-51678028D01*
X55527773Y-51657932D01*
X55556707Y-51640590D01*
X55587203Y-51626166D01*
X55618965Y-51614802D01*
X55651688Y-51606605D01*
X55685057Y-51601655D01*
X55718750Y-51600000D01*
X56406250Y-51600000D01*
X56439943Y-51601655D01*
X56439943Y-51601655D01*
G37*
D15*
X56062500Y-52500000D03*
D13*
G36*
X58314943Y-51601655D02*
X58348312Y-51606605D01*
X58381035Y-51614802D01*
X58412797Y-51626166D01*
X58443293Y-51640590D01*
X58472227Y-51657932D01*
X58499323Y-51678028D01*
X58524318Y-51700682D01*
X58546972Y-51725677D01*
X58567068Y-51752773D01*
X58584410Y-51781707D01*
X58598834Y-51812203D01*
X58610198Y-51843965D01*
X58618395Y-51876688D01*
X58623345Y-51910057D01*
X58625000Y-51943750D01*
X58625000Y-53056250D01*
X58623345Y-53089943D01*
X58618395Y-53123312D01*
X58610198Y-53156035D01*
X58598834Y-53187797D01*
X58584410Y-53218293D01*
X58567068Y-53247227D01*
X58546972Y-53274323D01*
X58524318Y-53299318D01*
X58499323Y-53321972D01*
X58472227Y-53342068D01*
X58443293Y-53359410D01*
X58412797Y-53373834D01*
X58381035Y-53385198D01*
X58348312Y-53393395D01*
X58314943Y-53398345D01*
X58281250Y-53400000D01*
X57593750Y-53400000D01*
X57560057Y-53398345D01*
X57526688Y-53393395D01*
X57493965Y-53385198D01*
X57462203Y-53373834D01*
X57431707Y-53359410D01*
X57402773Y-53342068D01*
X57375677Y-53321972D01*
X57350682Y-53299318D01*
X57328028Y-53274323D01*
X57307932Y-53247227D01*
X57290590Y-53218293D01*
X57276166Y-53187797D01*
X57264802Y-53156035D01*
X57256605Y-53123312D01*
X57251655Y-53089943D01*
X57250000Y-53056250D01*
X57250000Y-51943750D01*
X57251655Y-51910057D01*
X57256605Y-51876688D01*
X57264802Y-51843965D01*
X57276166Y-51812203D01*
X57290590Y-51781707D01*
X57307932Y-51752773D01*
X57328028Y-51725677D01*
X57350682Y-51700682D01*
X57375677Y-51678028D01*
X57402773Y-51657932D01*
X57431707Y-51640590D01*
X57462203Y-51626166D01*
X57493965Y-51614802D01*
X57526688Y-51606605D01*
X57560057Y-51601655D01*
X57593750Y-51600000D01*
X58281250Y-51600000D01*
X58314943Y-51601655D01*
X58314943Y-51601655D01*
G37*
D15*
X57937500Y-52500000D03*
G04 #@! TD*
D13*
G04 #@! TO.C,R4*
G36*
X56439943Y-49101655D02*
X56473312Y-49106605D01*
X56506035Y-49114802D01*
X56537797Y-49126166D01*
X56568293Y-49140590D01*
X56597227Y-49157932D01*
X56624323Y-49178028D01*
X56649318Y-49200682D01*
X56671972Y-49225677D01*
X56692068Y-49252773D01*
X56709410Y-49281707D01*
X56723834Y-49312203D01*
X56735198Y-49343965D01*
X56743395Y-49376688D01*
X56748345Y-49410057D01*
X56750000Y-49443750D01*
X56750000Y-50556250D01*
X56748345Y-50589943D01*
X56743395Y-50623312D01*
X56735198Y-50656035D01*
X56723834Y-50687797D01*
X56709410Y-50718293D01*
X56692068Y-50747227D01*
X56671972Y-50774323D01*
X56649318Y-50799318D01*
X56624323Y-50821972D01*
X56597227Y-50842068D01*
X56568293Y-50859410D01*
X56537797Y-50873834D01*
X56506035Y-50885198D01*
X56473312Y-50893395D01*
X56439943Y-50898345D01*
X56406250Y-50900000D01*
X55718750Y-50900000D01*
X55685057Y-50898345D01*
X55651688Y-50893395D01*
X55618965Y-50885198D01*
X55587203Y-50873834D01*
X55556707Y-50859410D01*
X55527773Y-50842068D01*
X55500677Y-50821972D01*
X55475682Y-50799318D01*
X55453028Y-50774323D01*
X55432932Y-50747227D01*
X55415590Y-50718293D01*
X55401166Y-50687797D01*
X55389802Y-50656035D01*
X55381605Y-50623312D01*
X55376655Y-50589943D01*
X55375000Y-50556250D01*
X55375000Y-49443750D01*
X55376655Y-49410057D01*
X55381605Y-49376688D01*
X55389802Y-49343965D01*
X55401166Y-49312203D01*
X55415590Y-49281707D01*
X55432932Y-49252773D01*
X55453028Y-49225677D01*
X55475682Y-49200682D01*
X55500677Y-49178028D01*
X55527773Y-49157932D01*
X55556707Y-49140590D01*
X55587203Y-49126166D01*
X55618965Y-49114802D01*
X55651688Y-49106605D01*
X55685057Y-49101655D01*
X55718750Y-49100000D01*
X56406250Y-49100000D01*
X56439943Y-49101655D01*
X56439943Y-49101655D01*
G37*
D15*
X56062500Y-50000000D03*
D13*
G36*
X58314943Y-49101655D02*
X58348312Y-49106605D01*
X58381035Y-49114802D01*
X58412797Y-49126166D01*
X58443293Y-49140590D01*
X58472227Y-49157932D01*
X58499323Y-49178028D01*
X58524318Y-49200682D01*
X58546972Y-49225677D01*
X58567068Y-49252773D01*
X58584410Y-49281707D01*
X58598834Y-49312203D01*
X58610198Y-49343965D01*
X58618395Y-49376688D01*
X58623345Y-49410057D01*
X58625000Y-49443750D01*
X58625000Y-50556250D01*
X58623345Y-50589943D01*
X58618395Y-50623312D01*
X58610198Y-50656035D01*
X58598834Y-50687797D01*
X58584410Y-50718293D01*
X58567068Y-50747227D01*
X58546972Y-50774323D01*
X58524318Y-50799318D01*
X58499323Y-50821972D01*
X58472227Y-50842068D01*
X58443293Y-50859410D01*
X58412797Y-50873834D01*
X58381035Y-50885198D01*
X58348312Y-50893395D01*
X58314943Y-50898345D01*
X58281250Y-50900000D01*
X57593750Y-50900000D01*
X57560057Y-50898345D01*
X57526688Y-50893395D01*
X57493965Y-50885198D01*
X57462203Y-50873834D01*
X57431707Y-50859410D01*
X57402773Y-50842068D01*
X57375677Y-50821972D01*
X57350682Y-50799318D01*
X57328028Y-50774323D01*
X57307932Y-50747227D01*
X57290590Y-50718293D01*
X57276166Y-50687797D01*
X57264802Y-50656035D01*
X57256605Y-50623312D01*
X57251655Y-50589943D01*
X57250000Y-50556250D01*
X57250000Y-49443750D01*
X57251655Y-49410057D01*
X57256605Y-49376688D01*
X57264802Y-49343965D01*
X57276166Y-49312203D01*
X57290590Y-49281707D01*
X57307932Y-49252773D01*
X57328028Y-49225677D01*
X57350682Y-49200682D01*
X57375677Y-49178028D01*
X57402773Y-49157932D01*
X57431707Y-49140590D01*
X57462203Y-49126166D01*
X57493965Y-49114802D01*
X57526688Y-49106605D01*
X57560057Y-49101655D01*
X57593750Y-49100000D01*
X58281250Y-49100000D01*
X58314943Y-49101655D01*
X58314943Y-49101655D01*
G37*
D15*
X57937500Y-50000000D03*
G04 #@! TD*
D13*
G04 #@! TO.C,R7*
G36*
X60589943Y-56251655D02*
X60623312Y-56256605D01*
X60656035Y-56264802D01*
X60687797Y-56276166D01*
X60718293Y-56290590D01*
X60747227Y-56307932D01*
X60774323Y-56328028D01*
X60799318Y-56350682D01*
X60821972Y-56375677D01*
X60842068Y-56402773D01*
X60859410Y-56431707D01*
X60873834Y-56462203D01*
X60885198Y-56493965D01*
X60893395Y-56526688D01*
X60898345Y-56560057D01*
X60900000Y-56593750D01*
X60900000Y-57281250D01*
X60898345Y-57314943D01*
X60893395Y-57348312D01*
X60885198Y-57381035D01*
X60873834Y-57412797D01*
X60859410Y-57443293D01*
X60842068Y-57472227D01*
X60821972Y-57499323D01*
X60799318Y-57524318D01*
X60774323Y-57546972D01*
X60747227Y-57567068D01*
X60718293Y-57584410D01*
X60687797Y-57598834D01*
X60656035Y-57610198D01*
X60623312Y-57618395D01*
X60589943Y-57623345D01*
X60556250Y-57625000D01*
X59443750Y-57625000D01*
X59410057Y-57623345D01*
X59376688Y-57618395D01*
X59343965Y-57610198D01*
X59312203Y-57598834D01*
X59281707Y-57584410D01*
X59252773Y-57567068D01*
X59225677Y-57546972D01*
X59200682Y-57524318D01*
X59178028Y-57499323D01*
X59157932Y-57472227D01*
X59140590Y-57443293D01*
X59126166Y-57412797D01*
X59114802Y-57381035D01*
X59106605Y-57348312D01*
X59101655Y-57314943D01*
X59100000Y-57281250D01*
X59100000Y-56593750D01*
X59101655Y-56560057D01*
X59106605Y-56526688D01*
X59114802Y-56493965D01*
X59126166Y-56462203D01*
X59140590Y-56431707D01*
X59157932Y-56402773D01*
X59178028Y-56375677D01*
X59200682Y-56350682D01*
X59225677Y-56328028D01*
X59252773Y-56307932D01*
X59281707Y-56290590D01*
X59312203Y-56276166D01*
X59343965Y-56264802D01*
X59376688Y-56256605D01*
X59410057Y-56251655D01*
X59443750Y-56250000D01*
X60556250Y-56250000D01*
X60589943Y-56251655D01*
X60589943Y-56251655D01*
G37*
D15*
X60000000Y-56937500D03*
D13*
G36*
X60589943Y-54376655D02*
X60623312Y-54381605D01*
X60656035Y-54389802D01*
X60687797Y-54401166D01*
X60718293Y-54415590D01*
X60747227Y-54432932D01*
X60774323Y-54453028D01*
X60799318Y-54475682D01*
X60821972Y-54500677D01*
X60842068Y-54527773D01*
X60859410Y-54556707D01*
X60873834Y-54587203D01*
X60885198Y-54618965D01*
X60893395Y-54651688D01*
X60898345Y-54685057D01*
X60900000Y-54718750D01*
X60900000Y-55406250D01*
X60898345Y-55439943D01*
X60893395Y-55473312D01*
X60885198Y-55506035D01*
X60873834Y-55537797D01*
X60859410Y-55568293D01*
X60842068Y-55597227D01*
X60821972Y-55624323D01*
X60799318Y-55649318D01*
X60774323Y-55671972D01*
X60747227Y-55692068D01*
X60718293Y-55709410D01*
X60687797Y-55723834D01*
X60656035Y-55735198D01*
X60623312Y-55743395D01*
X60589943Y-55748345D01*
X60556250Y-55750000D01*
X59443750Y-55750000D01*
X59410057Y-55748345D01*
X59376688Y-55743395D01*
X59343965Y-55735198D01*
X59312203Y-55723834D01*
X59281707Y-55709410D01*
X59252773Y-55692068D01*
X59225677Y-55671972D01*
X59200682Y-55649318D01*
X59178028Y-55624323D01*
X59157932Y-55597227D01*
X59140590Y-55568293D01*
X59126166Y-55537797D01*
X59114802Y-55506035D01*
X59106605Y-55473312D01*
X59101655Y-55439943D01*
X59100000Y-55406250D01*
X59100000Y-54718750D01*
X59101655Y-54685057D01*
X59106605Y-54651688D01*
X59114802Y-54618965D01*
X59126166Y-54587203D01*
X59140590Y-54556707D01*
X59157932Y-54527773D01*
X59178028Y-54500677D01*
X59200682Y-54475682D01*
X59225677Y-54453028D01*
X59252773Y-54432932D01*
X59281707Y-54415590D01*
X59312203Y-54401166D01*
X59343965Y-54389802D01*
X59376688Y-54381605D01*
X59410057Y-54376655D01*
X59443750Y-54375000D01*
X60556250Y-54375000D01*
X60589943Y-54376655D01*
X60589943Y-54376655D01*
G37*
D15*
X60000000Y-55062500D03*
G04 #@! TD*
D13*
G04 #@! TO.C,R8*
G36*
X67314943Y-55601655D02*
X67348312Y-55606605D01*
X67381035Y-55614802D01*
X67412797Y-55626166D01*
X67443293Y-55640590D01*
X67472227Y-55657932D01*
X67499323Y-55678028D01*
X67524318Y-55700682D01*
X67546972Y-55725677D01*
X67567068Y-55752773D01*
X67584410Y-55781707D01*
X67598834Y-55812203D01*
X67610198Y-55843965D01*
X67618395Y-55876688D01*
X67623345Y-55910057D01*
X67625000Y-55943750D01*
X67625000Y-57056250D01*
X67623345Y-57089943D01*
X67618395Y-57123312D01*
X67610198Y-57156035D01*
X67598834Y-57187797D01*
X67584410Y-57218293D01*
X67567068Y-57247227D01*
X67546972Y-57274323D01*
X67524318Y-57299318D01*
X67499323Y-57321972D01*
X67472227Y-57342068D01*
X67443293Y-57359410D01*
X67412797Y-57373834D01*
X67381035Y-57385198D01*
X67348312Y-57393395D01*
X67314943Y-57398345D01*
X67281250Y-57400000D01*
X66593750Y-57400000D01*
X66560057Y-57398345D01*
X66526688Y-57393395D01*
X66493965Y-57385198D01*
X66462203Y-57373834D01*
X66431707Y-57359410D01*
X66402773Y-57342068D01*
X66375677Y-57321972D01*
X66350682Y-57299318D01*
X66328028Y-57274323D01*
X66307932Y-57247227D01*
X66290590Y-57218293D01*
X66276166Y-57187797D01*
X66264802Y-57156035D01*
X66256605Y-57123312D01*
X66251655Y-57089943D01*
X66250000Y-57056250D01*
X66250000Y-55943750D01*
X66251655Y-55910057D01*
X66256605Y-55876688D01*
X66264802Y-55843965D01*
X66276166Y-55812203D01*
X66290590Y-55781707D01*
X66307932Y-55752773D01*
X66328028Y-55725677D01*
X66350682Y-55700682D01*
X66375677Y-55678028D01*
X66402773Y-55657932D01*
X66431707Y-55640590D01*
X66462203Y-55626166D01*
X66493965Y-55614802D01*
X66526688Y-55606605D01*
X66560057Y-55601655D01*
X66593750Y-55600000D01*
X67281250Y-55600000D01*
X67314943Y-55601655D01*
X67314943Y-55601655D01*
G37*
D15*
X66937500Y-56500000D03*
D13*
G36*
X65439943Y-55601655D02*
X65473312Y-55606605D01*
X65506035Y-55614802D01*
X65537797Y-55626166D01*
X65568293Y-55640590D01*
X65597227Y-55657932D01*
X65624323Y-55678028D01*
X65649318Y-55700682D01*
X65671972Y-55725677D01*
X65692068Y-55752773D01*
X65709410Y-55781707D01*
X65723834Y-55812203D01*
X65735198Y-55843965D01*
X65743395Y-55876688D01*
X65748345Y-55910057D01*
X65750000Y-55943750D01*
X65750000Y-57056250D01*
X65748345Y-57089943D01*
X65743395Y-57123312D01*
X65735198Y-57156035D01*
X65723834Y-57187797D01*
X65709410Y-57218293D01*
X65692068Y-57247227D01*
X65671972Y-57274323D01*
X65649318Y-57299318D01*
X65624323Y-57321972D01*
X65597227Y-57342068D01*
X65568293Y-57359410D01*
X65537797Y-57373834D01*
X65506035Y-57385198D01*
X65473312Y-57393395D01*
X65439943Y-57398345D01*
X65406250Y-57400000D01*
X64718750Y-57400000D01*
X64685057Y-57398345D01*
X64651688Y-57393395D01*
X64618965Y-57385198D01*
X64587203Y-57373834D01*
X64556707Y-57359410D01*
X64527773Y-57342068D01*
X64500677Y-57321972D01*
X64475682Y-57299318D01*
X64453028Y-57274323D01*
X64432932Y-57247227D01*
X64415590Y-57218293D01*
X64401166Y-57187797D01*
X64389802Y-57156035D01*
X64381605Y-57123312D01*
X64376655Y-57089943D01*
X64375000Y-57056250D01*
X64375000Y-55943750D01*
X64376655Y-55910057D01*
X64381605Y-55876688D01*
X64389802Y-55843965D01*
X64401166Y-55812203D01*
X64415590Y-55781707D01*
X64432932Y-55752773D01*
X64453028Y-55725677D01*
X64475682Y-55700682D01*
X64500677Y-55678028D01*
X64527773Y-55657932D01*
X64556707Y-55640590D01*
X64587203Y-55626166D01*
X64618965Y-55614802D01*
X64651688Y-55606605D01*
X64685057Y-55601655D01*
X64718750Y-55600000D01*
X65406250Y-55600000D01*
X65439943Y-55601655D01*
X65439943Y-55601655D01*
G37*
D15*
X65062500Y-56500000D03*
G04 #@! TD*
D20*
G04 #@! TO.C,U2*
X64150000Y-44500000D03*
D21*
X57850000Y-44500000D03*
X57850000Y-46800000D03*
X57850000Y-42200000D03*
G04 #@! TD*
D16*
G04 #@! TO.C,J5*
X56500000Y-55250000D03*
G04 #@! TD*
D22*
G04 #@! TO.C,MH1*
X52500000Y-42500000D03*
G04 #@! TD*
G04 #@! TO.C,MH2*
X77500000Y-42500000D03*
G04 #@! TD*
G04 #@! TO.C,MH3*
X77500000Y-71000000D03*
G04 #@! TD*
G04 #@! TO.C,MH4*
X52500000Y-71000000D03*
G04 #@! TD*
M02*
