G04 #@! TF.GenerationSoftware,KiCad,Pcbnew,(5.0.0-rc3-dev-2-g101b68b61)*
G04 #@! TF.CreationDate,2018-07-14T01:22:09-07:00*
G04 #@! TF.ProjectId,hp34401a_oled,68703334343031615F6F6C65642E6B69,rev?*
G04 #@! TF.SameCoordinates,Original*
G04 #@! TF.FileFunction,Soldermask,Bot*
G04 #@! TF.FilePolarity,Negative*
%FSLAX46Y46*%
G04 Gerber Fmt 4.6, Leading zero omitted, Abs format (unit mm)*
G04 Created by KiCad (PCBNEW (5.0.0-rc3-dev-2-g101b68b61)) date 07/14/18 01:22:09*
%MOMM*%
%LPD*%
G01*
G04 APERTURE LIST*
%ADD10O,2.250000X1.250000*%
%ADD11C,1.240000*%
%ADD12R,1.240000X1.240000*%
%ADD13R,1.200000X1.300000*%
%ADD14R,2.100000X2.100000*%
%ADD15O,2.100000X2.100000*%
%ADD16C,0.500000*%
%ADD17C,0.100000*%
%ADD18C,1.375000*%
%ADD19C,0.650000*%
%ADD20C,0.800000*%
%ADD21C,3.600000*%
%ADD22C,1.900000*%
%ADD23R,0.900000X1.200000*%
%ADD24R,0.800000X1.200000*%
%ADD25C,1.275000*%
%ADD26R,1.950000X1.000000*%
G04 APERTURE END LIST*
D10*
G04 #@! TO.C,J1*
X52720000Y-57125000D03*
X52720000Y-64275000D03*
D11*
X52500000Y-59400000D03*
X53500000Y-60050000D03*
X52500000Y-60700000D03*
X53500000Y-61350000D03*
D12*
X52500000Y-62000000D03*
G04 #@! TD*
D13*
G04 #@! TO.C,D3*
X54950000Y-52500000D03*
X53050000Y-52500000D03*
X54000000Y-50500000D03*
G04 #@! TD*
D14*
G04 #@! TO.C,J2*
X78340000Y-48100000D03*
D15*
X75800000Y-48100000D03*
X78340000Y-50640000D03*
X75800000Y-50640000D03*
X78340000Y-53180000D03*
X75800000Y-53180000D03*
X78340000Y-55720000D03*
X75800000Y-55720000D03*
X78340000Y-58260000D03*
X75800000Y-58260000D03*
X78340000Y-60800000D03*
X75800000Y-60800000D03*
X78340000Y-63340000D03*
X75800000Y-63340000D03*
X78340000Y-65880000D03*
X75800000Y-65880000D03*
G04 #@! TD*
D14*
G04 #@! TO.C,J3*
X57000000Y-66000000D03*
D15*
X59540000Y-66000000D03*
X62080000Y-66000000D03*
X64620000Y-66000000D03*
G04 #@! TD*
D14*
G04 #@! TO.C,J4*
X58000000Y-70500000D03*
D15*
X60540000Y-70500000D03*
X63080000Y-70500000D03*
X65620000Y-70500000D03*
X68160000Y-70500000D03*
X70700000Y-70500000D03*
G04 #@! TD*
D16*
G04 #@! TO.C,JP2*
X57500000Y-52000000D03*
D17*
G36*
X56553843Y-51460982D02*
X56565224Y-51423463D01*
X56583706Y-51388886D01*
X56608579Y-51358579D01*
X56638886Y-51333706D01*
X56673463Y-51315224D01*
X56710982Y-51303843D01*
X56750000Y-51300000D01*
X58250000Y-51300000D01*
X58289018Y-51303843D01*
X58326537Y-51315224D01*
X58361114Y-51333706D01*
X58391421Y-51358579D01*
X58416294Y-51388886D01*
X58434776Y-51423463D01*
X58446157Y-51460982D01*
X58450000Y-51500000D01*
X58450000Y-52000000D01*
X58449398Y-52006112D01*
X58449398Y-52024534D01*
X58448435Y-52044140D01*
X58443625Y-52092971D01*
X58440746Y-52112380D01*
X58431174Y-52160505D01*
X58426404Y-52179548D01*
X58412160Y-52226503D01*
X58405549Y-52244980D01*
X58386772Y-52290313D01*
X58378377Y-52308061D01*
X58355246Y-52351334D01*
X58345160Y-52368162D01*
X58317900Y-52408961D01*
X58306205Y-52424730D01*
X58275077Y-52462659D01*
X58261897Y-52477200D01*
X58227200Y-52511897D01*
X58212659Y-52525077D01*
X58174730Y-52556205D01*
X58158961Y-52567900D01*
X58118162Y-52595160D01*
X58101334Y-52605246D01*
X58058061Y-52628377D01*
X58040313Y-52636772D01*
X57994980Y-52655549D01*
X57976503Y-52662160D01*
X57929548Y-52676404D01*
X57910505Y-52681174D01*
X57862380Y-52690746D01*
X57842971Y-52693625D01*
X57794140Y-52698435D01*
X57774534Y-52699398D01*
X57756112Y-52699398D01*
X57750000Y-52700000D01*
X57250000Y-52700000D01*
X57243888Y-52699398D01*
X57225466Y-52699398D01*
X57205860Y-52698435D01*
X57157029Y-52693625D01*
X57137620Y-52690746D01*
X57089495Y-52681174D01*
X57070452Y-52676404D01*
X57023497Y-52662160D01*
X57005020Y-52655549D01*
X56959687Y-52636772D01*
X56941939Y-52628377D01*
X56898666Y-52605246D01*
X56881838Y-52595160D01*
X56841039Y-52567900D01*
X56825270Y-52556205D01*
X56787341Y-52525077D01*
X56772800Y-52511897D01*
X56738103Y-52477200D01*
X56724923Y-52462659D01*
X56693795Y-52424730D01*
X56682100Y-52408961D01*
X56654840Y-52368162D01*
X56644754Y-52351334D01*
X56621623Y-52308061D01*
X56613228Y-52290313D01*
X56594451Y-52244980D01*
X56587840Y-52226503D01*
X56573596Y-52179548D01*
X56568826Y-52160505D01*
X56559254Y-52112380D01*
X56556375Y-52092971D01*
X56551565Y-52044140D01*
X56550602Y-52024534D01*
X56550602Y-52006112D01*
X56550000Y-52000000D01*
X56550000Y-51500000D01*
X56553843Y-51460982D01*
X56553843Y-51460982D01*
G37*
D16*
X57500000Y-50700000D03*
D17*
G36*
X56550602Y-50693888D02*
X56550602Y-50675466D01*
X56551565Y-50655860D01*
X56556375Y-50607029D01*
X56559254Y-50587620D01*
X56568826Y-50539495D01*
X56573596Y-50520452D01*
X56587840Y-50473497D01*
X56594451Y-50455020D01*
X56613228Y-50409687D01*
X56621623Y-50391939D01*
X56644754Y-50348666D01*
X56654840Y-50331838D01*
X56682100Y-50291039D01*
X56693795Y-50275270D01*
X56724923Y-50237341D01*
X56738103Y-50222800D01*
X56772800Y-50188103D01*
X56787341Y-50174923D01*
X56825270Y-50143795D01*
X56841039Y-50132100D01*
X56881838Y-50104840D01*
X56898666Y-50094754D01*
X56941939Y-50071623D01*
X56959687Y-50063228D01*
X57005020Y-50044451D01*
X57023497Y-50037840D01*
X57070452Y-50023596D01*
X57089495Y-50018826D01*
X57137620Y-50009254D01*
X57157029Y-50006375D01*
X57205860Y-50001565D01*
X57225466Y-50000602D01*
X57243888Y-50000602D01*
X57250000Y-50000000D01*
X57750000Y-50000000D01*
X57756112Y-50000602D01*
X57774534Y-50000602D01*
X57794140Y-50001565D01*
X57842971Y-50006375D01*
X57862380Y-50009254D01*
X57910505Y-50018826D01*
X57929548Y-50023596D01*
X57976503Y-50037840D01*
X57994980Y-50044451D01*
X58040313Y-50063228D01*
X58058061Y-50071623D01*
X58101334Y-50094754D01*
X58118162Y-50104840D01*
X58158961Y-50132100D01*
X58174730Y-50143795D01*
X58212659Y-50174923D01*
X58227200Y-50188103D01*
X58261897Y-50222800D01*
X58275077Y-50237341D01*
X58306205Y-50275270D01*
X58317900Y-50291039D01*
X58345160Y-50331838D01*
X58355246Y-50348666D01*
X58378377Y-50391939D01*
X58386772Y-50409687D01*
X58405549Y-50455020D01*
X58412160Y-50473497D01*
X58426404Y-50520452D01*
X58431174Y-50539495D01*
X58440746Y-50587620D01*
X58443625Y-50607029D01*
X58448435Y-50655860D01*
X58449398Y-50675466D01*
X58449398Y-50693888D01*
X58450000Y-50700000D01*
X58450000Y-51200000D01*
X58446157Y-51239018D01*
X58434776Y-51276537D01*
X58416294Y-51311114D01*
X58391421Y-51341421D01*
X58361114Y-51366294D01*
X58326537Y-51384776D01*
X58289018Y-51396157D01*
X58250000Y-51400000D01*
X56750000Y-51400000D01*
X56710982Y-51396157D01*
X56673463Y-51384776D01*
X56638886Y-51366294D01*
X56608579Y-51341421D01*
X56583706Y-51311114D01*
X56565224Y-51276537D01*
X56553843Y-51239018D01*
X56550000Y-51200000D01*
X56550000Y-50700000D01*
X56550602Y-50693888D01*
X56550602Y-50693888D01*
G37*
G04 #@! TD*
G04 #@! TO.C,R2*
G36*
X56439943Y-57101655D02*
X56473312Y-57106605D01*
X56506035Y-57114802D01*
X56537797Y-57126166D01*
X56568293Y-57140590D01*
X56597227Y-57157932D01*
X56624323Y-57178028D01*
X56649318Y-57200682D01*
X56671972Y-57225677D01*
X56692068Y-57252773D01*
X56709410Y-57281707D01*
X56723834Y-57312203D01*
X56735198Y-57343965D01*
X56743395Y-57376688D01*
X56748345Y-57410057D01*
X56750000Y-57443750D01*
X56750000Y-58556250D01*
X56748345Y-58589943D01*
X56743395Y-58623312D01*
X56735198Y-58656035D01*
X56723834Y-58687797D01*
X56709410Y-58718293D01*
X56692068Y-58747227D01*
X56671972Y-58774323D01*
X56649318Y-58799318D01*
X56624323Y-58821972D01*
X56597227Y-58842068D01*
X56568293Y-58859410D01*
X56537797Y-58873834D01*
X56506035Y-58885198D01*
X56473312Y-58893395D01*
X56439943Y-58898345D01*
X56406250Y-58900000D01*
X55718750Y-58900000D01*
X55685057Y-58898345D01*
X55651688Y-58893395D01*
X55618965Y-58885198D01*
X55587203Y-58873834D01*
X55556707Y-58859410D01*
X55527773Y-58842068D01*
X55500677Y-58821972D01*
X55475682Y-58799318D01*
X55453028Y-58774323D01*
X55432932Y-58747227D01*
X55415590Y-58718293D01*
X55401166Y-58687797D01*
X55389802Y-58656035D01*
X55381605Y-58623312D01*
X55376655Y-58589943D01*
X55375000Y-58556250D01*
X55375000Y-57443750D01*
X55376655Y-57410057D01*
X55381605Y-57376688D01*
X55389802Y-57343965D01*
X55401166Y-57312203D01*
X55415590Y-57281707D01*
X55432932Y-57252773D01*
X55453028Y-57225677D01*
X55475682Y-57200682D01*
X55500677Y-57178028D01*
X55527773Y-57157932D01*
X55556707Y-57140590D01*
X55587203Y-57126166D01*
X55618965Y-57114802D01*
X55651688Y-57106605D01*
X55685057Y-57101655D01*
X55718750Y-57100000D01*
X56406250Y-57100000D01*
X56439943Y-57101655D01*
X56439943Y-57101655D01*
G37*
D18*
X56062500Y-58000000D03*
D17*
G36*
X58314943Y-57101655D02*
X58348312Y-57106605D01*
X58381035Y-57114802D01*
X58412797Y-57126166D01*
X58443293Y-57140590D01*
X58472227Y-57157932D01*
X58499323Y-57178028D01*
X58524318Y-57200682D01*
X58546972Y-57225677D01*
X58567068Y-57252773D01*
X58584410Y-57281707D01*
X58598834Y-57312203D01*
X58610198Y-57343965D01*
X58618395Y-57376688D01*
X58623345Y-57410057D01*
X58625000Y-57443750D01*
X58625000Y-58556250D01*
X58623345Y-58589943D01*
X58618395Y-58623312D01*
X58610198Y-58656035D01*
X58598834Y-58687797D01*
X58584410Y-58718293D01*
X58567068Y-58747227D01*
X58546972Y-58774323D01*
X58524318Y-58799318D01*
X58499323Y-58821972D01*
X58472227Y-58842068D01*
X58443293Y-58859410D01*
X58412797Y-58873834D01*
X58381035Y-58885198D01*
X58348312Y-58893395D01*
X58314943Y-58898345D01*
X58281250Y-58900000D01*
X57593750Y-58900000D01*
X57560057Y-58898345D01*
X57526688Y-58893395D01*
X57493965Y-58885198D01*
X57462203Y-58873834D01*
X57431707Y-58859410D01*
X57402773Y-58842068D01*
X57375677Y-58821972D01*
X57350682Y-58799318D01*
X57328028Y-58774323D01*
X57307932Y-58747227D01*
X57290590Y-58718293D01*
X57276166Y-58687797D01*
X57264802Y-58656035D01*
X57256605Y-58623312D01*
X57251655Y-58589943D01*
X57250000Y-58556250D01*
X57250000Y-57443750D01*
X57251655Y-57410057D01*
X57256605Y-57376688D01*
X57264802Y-57343965D01*
X57276166Y-57312203D01*
X57290590Y-57281707D01*
X57307932Y-57252773D01*
X57328028Y-57225677D01*
X57350682Y-57200682D01*
X57375677Y-57178028D01*
X57402773Y-57157932D01*
X57431707Y-57140590D01*
X57462203Y-57126166D01*
X57493965Y-57114802D01*
X57526688Y-57106605D01*
X57560057Y-57101655D01*
X57593750Y-57100000D01*
X58281250Y-57100000D01*
X58314943Y-57101655D01*
X58314943Y-57101655D01*
G37*
D18*
X57937500Y-58000000D03*
G04 #@! TD*
D17*
G04 #@! TO.C,R5*
G36*
X56439943Y-59101655D02*
X56473312Y-59106605D01*
X56506035Y-59114802D01*
X56537797Y-59126166D01*
X56568293Y-59140590D01*
X56597227Y-59157932D01*
X56624323Y-59178028D01*
X56649318Y-59200682D01*
X56671972Y-59225677D01*
X56692068Y-59252773D01*
X56709410Y-59281707D01*
X56723834Y-59312203D01*
X56735198Y-59343965D01*
X56743395Y-59376688D01*
X56748345Y-59410057D01*
X56750000Y-59443750D01*
X56750000Y-60556250D01*
X56748345Y-60589943D01*
X56743395Y-60623312D01*
X56735198Y-60656035D01*
X56723834Y-60687797D01*
X56709410Y-60718293D01*
X56692068Y-60747227D01*
X56671972Y-60774323D01*
X56649318Y-60799318D01*
X56624323Y-60821972D01*
X56597227Y-60842068D01*
X56568293Y-60859410D01*
X56537797Y-60873834D01*
X56506035Y-60885198D01*
X56473312Y-60893395D01*
X56439943Y-60898345D01*
X56406250Y-60900000D01*
X55718750Y-60900000D01*
X55685057Y-60898345D01*
X55651688Y-60893395D01*
X55618965Y-60885198D01*
X55587203Y-60873834D01*
X55556707Y-60859410D01*
X55527773Y-60842068D01*
X55500677Y-60821972D01*
X55475682Y-60799318D01*
X55453028Y-60774323D01*
X55432932Y-60747227D01*
X55415590Y-60718293D01*
X55401166Y-60687797D01*
X55389802Y-60656035D01*
X55381605Y-60623312D01*
X55376655Y-60589943D01*
X55375000Y-60556250D01*
X55375000Y-59443750D01*
X55376655Y-59410057D01*
X55381605Y-59376688D01*
X55389802Y-59343965D01*
X55401166Y-59312203D01*
X55415590Y-59281707D01*
X55432932Y-59252773D01*
X55453028Y-59225677D01*
X55475682Y-59200682D01*
X55500677Y-59178028D01*
X55527773Y-59157932D01*
X55556707Y-59140590D01*
X55587203Y-59126166D01*
X55618965Y-59114802D01*
X55651688Y-59106605D01*
X55685057Y-59101655D01*
X55718750Y-59100000D01*
X56406250Y-59100000D01*
X56439943Y-59101655D01*
X56439943Y-59101655D01*
G37*
D18*
X56062500Y-60000000D03*
D17*
G36*
X58314943Y-59101655D02*
X58348312Y-59106605D01*
X58381035Y-59114802D01*
X58412797Y-59126166D01*
X58443293Y-59140590D01*
X58472227Y-59157932D01*
X58499323Y-59178028D01*
X58524318Y-59200682D01*
X58546972Y-59225677D01*
X58567068Y-59252773D01*
X58584410Y-59281707D01*
X58598834Y-59312203D01*
X58610198Y-59343965D01*
X58618395Y-59376688D01*
X58623345Y-59410057D01*
X58625000Y-59443750D01*
X58625000Y-60556250D01*
X58623345Y-60589943D01*
X58618395Y-60623312D01*
X58610198Y-60656035D01*
X58598834Y-60687797D01*
X58584410Y-60718293D01*
X58567068Y-60747227D01*
X58546972Y-60774323D01*
X58524318Y-60799318D01*
X58499323Y-60821972D01*
X58472227Y-60842068D01*
X58443293Y-60859410D01*
X58412797Y-60873834D01*
X58381035Y-60885198D01*
X58348312Y-60893395D01*
X58314943Y-60898345D01*
X58281250Y-60900000D01*
X57593750Y-60900000D01*
X57560057Y-60898345D01*
X57526688Y-60893395D01*
X57493965Y-60885198D01*
X57462203Y-60873834D01*
X57431707Y-60859410D01*
X57402773Y-60842068D01*
X57375677Y-60821972D01*
X57350682Y-60799318D01*
X57328028Y-60774323D01*
X57307932Y-60747227D01*
X57290590Y-60718293D01*
X57276166Y-60687797D01*
X57264802Y-60656035D01*
X57256605Y-60623312D01*
X57251655Y-60589943D01*
X57250000Y-60556250D01*
X57250000Y-59443750D01*
X57251655Y-59410057D01*
X57256605Y-59376688D01*
X57264802Y-59343965D01*
X57276166Y-59312203D01*
X57290590Y-59281707D01*
X57307932Y-59252773D01*
X57328028Y-59225677D01*
X57350682Y-59200682D01*
X57375677Y-59178028D01*
X57402773Y-59157932D01*
X57431707Y-59140590D01*
X57462203Y-59126166D01*
X57493965Y-59114802D01*
X57526688Y-59106605D01*
X57560057Y-59101655D01*
X57593750Y-59100000D01*
X58281250Y-59100000D01*
X58314943Y-59101655D01*
X58314943Y-59101655D01*
G37*
D18*
X57937500Y-60000000D03*
G04 #@! TD*
D17*
G04 #@! TO.C,R6*
G36*
X56439943Y-61101655D02*
X56473312Y-61106605D01*
X56506035Y-61114802D01*
X56537797Y-61126166D01*
X56568293Y-61140590D01*
X56597227Y-61157932D01*
X56624323Y-61178028D01*
X56649318Y-61200682D01*
X56671972Y-61225677D01*
X56692068Y-61252773D01*
X56709410Y-61281707D01*
X56723834Y-61312203D01*
X56735198Y-61343965D01*
X56743395Y-61376688D01*
X56748345Y-61410057D01*
X56750000Y-61443750D01*
X56750000Y-62556250D01*
X56748345Y-62589943D01*
X56743395Y-62623312D01*
X56735198Y-62656035D01*
X56723834Y-62687797D01*
X56709410Y-62718293D01*
X56692068Y-62747227D01*
X56671972Y-62774323D01*
X56649318Y-62799318D01*
X56624323Y-62821972D01*
X56597227Y-62842068D01*
X56568293Y-62859410D01*
X56537797Y-62873834D01*
X56506035Y-62885198D01*
X56473312Y-62893395D01*
X56439943Y-62898345D01*
X56406250Y-62900000D01*
X55718750Y-62900000D01*
X55685057Y-62898345D01*
X55651688Y-62893395D01*
X55618965Y-62885198D01*
X55587203Y-62873834D01*
X55556707Y-62859410D01*
X55527773Y-62842068D01*
X55500677Y-62821972D01*
X55475682Y-62799318D01*
X55453028Y-62774323D01*
X55432932Y-62747227D01*
X55415590Y-62718293D01*
X55401166Y-62687797D01*
X55389802Y-62656035D01*
X55381605Y-62623312D01*
X55376655Y-62589943D01*
X55375000Y-62556250D01*
X55375000Y-61443750D01*
X55376655Y-61410057D01*
X55381605Y-61376688D01*
X55389802Y-61343965D01*
X55401166Y-61312203D01*
X55415590Y-61281707D01*
X55432932Y-61252773D01*
X55453028Y-61225677D01*
X55475682Y-61200682D01*
X55500677Y-61178028D01*
X55527773Y-61157932D01*
X55556707Y-61140590D01*
X55587203Y-61126166D01*
X55618965Y-61114802D01*
X55651688Y-61106605D01*
X55685057Y-61101655D01*
X55718750Y-61100000D01*
X56406250Y-61100000D01*
X56439943Y-61101655D01*
X56439943Y-61101655D01*
G37*
D18*
X56062500Y-62000000D03*
D17*
G36*
X58314943Y-61101655D02*
X58348312Y-61106605D01*
X58381035Y-61114802D01*
X58412797Y-61126166D01*
X58443293Y-61140590D01*
X58472227Y-61157932D01*
X58499323Y-61178028D01*
X58524318Y-61200682D01*
X58546972Y-61225677D01*
X58567068Y-61252773D01*
X58584410Y-61281707D01*
X58598834Y-61312203D01*
X58610198Y-61343965D01*
X58618395Y-61376688D01*
X58623345Y-61410057D01*
X58625000Y-61443750D01*
X58625000Y-62556250D01*
X58623345Y-62589943D01*
X58618395Y-62623312D01*
X58610198Y-62656035D01*
X58598834Y-62687797D01*
X58584410Y-62718293D01*
X58567068Y-62747227D01*
X58546972Y-62774323D01*
X58524318Y-62799318D01*
X58499323Y-62821972D01*
X58472227Y-62842068D01*
X58443293Y-62859410D01*
X58412797Y-62873834D01*
X58381035Y-62885198D01*
X58348312Y-62893395D01*
X58314943Y-62898345D01*
X58281250Y-62900000D01*
X57593750Y-62900000D01*
X57560057Y-62898345D01*
X57526688Y-62893395D01*
X57493965Y-62885198D01*
X57462203Y-62873834D01*
X57431707Y-62859410D01*
X57402773Y-62842068D01*
X57375677Y-62821972D01*
X57350682Y-62799318D01*
X57328028Y-62774323D01*
X57307932Y-62747227D01*
X57290590Y-62718293D01*
X57276166Y-62687797D01*
X57264802Y-62656035D01*
X57256605Y-62623312D01*
X57251655Y-62589943D01*
X57250000Y-62556250D01*
X57250000Y-61443750D01*
X57251655Y-61410057D01*
X57256605Y-61376688D01*
X57264802Y-61343965D01*
X57276166Y-61312203D01*
X57290590Y-61281707D01*
X57307932Y-61252773D01*
X57328028Y-61225677D01*
X57350682Y-61200682D01*
X57375677Y-61178028D01*
X57402773Y-61157932D01*
X57431707Y-61140590D01*
X57462203Y-61126166D01*
X57493965Y-61114802D01*
X57526688Y-61106605D01*
X57560057Y-61101655D01*
X57593750Y-61100000D01*
X58281250Y-61100000D01*
X58314943Y-61101655D01*
X58314943Y-61101655D01*
G37*
D18*
X57937500Y-62000000D03*
G04 #@! TD*
D19*
G04 #@! TO.C,U1*
X67131371Y-50479542D03*
D17*
G36*
X67502602Y-49648692D02*
X67962221Y-50108311D01*
X66760140Y-51310392D01*
X66300521Y-50850773D01*
X67502602Y-49648692D01*
X67502602Y-49648692D01*
G37*
D19*
X67484924Y-50833095D03*
D17*
G36*
X67856155Y-50002245D02*
X68315774Y-50461864D01*
X67113693Y-51663945D01*
X66654074Y-51204326D01*
X67856155Y-50002245D01*
X67856155Y-50002245D01*
G37*
D19*
X67838478Y-51186649D03*
D17*
G36*
X68209709Y-50355799D02*
X68669328Y-50815418D01*
X67467247Y-52017499D01*
X67007628Y-51557880D01*
X68209709Y-50355799D01*
X68209709Y-50355799D01*
G37*
D19*
X68192031Y-51540202D03*
D17*
G36*
X68563262Y-50709352D02*
X69022881Y-51168971D01*
X67820800Y-52371052D01*
X67361181Y-51911433D01*
X68563262Y-50709352D01*
X68563262Y-50709352D01*
G37*
D19*
X68545584Y-51893755D03*
D17*
G36*
X68916815Y-51062905D02*
X69376434Y-51522524D01*
X68174353Y-52724605D01*
X67714734Y-52264986D01*
X68916815Y-51062905D01*
X68916815Y-51062905D01*
G37*
D19*
X68899138Y-52247309D03*
D17*
G36*
X69270369Y-51416459D02*
X69729988Y-51876078D01*
X68527907Y-53078159D01*
X68068288Y-52618540D01*
X69270369Y-51416459D01*
X69270369Y-51416459D01*
G37*
D19*
X69252691Y-52600862D03*
D17*
G36*
X69623922Y-51770012D02*
X70083541Y-52229631D01*
X68881460Y-53431712D01*
X68421841Y-52972093D01*
X69623922Y-51770012D01*
X69623922Y-51770012D01*
G37*
D19*
X69606245Y-52954416D03*
D17*
G36*
X69977476Y-52123566D02*
X70437095Y-52583185D01*
X69235014Y-53785266D01*
X68775395Y-53325647D01*
X69977476Y-52123566D01*
X69977476Y-52123566D01*
G37*
D19*
X69959798Y-53307969D03*
D17*
G36*
X70331029Y-52477119D02*
X70790648Y-52936738D01*
X69588567Y-54138819D01*
X69128948Y-53679200D01*
X70331029Y-52477119D01*
X70331029Y-52477119D01*
G37*
D19*
X70313351Y-53661522D03*
D17*
G36*
X70684582Y-52830672D02*
X71144201Y-53290291D01*
X69942120Y-54492372D01*
X69482501Y-54032753D01*
X70684582Y-52830672D01*
X70684582Y-52830672D01*
G37*
D19*
X70666905Y-54015076D03*
D17*
G36*
X71038136Y-53184226D02*
X71497755Y-53643845D01*
X70295674Y-54845926D01*
X69836055Y-54386307D01*
X71038136Y-53184226D01*
X71038136Y-53184226D01*
G37*
D19*
X71020458Y-54368629D03*
D17*
G36*
X71391689Y-53537779D02*
X71851308Y-53997398D01*
X70649227Y-55199479D01*
X70189608Y-54739860D01*
X71391689Y-53537779D01*
X71391689Y-53537779D01*
G37*
D19*
X71020458Y-56631371D03*
D17*
G36*
X71851308Y-57002602D02*
X71391689Y-57462221D01*
X70189608Y-56260140D01*
X70649227Y-55800521D01*
X71851308Y-57002602D01*
X71851308Y-57002602D01*
G37*
D19*
X70666905Y-56984924D03*
D17*
G36*
X71497755Y-57356155D02*
X71038136Y-57815774D01*
X69836055Y-56613693D01*
X70295674Y-56154074D01*
X71497755Y-57356155D01*
X71497755Y-57356155D01*
G37*
D19*
X70313351Y-57338478D03*
D17*
G36*
X71144201Y-57709709D02*
X70684582Y-58169328D01*
X69482501Y-56967247D01*
X69942120Y-56507628D01*
X71144201Y-57709709D01*
X71144201Y-57709709D01*
G37*
D19*
X69959798Y-57692031D03*
D17*
G36*
X70790648Y-58063262D02*
X70331029Y-58522881D01*
X69128948Y-57320800D01*
X69588567Y-56861181D01*
X70790648Y-58063262D01*
X70790648Y-58063262D01*
G37*
D19*
X69606245Y-58045584D03*
D17*
G36*
X70437095Y-58416815D02*
X69977476Y-58876434D01*
X68775395Y-57674353D01*
X69235014Y-57214734D01*
X70437095Y-58416815D01*
X70437095Y-58416815D01*
G37*
D19*
X69252691Y-58399138D03*
D17*
G36*
X70083541Y-58770369D02*
X69623922Y-59229988D01*
X68421841Y-58027907D01*
X68881460Y-57568288D01*
X70083541Y-58770369D01*
X70083541Y-58770369D01*
G37*
D19*
X68899138Y-58752691D03*
D17*
G36*
X69729988Y-59123922D02*
X69270369Y-59583541D01*
X68068288Y-58381460D01*
X68527907Y-57921841D01*
X69729988Y-59123922D01*
X69729988Y-59123922D01*
G37*
D19*
X68545584Y-59106245D03*
D17*
G36*
X69376434Y-59477476D02*
X68916815Y-59937095D01*
X67714734Y-58735014D01*
X68174353Y-58275395D01*
X69376434Y-59477476D01*
X69376434Y-59477476D01*
G37*
D19*
X68192031Y-59459798D03*
D17*
G36*
X69022881Y-59831029D02*
X68563262Y-60290648D01*
X67361181Y-59088567D01*
X67820800Y-58628948D01*
X69022881Y-59831029D01*
X69022881Y-59831029D01*
G37*
D19*
X67838478Y-59813351D03*
D17*
G36*
X68669328Y-60184582D02*
X68209709Y-60644201D01*
X67007628Y-59442120D01*
X67467247Y-58982501D01*
X68669328Y-60184582D01*
X68669328Y-60184582D01*
G37*
D19*
X67484924Y-60166905D03*
D17*
G36*
X68315774Y-60538136D02*
X67856155Y-60997755D01*
X66654074Y-59795674D01*
X67113693Y-59336055D01*
X68315774Y-60538136D01*
X68315774Y-60538136D01*
G37*
D19*
X67131371Y-60520458D03*
D17*
G36*
X67962221Y-60891689D02*
X67502602Y-61351308D01*
X66300521Y-60149227D01*
X66760140Y-59689608D01*
X67962221Y-60891689D01*
X67962221Y-60891689D01*
G37*
D19*
X64868629Y-60520458D03*
D17*
G36*
X65239860Y-59689608D02*
X65699479Y-60149227D01*
X64497398Y-61351308D01*
X64037779Y-60891689D01*
X65239860Y-59689608D01*
X65239860Y-59689608D01*
G37*
D19*
X64515076Y-60166905D03*
D17*
G36*
X64886307Y-59336055D02*
X65345926Y-59795674D01*
X64143845Y-60997755D01*
X63684226Y-60538136D01*
X64886307Y-59336055D01*
X64886307Y-59336055D01*
G37*
D19*
X64161522Y-59813351D03*
D17*
G36*
X64532753Y-58982501D02*
X64992372Y-59442120D01*
X63790291Y-60644201D01*
X63330672Y-60184582D01*
X64532753Y-58982501D01*
X64532753Y-58982501D01*
G37*
D19*
X63807969Y-59459798D03*
D17*
G36*
X64179200Y-58628948D02*
X64638819Y-59088567D01*
X63436738Y-60290648D01*
X62977119Y-59831029D01*
X64179200Y-58628948D01*
X64179200Y-58628948D01*
G37*
D19*
X63454416Y-59106245D03*
D17*
G36*
X63825647Y-58275395D02*
X64285266Y-58735014D01*
X63083185Y-59937095D01*
X62623566Y-59477476D01*
X63825647Y-58275395D01*
X63825647Y-58275395D01*
G37*
D19*
X63100862Y-58752691D03*
D17*
G36*
X63472093Y-57921841D02*
X63931712Y-58381460D01*
X62729631Y-59583541D01*
X62270012Y-59123922D01*
X63472093Y-57921841D01*
X63472093Y-57921841D01*
G37*
D19*
X62747309Y-58399138D03*
D17*
G36*
X63118540Y-57568288D02*
X63578159Y-58027907D01*
X62376078Y-59229988D01*
X61916459Y-58770369D01*
X63118540Y-57568288D01*
X63118540Y-57568288D01*
G37*
D19*
X62393755Y-58045584D03*
D17*
G36*
X62764986Y-57214734D02*
X63224605Y-57674353D01*
X62022524Y-58876434D01*
X61562905Y-58416815D01*
X62764986Y-57214734D01*
X62764986Y-57214734D01*
G37*
D19*
X62040202Y-57692031D03*
D17*
G36*
X62411433Y-56861181D02*
X62871052Y-57320800D01*
X61668971Y-58522881D01*
X61209352Y-58063262D01*
X62411433Y-56861181D01*
X62411433Y-56861181D01*
G37*
D19*
X61686649Y-57338478D03*
D17*
G36*
X62057880Y-56507628D02*
X62517499Y-56967247D01*
X61315418Y-58169328D01*
X60855799Y-57709709D01*
X62057880Y-56507628D01*
X62057880Y-56507628D01*
G37*
D19*
X61333095Y-56984924D03*
D17*
G36*
X61704326Y-56154074D02*
X62163945Y-56613693D01*
X60961864Y-57815774D01*
X60502245Y-57356155D01*
X61704326Y-56154074D01*
X61704326Y-56154074D01*
G37*
D19*
X60979542Y-56631371D03*
D17*
G36*
X61350773Y-55800521D02*
X61810392Y-56260140D01*
X60608311Y-57462221D01*
X60148692Y-57002602D01*
X61350773Y-55800521D01*
X61350773Y-55800521D01*
G37*
D19*
X60979542Y-54368629D03*
D17*
G36*
X61810392Y-54739860D02*
X61350773Y-55199479D01*
X60148692Y-53997398D01*
X60608311Y-53537779D01*
X61810392Y-54739860D01*
X61810392Y-54739860D01*
G37*
D19*
X61333095Y-54015076D03*
D17*
G36*
X62163945Y-54386307D02*
X61704326Y-54845926D01*
X60502245Y-53643845D01*
X60961864Y-53184226D01*
X62163945Y-54386307D01*
X62163945Y-54386307D01*
G37*
D19*
X61686649Y-53661522D03*
D17*
G36*
X62517499Y-54032753D02*
X62057880Y-54492372D01*
X60855799Y-53290291D01*
X61315418Y-52830672D01*
X62517499Y-54032753D01*
X62517499Y-54032753D01*
G37*
D19*
X62040202Y-53307969D03*
D17*
G36*
X62871052Y-53679200D02*
X62411433Y-54138819D01*
X61209352Y-52936738D01*
X61668971Y-52477119D01*
X62871052Y-53679200D01*
X62871052Y-53679200D01*
G37*
D19*
X62393755Y-52954416D03*
D17*
G36*
X63224605Y-53325647D02*
X62764986Y-53785266D01*
X61562905Y-52583185D01*
X62022524Y-52123566D01*
X63224605Y-53325647D01*
X63224605Y-53325647D01*
G37*
D19*
X62747309Y-52600862D03*
D17*
G36*
X63578159Y-52972093D02*
X63118540Y-53431712D01*
X61916459Y-52229631D01*
X62376078Y-51770012D01*
X63578159Y-52972093D01*
X63578159Y-52972093D01*
G37*
D19*
X63100862Y-52247309D03*
D17*
G36*
X63931712Y-52618540D02*
X63472093Y-53078159D01*
X62270012Y-51876078D01*
X62729631Y-51416459D01*
X63931712Y-52618540D01*
X63931712Y-52618540D01*
G37*
D19*
X63454416Y-51893755D03*
D17*
G36*
X64285266Y-52264986D02*
X63825647Y-52724605D01*
X62623566Y-51522524D01*
X63083185Y-51062905D01*
X64285266Y-52264986D01*
X64285266Y-52264986D01*
G37*
D19*
X63807969Y-51540202D03*
D17*
G36*
X64638819Y-51911433D02*
X64179200Y-52371052D01*
X62977119Y-51168971D01*
X63436738Y-50709352D01*
X64638819Y-51911433D01*
X64638819Y-51911433D01*
G37*
D19*
X64161522Y-51186649D03*
D17*
G36*
X64992372Y-51557880D02*
X64532753Y-52017499D01*
X63330672Y-50815418D01*
X63790291Y-50355799D01*
X64992372Y-51557880D01*
X64992372Y-51557880D01*
G37*
D19*
X64515076Y-50833095D03*
D17*
G36*
X65345926Y-51204326D02*
X64886307Y-51663945D01*
X63684226Y-50461864D01*
X64143845Y-50002245D01*
X65345926Y-51204326D01*
X65345926Y-51204326D01*
G37*
D19*
X64868629Y-50479542D03*
D17*
G36*
X65699479Y-50850773D02*
X65239860Y-51310392D01*
X64037779Y-50108311D01*
X64497398Y-49648692D01*
X65699479Y-50850773D01*
X65699479Y-50850773D01*
G37*
G04 #@! TD*
D20*
G04 #@! TO.C,Y1*
X70151472Y-48651472D03*
D17*
G36*
X69055456Y-49181802D02*
X70681802Y-47555456D01*
X71247488Y-48121142D01*
X69621142Y-49747488D01*
X69055456Y-49181802D01*
X69055456Y-49181802D01*
G37*
D20*
X71000000Y-49500000D03*
D17*
G36*
X69903984Y-50030330D02*
X71530330Y-48403984D01*
X72096016Y-48969670D01*
X70469670Y-50596016D01*
X69903984Y-50030330D01*
X69903984Y-50030330D01*
G37*
D20*
X71848528Y-50348528D03*
D17*
G36*
X70752512Y-50878858D02*
X72378858Y-49252512D01*
X72944544Y-49818198D01*
X71318198Y-51444544D01*
X70752512Y-50878858D01*
X70752512Y-50878858D01*
G37*
G04 #@! TD*
D14*
G04 #@! TO.C,J5*
X56500000Y-55250000D03*
G04 #@! TD*
D21*
G04 #@! TO.C,MH1*
X52500000Y-42500000D03*
G04 #@! TD*
G04 #@! TO.C,MH2*
X77500000Y-42500000D03*
G04 #@! TD*
G04 #@! TO.C,MH3*
X77500000Y-71000000D03*
G04 #@! TD*
G04 #@! TO.C,MH4*
X52500000Y-71000000D03*
G04 #@! TD*
D17*
G04 #@! TO.C,C1*
G36*
X52539372Y-46626525D02*
X52570112Y-46631085D01*
X52600257Y-46638636D01*
X52629516Y-46649105D01*
X52657609Y-46662392D01*
X52684264Y-46678368D01*
X52709224Y-46696880D01*
X52732250Y-46717750D01*
X52753120Y-46740776D01*
X52771632Y-46765736D01*
X52787608Y-46792391D01*
X52800895Y-46820484D01*
X52811364Y-46849743D01*
X52818915Y-46879888D01*
X52823475Y-46910628D01*
X52825000Y-46941667D01*
X52825000Y-49058333D01*
X52823475Y-49089372D01*
X52818915Y-49120112D01*
X52811364Y-49150257D01*
X52800895Y-49179516D01*
X52787608Y-49207609D01*
X52771632Y-49234264D01*
X52753120Y-49259224D01*
X52732250Y-49282250D01*
X52709224Y-49303120D01*
X52684264Y-49321632D01*
X52657609Y-49337608D01*
X52629516Y-49350895D01*
X52600257Y-49361364D01*
X52570112Y-49368915D01*
X52539372Y-49373475D01*
X52508333Y-49375000D01*
X51241667Y-49375000D01*
X51210628Y-49373475D01*
X51179888Y-49368915D01*
X51149743Y-49361364D01*
X51120484Y-49350895D01*
X51092391Y-49337608D01*
X51065736Y-49321632D01*
X51040776Y-49303120D01*
X51017750Y-49282250D01*
X50996880Y-49259224D01*
X50978368Y-49234264D01*
X50962392Y-49207609D01*
X50949105Y-49179516D01*
X50938636Y-49150257D01*
X50931085Y-49120112D01*
X50926525Y-49089372D01*
X50925000Y-49058333D01*
X50925000Y-46941667D01*
X50926525Y-46910628D01*
X50931085Y-46879888D01*
X50938636Y-46849743D01*
X50949105Y-46820484D01*
X50962392Y-46792391D01*
X50978368Y-46765736D01*
X50996880Y-46740776D01*
X51017750Y-46717750D01*
X51040776Y-46696880D01*
X51065736Y-46678368D01*
X51092391Y-46662392D01*
X51120484Y-46649105D01*
X51149743Y-46638636D01*
X51179888Y-46631085D01*
X51210628Y-46626525D01*
X51241667Y-46625000D01*
X52508333Y-46625000D01*
X52539372Y-46626525D01*
X52539372Y-46626525D01*
G37*
D22*
X51875000Y-48000000D03*
D17*
G36*
X55789372Y-46626525D02*
X55820112Y-46631085D01*
X55850257Y-46638636D01*
X55879516Y-46649105D01*
X55907609Y-46662392D01*
X55934264Y-46678368D01*
X55959224Y-46696880D01*
X55982250Y-46717750D01*
X56003120Y-46740776D01*
X56021632Y-46765736D01*
X56037608Y-46792391D01*
X56050895Y-46820484D01*
X56061364Y-46849743D01*
X56068915Y-46879888D01*
X56073475Y-46910628D01*
X56075000Y-46941667D01*
X56075000Y-49058333D01*
X56073475Y-49089372D01*
X56068915Y-49120112D01*
X56061364Y-49150257D01*
X56050895Y-49179516D01*
X56037608Y-49207609D01*
X56021632Y-49234264D01*
X56003120Y-49259224D01*
X55982250Y-49282250D01*
X55959224Y-49303120D01*
X55934264Y-49321632D01*
X55907609Y-49337608D01*
X55879516Y-49350895D01*
X55850257Y-49361364D01*
X55820112Y-49368915D01*
X55789372Y-49373475D01*
X55758333Y-49375000D01*
X54491667Y-49375000D01*
X54460628Y-49373475D01*
X54429888Y-49368915D01*
X54399743Y-49361364D01*
X54370484Y-49350895D01*
X54342391Y-49337608D01*
X54315736Y-49321632D01*
X54290776Y-49303120D01*
X54267750Y-49282250D01*
X54246880Y-49259224D01*
X54228368Y-49234264D01*
X54212392Y-49207609D01*
X54199105Y-49179516D01*
X54188636Y-49150257D01*
X54181085Y-49120112D01*
X54176525Y-49089372D01*
X54175000Y-49058333D01*
X54175000Y-46941667D01*
X54176525Y-46910628D01*
X54181085Y-46879888D01*
X54188636Y-46849743D01*
X54199105Y-46820484D01*
X54212392Y-46792391D01*
X54228368Y-46765736D01*
X54246880Y-46740776D01*
X54267750Y-46717750D01*
X54290776Y-46696880D01*
X54315736Y-46678368D01*
X54342391Y-46662392D01*
X54370484Y-46649105D01*
X54399743Y-46638636D01*
X54429888Y-46631085D01*
X54460628Y-46626525D01*
X54491667Y-46625000D01*
X55758333Y-46625000D01*
X55789372Y-46626525D01*
X55789372Y-46626525D01*
G37*
D22*
X55125000Y-48000000D03*
G04 #@! TD*
D17*
G04 #@! TO.C,C2*
G36*
X72589372Y-44176525D02*
X72620112Y-44181085D01*
X72650257Y-44188636D01*
X72679516Y-44199105D01*
X72707609Y-44212392D01*
X72734264Y-44228368D01*
X72759224Y-44246880D01*
X72782250Y-44267750D01*
X72803120Y-44290776D01*
X72821632Y-44315736D01*
X72837608Y-44342391D01*
X72850895Y-44370484D01*
X72861364Y-44399743D01*
X72868915Y-44429888D01*
X72873475Y-44460628D01*
X72875000Y-44491667D01*
X72875000Y-45758333D01*
X72873475Y-45789372D01*
X72868915Y-45820112D01*
X72861364Y-45850257D01*
X72850895Y-45879516D01*
X72837608Y-45907609D01*
X72821632Y-45934264D01*
X72803120Y-45959224D01*
X72782250Y-45982250D01*
X72759224Y-46003120D01*
X72734264Y-46021632D01*
X72707609Y-46037608D01*
X72679516Y-46050895D01*
X72650257Y-46061364D01*
X72620112Y-46068915D01*
X72589372Y-46073475D01*
X72558333Y-46075000D01*
X70441667Y-46075000D01*
X70410628Y-46073475D01*
X70379888Y-46068915D01*
X70349743Y-46061364D01*
X70320484Y-46050895D01*
X70292391Y-46037608D01*
X70265736Y-46021632D01*
X70240776Y-46003120D01*
X70217750Y-45982250D01*
X70196880Y-45959224D01*
X70178368Y-45934264D01*
X70162392Y-45907609D01*
X70149105Y-45879516D01*
X70138636Y-45850257D01*
X70131085Y-45820112D01*
X70126525Y-45789372D01*
X70125000Y-45758333D01*
X70125000Y-44491667D01*
X70126525Y-44460628D01*
X70131085Y-44429888D01*
X70138636Y-44399743D01*
X70149105Y-44370484D01*
X70162392Y-44342391D01*
X70178368Y-44315736D01*
X70196880Y-44290776D01*
X70217750Y-44267750D01*
X70240776Y-44246880D01*
X70265736Y-44228368D01*
X70292391Y-44212392D01*
X70320484Y-44199105D01*
X70349743Y-44188636D01*
X70379888Y-44181085D01*
X70410628Y-44176525D01*
X70441667Y-44175000D01*
X72558333Y-44175000D01*
X72589372Y-44176525D01*
X72589372Y-44176525D01*
G37*
D22*
X71500000Y-45125000D03*
D17*
G36*
X72589372Y-40926525D02*
X72620112Y-40931085D01*
X72650257Y-40938636D01*
X72679516Y-40949105D01*
X72707609Y-40962392D01*
X72734264Y-40978368D01*
X72759224Y-40996880D01*
X72782250Y-41017750D01*
X72803120Y-41040776D01*
X72821632Y-41065736D01*
X72837608Y-41092391D01*
X72850895Y-41120484D01*
X72861364Y-41149743D01*
X72868915Y-41179888D01*
X72873475Y-41210628D01*
X72875000Y-41241667D01*
X72875000Y-42508333D01*
X72873475Y-42539372D01*
X72868915Y-42570112D01*
X72861364Y-42600257D01*
X72850895Y-42629516D01*
X72837608Y-42657609D01*
X72821632Y-42684264D01*
X72803120Y-42709224D01*
X72782250Y-42732250D01*
X72759224Y-42753120D01*
X72734264Y-42771632D01*
X72707609Y-42787608D01*
X72679516Y-42800895D01*
X72650257Y-42811364D01*
X72620112Y-42818915D01*
X72589372Y-42823475D01*
X72558333Y-42825000D01*
X70441667Y-42825000D01*
X70410628Y-42823475D01*
X70379888Y-42818915D01*
X70349743Y-42811364D01*
X70320484Y-42800895D01*
X70292391Y-42787608D01*
X70265736Y-42771632D01*
X70240776Y-42753120D01*
X70217750Y-42732250D01*
X70196880Y-42709224D01*
X70178368Y-42684264D01*
X70162392Y-42657609D01*
X70149105Y-42629516D01*
X70138636Y-42600257D01*
X70131085Y-42570112D01*
X70126525Y-42539372D01*
X70125000Y-42508333D01*
X70125000Y-41241667D01*
X70126525Y-41210628D01*
X70131085Y-41179888D01*
X70138636Y-41149743D01*
X70149105Y-41120484D01*
X70162392Y-41092391D01*
X70178368Y-41065736D01*
X70196880Y-41040776D01*
X70217750Y-41017750D01*
X70240776Y-40996880D01*
X70265736Y-40978368D01*
X70292391Y-40962392D01*
X70320484Y-40949105D01*
X70349743Y-40938636D01*
X70379888Y-40931085D01*
X70410628Y-40926525D01*
X70441667Y-40925000D01*
X72558333Y-40925000D01*
X72589372Y-40926525D01*
X72589372Y-40926525D01*
G37*
D22*
X71500000Y-41875000D03*
G04 #@! TD*
D23*
G04 #@! TO.C,RN1*
X69700000Y-66900000D03*
D24*
X68100000Y-66900000D03*
X68900000Y-66900000D03*
D23*
X67300000Y-66900000D03*
D24*
X68900000Y-65100000D03*
D23*
X69700000Y-65100000D03*
D24*
X68100000Y-65100000D03*
D23*
X67300000Y-65100000D03*
G04 #@! TD*
D17*
G04 #@! TO.C,C7*
G36*
X61122492Y-43581536D02*
X61153434Y-43586126D01*
X61183777Y-43593726D01*
X61213229Y-43604264D01*
X61241507Y-43617639D01*
X61268337Y-43633720D01*
X61293462Y-43652354D01*
X61316639Y-43673361D01*
X61337646Y-43696538D01*
X61356280Y-43721663D01*
X61372361Y-43748493D01*
X61385736Y-43776771D01*
X61396274Y-43806223D01*
X61403874Y-43836566D01*
X61408464Y-43867508D01*
X61409999Y-43898751D01*
X61409999Y-44611251D01*
X61408464Y-44642494D01*
X61403874Y-44673436D01*
X61396274Y-44703779D01*
X61385736Y-44733231D01*
X61372361Y-44761509D01*
X61356280Y-44788339D01*
X61337646Y-44813464D01*
X61316639Y-44836641D01*
X61293462Y-44857648D01*
X61268337Y-44876282D01*
X61241507Y-44892363D01*
X61213229Y-44905738D01*
X61183777Y-44916276D01*
X61153434Y-44923876D01*
X61122492Y-44928466D01*
X61091249Y-44930001D01*
X60453749Y-44930001D01*
X60422506Y-44928466D01*
X60391564Y-44923876D01*
X60361221Y-44916276D01*
X60331769Y-44905738D01*
X60303491Y-44892363D01*
X60276661Y-44876282D01*
X60251536Y-44857648D01*
X60228359Y-44836641D01*
X60207352Y-44813464D01*
X60188718Y-44788339D01*
X60172637Y-44761509D01*
X60159262Y-44733231D01*
X60148724Y-44703779D01*
X60141124Y-44673436D01*
X60136534Y-44642494D01*
X60134999Y-44611251D01*
X60134999Y-43898751D01*
X60136534Y-43867508D01*
X60141124Y-43836566D01*
X60148724Y-43806223D01*
X60159262Y-43776771D01*
X60172637Y-43748493D01*
X60188718Y-43721663D01*
X60207352Y-43696538D01*
X60228359Y-43673361D01*
X60251536Y-43652354D01*
X60276661Y-43633720D01*
X60303491Y-43617639D01*
X60331769Y-43604264D01*
X60361221Y-43593726D01*
X60391564Y-43586126D01*
X60422506Y-43581536D01*
X60453749Y-43580001D01*
X61091249Y-43580001D01*
X61122492Y-43581536D01*
X61122492Y-43581536D01*
G37*
D25*
X60772499Y-44255001D03*
D17*
G36*
X59547492Y-43581536D02*
X59578434Y-43586126D01*
X59608777Y-43593726D01*
X59638229Y-43604264D01*
X59666507Y-43617639D01*
X59693337Y-43633720D01*
X59718462Y-43652354D01*
X59741639Y-43673361D01*
X59762646Y-43696538D01*
X59781280Y-43721663D01*
X59797361Y-43748493D01*
X59810736Y-43776771D01*
X59821274Y-43806223D01*
X59828874Y-43836566D01*
X59833464Y-43867508D01*
X59834999Y-43898751D01*
X59834999Y-44611251D01*
X59833464Y-44642494D01*
X59828874Y-44673436D01*
X59821274Y-44703779D01*
X59810736Y-44733231D01*
X59797361Y-44761509D01*
X59781280Y-44788339D01*
X59762646Y-44813464D01*
X59741639Y-44836641D01*
X59718462Y-44857648D01*
X59693337Y-44876282D01*
X59666507Y-44892363D01*
X59638229Y-44905738D01*
X59608777Y-44916276D01*
X59578434Y-44923876D01*
X59547492Y-44928466D01*
X59516249Y-44930001D01*
X58878749Y-44930001D01*
X58847506Y-44928466D01*
X58816564Y-44923876D01*
X58786221Y-44916276D01*
X58756769Y-44905738D01*
X58728491Y-44892363D01*
X58701661Y-44876282D01*
X58676536Y-44857648D01*
X58653359Y-44836641D01*
X58632352Y-44813464D01*
X58613718Y-44788339D01*
X58597637Y-44761509D01*
X58584262Y-44733231D01*
X58573724Y-44703779D01*
X58566124Y-44673436D01*
X58561534Y-44642494D01*
X58559999Y-44611251D01*
X58559999Y-43898751D01*
X58561534Y-43867508D01*
X58566124Y-43836566D01*
X58573724Y-43806223D01*
X58584262Y-43776771D01*
X58597637Y-43748493D01*
X58613718Y-43721663D01*
X58632352Y-43696538D01*
X58653359Y-43673361D01*
X58676536Y-43652354D01*
X58701661Y-43633720D01*
X58728491Y-43617639D01*
X58756769Y-43604264D01*
X58786221Y-43593726D01*
X58816564Y-43586126D01*
X58847506Y-43581536D01*
X58878749Y-43580001D01*
X59516249Y-43580001D01*
X59547492Y-43581536D01*
X59547492Y-43581536D01*
G37*
D25*
X59197499Y-44255001D03*
G04 #@! TD*
D26*
G04 #@! TO.C,U3*
X67944999Y-44320001D03*
X67944999Y-45590001D03*
X67944999Y-46860001D03*
X67944999Y-48130001D03*
X62544999Y-48130001D03*
X62544999Y-46860001D03*
X62544999Y-45590001D03*
X62544999Y-44320001D03*
G04 #@! TD*
M02*
