M48
;DRILL file {KiCad (5.0.0-rc3-dev-2-g101b68b61)} date 07/14/18 01:22:12
;FORMAT={-:-/ absolute / metric / decimal}
FMAT,2
METRIC,TZ
T1C0.350
T2C0.440
T3C0.500
T4C0.600
T5C0.800
T6C1.000
%
G90
G05
M71
T2
X52.5Y-59.4
X52.5Y-60.7
X52.5Y-62.
X53.5Y-60.05
X53.5Y-61.35
T3
X58.Y-56.
X59.25Y-51.25
X60.Y-62.75
X61.25Y-43.
X62.Y-49.25
X62.25Y-55.75
X62.561Y-50.689
X64.25Y-58.
X64.75Y-52.75
X66.Y-50.25
X66.Y-61.
X67.5Y-58.
X68.Y-53.75
X69.Y-54.25
X69.5Y-56.
T4
X56.5Y-48.5
T5
X59.75Y-42.25
X73.5Y-45.25
T6
X75.8Y-48.1
X75.8Y-50.64
X75.8Y-53.18
X75.8Y-55.72
X75.8Y-58.26
X75.8Y-60.8
X75.8Y-63.34
X75.8Y-65.88
X78.34Y-48.1
X78.34Y-50.64
X78.34Y-53.18
X78.34Y-55.72
X78.34Y-58.26
X78.34Y-60.8
X78.34Y-63.34
X78.34Y-65.88
X58.Y-70.5
X60.54Y-70.5
X63.08Y-70.5
X65.62Y-70.5
X68.16Y-70.5
X70.7Y-70.5
X57.Y-66.
X59.54Y-66.
X62.08Y-66.
X64.62Y-66.
X56.5Y-55.25
T1
X52.22Y-57.125G85X53.22Y-57.125
G05
X52.22Y-64.275G85X53.22Y-64.275
G05
T0
M30
