G04 #@! TF.GenerationSoftware,KiCad,Pcbnew,(5.0.0-rc3-dev-2-g101b68b61)*
G04 #@! TF.CreationDate,2018-07-14T01:22:09-07:00*
G04 #@! TF.ProjectId,hp34401a_oled,68703334343031615F6F6C65642E6B69,rev?*
G04 #@! TF.SameCoordinates,Original*
G04 #@! TF.FileFunction,Legend,Top*
G04 #@! TF.FilePolarity,Positive*
%FSLAX46Y46*%
G04 Gerber Fmt 4.6, Leading zero omitted, Abs format (unit mm)*
G04 Created by KiCad (PCBNEW (5.0.0-rc3-dev-2-g101b68b61)) date 07/14/18 01:22:09*
%MOMM*%
%LPD*%
G01*
G04 APERTURE LIST*
%ADD10C,0.150000*%
%ADD11C,0.120000*%
%ADD12C,0.010000*%
G04 APERTURE END LIST*
D10*
X56178571Y-59428571D02*
X56226190Y-59285714D01*
X56273809Y-59238095D01*
X56369047Y-59190476D01*
X56511904Y-59190476D01*
X56607142Y-59238095D01*
X56654761Y-59285714D01*
X56702380Y-59380952D01*
X56702380Y-59761904D01*
X55702380Y-59761904D01*
X55702380Y-59428571D01*
X55750000Y-59333333D01*
X55797619Y-59285714D01*
X55892857Y-59238095D01*
X55988095Y-59238095D01*
X56083333Y-59285714D01*
X56130952Y-59333333D01*
X56178571Y-59428571D01*
X56178571Y-59761904D01*
X56178571Y-60857142D02*
X56178571Y-61190476D01*
X56702380Y-61190476D02*
X55702380Y-61190476D01*
X55702380Y-60714285D01*
X71447619Y-41085595D02*
X72447619Y-41085595D01*
X71971428Y-41085595D02*
X71971428Y-41657023D01*
X71447619Y-41657023D02*
X72447619Y-41657023D01*
X71447619Y-42133214D02*
X72447619Y-42133214D01*
X72447619Y-42514166D01*
X72400000Y-42609404D01*
X72352380Y-42657023D01*
X72257142Y-42704642D01*
X72114285Y-42704642D01*
X72019047Y-42657023D01*
X71971428Y-42609404D01*
X71923809Y-42514166D01*
X71923809Y-42133214D01*
X72447619Y-43037976D02*
X72447619Y-43657023D01*
X72066666Y-43323690D01*
X72066666Y-43466547D01*
X72019047Y-43561785D01*
X71971428Y-43609404D01*
X71876190Y-43657023D01*
X71638095Y-43657023D01*
X71542857Y-43609404D01*
X71495238Y-43561785D01*
X71447619Y-43466547D01*
X71447619Y-43180833D01*
X71495238Y-43085595D01*
X71542857Y-43037976D01*
X72114285Y-44514166D02*
X71447619Y-44514166D01*
X72495238Y-44276071D02*
X71780952Y-44037976D01*
X71780952Y-44657023D01*
X72114285Y-45466547D02*
X71447619Y-45466547D01*
X72495238Y-45228452D02*
X71780952Y-44990357D01*
X71780952Y-45609404D01*
X72447619Y-46180833D02*
X72447619Y-46276071D01*
X72400000Y-46371309D01*
X72352380Y-46418928D01*
X72257142Y-46466547D01*
X72066666Y-46514166D01*
X71828571Y-46514166D01*
X71638095Y-46466547D01*
X71542857Y-46418928D01*
X71495238Y-46371309D01*
X71447619Y-46276071D01*
X71447619Y-46180833D01*
X71495238Y-46085595D01*
X71542857Y-46037976D01*
X71638095Y-45990357D01*
X71828571Y-45942738D01*
X72066666Y-45942738D01*
X72257142Y-45990357D01*
X72352380Y-46037976D01*
X72400000Y-46085595D01*
X72447619Y-46180833D01*
X71447619Y-47466547D02*
X71447619Y-46895119D01*
X71447619Y-47180833D02*
X72447619Y-47180833D01*
X72304761Y-47085595D01*
X72209523Y-46990357D01*
X72161904Y-46895119D01*
X71447619Y-48323690D02*
X71971428Y-48323690D01*
X72066666Y-48276071D01*
X72114285Y-48180833D01*
X72114285Y-47990357D01*
X72066666Y-47895119D01*
X71495238Y-48323690D02*
X71447619Y-48228452D01*
X71447619Y-47990357D01*
X71495238Y-47895119D01*
X71590476Y-47847500D01*
X71685714Y-47847500D01*
X71780952Y-47895119D01*
X71828571Y-47990357D01*
X71828571Y-48228452D01*
X71876190Y-48323690D01*
X71447619Y-49561785D02*
X72447619Y-49561785D01*
X72447619Y-49799880D01*
X72400000Y-49942738D01*
X72304761Y-50037976D01*
X72209523Y-50085595D01*
X72019047Y-50133214D01*
X71876190Y-50133214D01*
X71685714Y-50085595D01*
X71590476Y-50037976D01*
X71495238Y-49942738D01*
X71447619Y-49799880D01*
X71447619Y-49561785D01*
X71447619Y-50561785D02*
X72447619Y-50561785D01*
X71733333Y-50895119D01*
X72447619Y-51228452D01*
X71447619Y-51228452D01*
X71447619Y-51704642D02*
X72447619Y-51704642D01*
X71733333Y-52037976D01*
X72447619Y-52371309D01*
X71447619Y-52371309D01*
X70797619Y-41276071D02*
X70797619Y-41466547D01*
X70750000Y-41561785D01*
X70654761Y-41657023D01*
X70464285Y-41704642D01*
X70130952Y-41704642D01*
X69940476Y-41657023D01*
X69845238Y-41561785D01*
X69797619Y-41466547D01*
X69797619Y-41276071D01*
X69845238Y-41180833D01*
X69940476Y-41085595D01*
X70130952Y-41037976D01*
X70464285Y-41037976D01*
X70654761Y-41085595D01*
X70750000Y-41180833D01*
X70797619Y-41276071D01*
X69797619Y-42609404D02*
X69797619Y-42133214D01*
X70797619Y-42133214D01*
X70321428Y-42942738D02*
X70321428Y-43276071D01*
X69797619Y-43418928D02*
X69797619Y-42942738D01*
X70797619Y-42942738D01*
X70797619Y-43418928D01*
X69797619Y-43847500D02*
X70797619Y-43847500D01*
X70797619Y-44085595D01*
X70750000Y-44228452D01*
X70654761Y-44323690D01*
X70559523Y-44371309D01*
X70369047Y-44418928D01*
X70226190Y-44418928D01*
X70035714Y-44371309D01*
X69940476Y-44323690D01*
X69845238Y-44228452D01*
X69797619Y-44085595D01*
X69797619Y-43847500D01*
X69797619Y-45609404D02*
X70797619Y-45609404D01*
X70797619Y-45847500D01*
X70750000Y-45990357D01*
X70654761Y-46085595D01*
X70559523Y-46133214D01*
X70369047Y-46180833D01*
X70226190Y-46180833D01*
X70035714Y-46133214D01*
X69940476Y-46085595D01*
X69845238Y-45990357D01*
X69797619Y-45847500D01*
X69797619Y-45609404D01*
X69797619Y-46609404D02*
X70797619Y-46609404D01*
X69845238Y-47037976D02*
X69797619Y-47180833D01*
X69797619Y-47418928D01*
X69845238Y-47514166D01*
X69892857Y-47561785D01*
X69988095Y-47609404D01*
X70083333Y-47609404D01*
X70178571Y-47561785D01*
X70226190Y-47514166D01*
X70273809Y-47418928D01*
X70321428Y-47228452D01*
X70369047Y-47133214D01*
X70416666Y-47085595D01*
X70511904Y-47037976D01*
X70607142Y-47037976D01*
X70702380Y-47085595D01*
X70750000Y-47133214D01*
X70797619Y-47228452D01*
X70797619Y-47466547D01*
X70750000Y-47609404D01*
X69797619Y-48037976D02*
X70797619Y-48037976D01*
X70797619Y-48418928D01*
X70750000Y-48514166D01*
X70702380Y-48561785D01*
X70607142Y-48609404D01*
X70464285Y-48609404D01*
X70369047Y-48561785D01*
X70321428Y-48514166D01*
X70273809Y-48418928D01*
X70273809Y-48037976D01*
X69797619Y-49514166D02*
X69797619Y-49037976D01*
X70797619Y-49037976D01*
X70083333Y-49799880D02*
X70083333Y-50276071D01*
X69797619Y-49704642D02*
X70797619Y-50037976D01*
X69797619Y-50371309D01*
X70273809Y-50895119D02*
X69797619Y-50895119D01*
X70797619Y-50561785D02*
X70273809Y-50895119D01*
X70797619Y-51228452D01*
X69797619Y-52323690D02*
X70797619Y-52323690D01*
X70083333Y-52657023D01*
X70797619Y-52990357D01*
X69797619Y-52990357D01*
X70797619Y-53657023D02*
X70797619Y-53847500D01*
X70750000Y-53942738D01*
X70654761Y-54037976D01*
X70464285Y-54085595D01*
X70130952Y-54085595D01*
X69940476Y-54037976D01*
X69845238Y-53942738D01*
X69797619Y-53847500D01*
X69797619Y-53657023D01*
X69845238Y-53561785D01*
X69940476Y-53466547D01*
X70130952Y-53418928D01*
X70464285Y-53418928D01*
X70654761Y-53466547D01*
X70750000Y-53561785D01*
X70797619Y-53657023D01*
X69797619Y-54514166D02*
X70797619Y-54514166D01*
X70797619Y-54752261D01*
X70750000Y-54895119D01*
X70654761Y-54990357D01*
X70559523Y-55037976D01*
X70369047Y-55085595D01*
X70226190Y-55085595D01*
X70035714Y-55037976D01*
X69940476Y-54990357D01*
X69845238Y-54895119D01*
X69797619Y-54752261D01*
X69797619Y-54514166D01*
X68671428Y-41418928D02*
X68623809Y-41561785D01*
X68576190Y-41609404D01*
X68480952Y-41657023D01*
X68338095Y-41657023D01*
X68242857Y-41609404D01*
X68195238Y-41561785D01*
X68147619Y-41466547D01*
X68147619Y-41085595D01*
X69147619Y-41085595D01*
X69147619Y-41418928D01*
X69100000Y-41514166D01*
X69052380Y-41561785D01*
X68957142Y-41609404D01*
X68861904Y-41609404D01*
X68766666Y-41561785D01*
X68719047Y-41514166D01*
X68671428Y-41418928D01*
X68671428Y-41085595D01*
X68623809Y-42276071D02*
X68147619Y-42276071D01*
X69147619Y-41942738D02*
X68623809Y-42276071D01*
X69147619Y-42609404D01*
X68052380Y-44371309D02*
X68100000Y-44276071D01*
X68195238Y-44180833D01*
X68338095Y-44037976D01*
X68385714Y-43942738D01*
X68385714Y-43847500D01*
X68147619Y-43895119D02*
X68195238Y-43799880D01*
X68290476Y-43704642D01*
X68480952Y-43657023D01*
X68814285Y-43657023D01*
X69004761Y-43704642D01*
X69100000Y-43799880D01*
X69147619Y-43895119D01*
X69147619Y-44085595D01*
X69100000Y-44180833D01*
X69004761Y-44276071D01*
X68814285Y-44323690D01*
X68480952Y-44323690D01*
X68290476Y-44276071D01*
X68195238Y-44180833D01*
X68147619Y-44085595D01*
X68147619Y-43895119D01*
X69147619Y-44752261D02*
X68338095Y-44752261D01*
X68242857Y-44799880D01*
X68195238Y-44847500D01*
X68147619Y-44942738D01*
X68147619Y-45133214D01*
X68195238Y-45228452D01*
X68242857Y-45276071D01*
X68338095Y-45323690D01*
X69147619Y-45323690D01*
X68147619Y-46323690D02*
X68147619Y-45752261D01*
X68147619Y-46037976D02*
X69147619Y-46037976D01*
X69004761Y-45942738D01*
X68909523Y-45847500D01*
X68861904Y-45752261D01*
X68242857Y-47323690D02*
X68195238Y-47276071D01*
X68147619Y-47133214D01*
X68147619Y-47037976D01*
X68195238Y-46895119D01*
X68290476Y-46799880D01*
X68385714Y-46752261D01*
X68576190Y-46704642D01*
X68719047Y-46704642D01*
X68909523Y-46752261D01*
X69004761Y-46799880D01*
X69100000Y-46895119D01*
X69147619Y-47037976D01*
X69147619Y-47133214D01*
X69100000Y-47276071D01*
X69052380Y-47323690D01*
X68147619Y-47752261D02*
X69147619Y-47752261D01*
X68147619Y-48323690D02*
X68719047Y-47895119D01*
X69147619Y-48323690D02*
X68576190Y-47752261D01*
G04 #@! TO.C,J1*
X50820000Y-63000000D02*
X50820000Y-61000000D01*
X54320000Y-56550000D02*
X53845000Y-56550000D01*
X54320000Y-64850000D02*
X54320000Y-56550000D01*
X53845000Y-64850000D02*
X54320000Y-64850000D01*
X51120000Y-56550000D02*
X51595000Y-56550000D01*
X51120000Y-64850000D02*
X51120000Y-56550000D01*
X51595000Y-64850000D02*
X51120000Y-64850000D01*
D11*
G04 #@! TO.C,C3*
X64010000Y-55837221D02*
X64010000Y-56162779D01*
X62990000Y-55837221D02*
X62990000Y-56162779D01*
G04 #@! TO.C,C4*
X66510000Y-59162779D02*
X66510000Y-58837221D01*
X65490000Y-59162779D02*
X65490000Y-58837221D01*
G04 #@! TO.C,C5*
X66510000Y-51837221D02*
X66510000Y-52162779D01*
X65490000Y-51837221D02*
X65490000Y-52162779D01*
G04 #@! TO.C,C6*
X67990000Y-55837221D02*
X67990000Y-56162779D01*
X69010000Y-55837221D02*
X69010000Y-56162779D01*
G04 #@! TO.C,D1*
X54685000Y-51540000D02*
X52000000Y-51540000D01*
X54685000Y-53460000D02*
X54685000Y-51540000D01*
X52000000Y-53460000D02*
X54685000Y-53460000D01*
G04 #@! TO.C,D2*
X52000000Y-50960000D02*
X54685000Y-50960000D01*
X54685000Y-50960000D02*
X54685000Y-49040000D01*
X54685000Y-49040000D02*
X52000000Y-49040000D01*
G04 #@! TO.C,JP1*
X59700000Y-61450000D02*
X60000000Y-61150000D01*
X60000000Y-61750000D02*
X60000000Y-61150000D01*
X59700000Y-61450000D02*
X60000000Y-61750000D01*
X58800000Y-62300000D02*
X58200000Y-62300000D01*
X59500000Y-58850000D02*
X59500000Y-61650000D01*
X58200000Y-58200000D02*
X58800000Y-58200000D01*
X57500000Y-61650000D02*
X57500000Y-58850000D01*
X57500000Y-58900000D02*
G75*
G02X58200000Y-58200000I700000J0D01*
G01*
X58800000Y-58200000D02*
G75*
G02X59500000Y-58900000I0J-700000D01*
G01*
X59500000Y-61600000D02*
G75*
G02X58800000Y-62300000I-700000J0D01*
G01*
X58200000Y-62300000D02*
G75*
G02X57500000Y-61600000I0J700000D01*
G01*
G04 #@! TO.C,R1*
X65741422Y-55210000D02*
X66258578Y-55210000D01*
X65741422Y-53790000D02*
X66258578Y-53790000D01*
G04 #@! TO.C,R3*
X56741422Y-51790000D02*
X57258578Y-51790000D01*
X56741422Y-53210000D02*
X57258578Y-53210000D01*
G04 #@! TO.C,R4*
X56741422Y-49290000D02*
X57258578Y-49290000D01*
X56741422Y-50710000D02*
X57258578Y-50710000D01*
G04 #@! TO.C,R7*
X59290000Y-56258578D02*
X59290000Y-55741422D01*
X60710000Y-56258578D02*
X60710000Y-55741422D01*
G04 #@! TO.C,R8*
X65741422Y-57210000D02*
X66258578Y-57210000D01*
X65741422Y-55790000D02*
X66258578Y-55790000D01*
G04 #@! TO.C,U2*
X62910000Y-47910000D02*
X62910000Y-46650000D01*
X62910000Y-41090000D02*
X62910000Y-42350000D01*
X59150000Y-47910000D02*
X62910000Y-47910000D01*
X56900000Y-41090000D02*
X62910000Y-41090000D01*
D12*
G04 #@! TO.C,REF\002A\002A*
G36*
X69876964Y-62290018D02*
X69933812Y-62591570D01*
X70353338Y-62764512D01*
X70604984Y-62593395D01*
X70675458Y-62545750D01*
X70739163Y-62503210D01*
X70793126Y-62467715D01*
X70834373Y-62441210D01*
X70859934Y-62425636D01*
X70866895Y-62422278D01*
X70879435Y-62430914D01*
X70906231Y-62454792D01*
X70944280Y-62490859D01*
X70990579Y-62536067D01*
X71042123Y-62587364D01*
X71095909Y-62641701D01*
X71148935Y-62696028D01*
X71198195Y-62747295D01*
X71240687Y-62792451D01*
X71273407Y-62828446D01*
X71293351Y-62852230D01*
X71298119Y-62860190D01*
X71291257Y-62874865D01*
X71272020Y-62907014D01*
X71242430Y-62953492D01*
X71204510Y-63011156D01*
X71160282Y-63076860D01*
X71134654Y-63114336D01*
X71087941Y-63182768D01*
X71046432Y-63244520D01*
X71012140Y-63296519D01*
X70987080Y-63335692D01*
X70973264Y-63358965D01*
X70971188Y-63363855D01*
X70975895Y-63377755D01*
X70988723Y-63410150D01*
X71007738Y-63456485D01*
X71031003Y-63512206D01*
X71056584Y-63572758D01*
X71082545Y-63633586D01*
X71106950Y-63690136D01*
X71127863Y-63737852D01*
X71143349Y-63772181D01*
X71151472Y-63788568D01*
X71151952Y-63789212D01*
X71164707Y-63792341D01*
X71198677Y-63799321D01*
X71250340Y-63809467D01*
X71316176Y-63822092D01*
X71392664Y-63836509D01*
X71437290Y-63844823D01*
X71519021Y-63860384D01*
X71592843Y-63875192D01*
X71655021Y-63888436D01*
X71701822Y-63899305D01*
X71729509Y-63906989D01*
X71735074Y-63909427D01*
X71740526Y-63925930D01*
X71744924Y-63963200D01*
X71748272Y-64016880D01*
X71750574Y-64082612D01*
X71751832Y-64156037D01*
X71752048Y-64232796D01*
X71751227Y-64308532D01*
X71749371Y-64378886D01*
X71746482Y-64439500D01*
X71742565Y-64486016D01*
X71737622Y-64514075D01*
X71734657Y-64519916D01*
X71716934Y-64526917D01*
X71679381Y-64536927D01*
X71626964Y-64548769D01*
X71564652Y-64561267D01*
X71542900Y-64565310D01*
X71438024Y-64584520D01*
X71355180Y-64599991D01*
X71291630Y-64612337D01*
X71244637Y-64622173D01*
X71211463Y-64630114D01*
X71189371Y-64636776D01*
X71175624Y-64642773D01*
X71167484Y-64648719D01*
X71166345Y-64649894D01*
X71154977Y-64668826D01*
X71137635Y-64705669D01*
X71116050Y-64755913D01*
X71091954Y-64815046D01*
X71067079Y-64878556D01*
X71043157Y-64941932D01*
X71021919Y-65000662D01*
X71005097Y-65050235D01*
X70994422Y-65086139D01*
X70991627Y-65103862D01*
X70991860Y-65104483D01*
X71001331Y-65118970D01*
X71022818Y-65150844D01*
X71054063Y-65196789D01*
X71092807Y-65253485D01*
X71136793Y-65317617D01*
X71149319Y-65335842D01*
X71193984Y-65401914D01*
X71233288Y-65462200D01*
X71265088Y-65513235D01*
X71287245Y-65551560D01*
X71297617Y-65573711D01*
X71298119Y-65576432D01*
X71289405Y-65590736D01*
X71265325Y-65619072D01*
X71228976Y-65658396D01*
X71183453Y-65705661D01*
X71131852Y-65757823D01*
X71077267Y-65811835D01*
X71022794Y-65864653D01*
X70971529Y-65913231D01*
X70926567Y-65954523D01*
X70891004Y-65985485D01*
X70867935Y-66003070D01*
X70861554Y-66005941D01*
X70846699Y-65999178D01*
X70816286Y-65980939D01*
X70775268Y-65954297D01*
X70743709Y-65932852D01*
X70686525Y-65893503D01*
X70618806Y-65847171D01*
X70550880Y-65800913D01*
X70514361Y-65776155D01*
X70390752Y-65692547D01*
X70286991Y-65748650D01*
X70239720Y-65773228D01*
X70199523Y-65792331D01*
X70172326Y-65803227D01*
X70165402Y-65804743D01*
X70157077Y-65793549D01*
X70140654Y-65761917D01*
X70117357Y-65712765D01*
X70088414Y-65649010D01*
X70055050Y-65573571D01*
X70018491Y-65489364D01*
X69979964Y-65399308D01*
X69940694Y-65306321D01*
X69901908Y-65213320D01*
X69864830Y-65123223D01*
X69830689Y-65038948D01*
X69800708Y-64963413D01*
X69776116Y-64899534D01*
X69758136Y-64850231D01*
X69747997Y-64818421D01*
X69746366Y-64807496D01*
X69759291Y-64793561D01*
X69787589Y-64770940D01*
X69825346Y-64744333D01*
X69828515Y-64742228D01*
X69926100Y-64664114D01*
X70004786Y-64572982D01*
X70063891Y-64471745D01*
X70102732Y-64363318D01*
X70120628Y-64250614D01*
X70116897Y-64136548D01*
X70090857Y-64024034D01*
X70041825Y-63915985D01*
X70027400Y-63892345D01*
X69952369Y-63796887D01*
X69863730Y-63720232D01*
X69764549Y-63662780D01*
X69657895Y-63624929D01*
X69546836Y-63607078D01*
X69434439Y-63609625D01*
X69323773Y-63632970D01*
X69217906Y-63677510D01*
X69119905Y-63743645D01*
X69089590Y-63770487D01*
X69012438Y-63854512D01*
X68956218Y-63942966D01*
X68917653Y-64042115D01*
X68896174Y-64140303D01*
X68890872Y-64250697D01*
X68908552Y-64361640D01*
X68947419Y-64469381D01*
X69005677Y-64570169D01*
X69081531Y-64660256D01*
X69173183Y-64735892D01*
X69185228Y-64743864D01*
X69223389Y-64769974D01*
X69252399Y-64792595D01*
X69266268Y-64807039D01*
X69266469Y-64807496D01*
X69263492Y-64823121D01*
X69251689Y-64858582D01*
X69232286Y-64910962D01*
X69206512Y-64977345D01*
X69175591Y-65054814D01*
X69140751Y-65140450D01*
X69103217Y-65231337D01*
X69064217Y-65324559D01*
X69024977Y-65417197D01*
X68986724Y-65506335D01*
X68950683Y-65589055D01*
X68918083Y-65662441D01*
X68890148Y-65723575D01*
X68868105Y-65769541D01*
X68853182Y-65797421D01*
X68847172Y-65804743D01*
X68828809Y-65799041D01*
X68794448Y-65783749D01*
X68750016Y-65761599D01*
X68725583Y-65748650D01*
X68621822Y-65692547D01*
X68498213Y-65776155D01*
X68435114Y-65818987D01*
X68366030Y-65866122D01*
X68301293Y-65910503D01*
X68268866Y-65932852D01*
X68223259Y-65963477D01*
X68184640Y-65987747D01*
X68158048Y-66002587D01*
X68149410Y-66005724D01*
X68136839Y-65997261D01*
X68109016Y-65973636D01*
X68068639Y-65937302D01*
X68018405Y-65890711D01*
X67961012Y-65836317D01*
X67924714Y-65801392D01*
X67861210Y-65738996D01*
X67806327Y-65683188D01*
X67762286Y-65636354D01*
X67731305Y-65600882D01*
X67715602Y-65579161D01*
X67714095Y-65574752D01*
X67721086Y-65557985D01*
X67740406Y-65524082D01*
X67769909Y-65476476D01*
X67807455Y-65418599D01*
X67850900Y-65353884D01*
X67863255Y-65335842D01*
X67908273Y-65270267D01*
X67948660Y-65211228D01*
X67982160Y-65162042D01*
X68006514Y-65126028D01*
X68019464Y-65106502D01*
X68020715Y-65104483D01*
X68018844Y-65088922D01*
X68008913Y-65054709D01*
X67992653Y-65006355D01*
X67971795Y-64948371D01*
X67948073Y-64885270D01*
X67923216Y-64821563D01*
X67898958Y-64761761D01*
X67877029Y-64710376D01*
X67859162Y-64671919D01*
X67847087Y-64650902D01*
X67846229Y-64649894D01*
X67838846Y-64643888D01*
X67826375Y-64637948D01*
X67806080Y-64631460D01*
X67775222Y-64623809D01*
X67731066Y-64614380D01*
X67670874Y-64602559D01*
X67591907Y-64587729D01*
X67491430Y-64569277D01*
X67469675Y-64565310D01*
X67405198Y-64552853D01*
X67348989Y-64540666D01*
X67306013Y-64529926D01*
X67281240Y-64521809D01*
X67277918Y-64519916D01*
X67272444Y-64503138D01*
X67267994Y-64465645D01*
X67264572Y-64411794D01*
X67262181Y-64345944D01*
X67260823Y-64272453D01*
X67260501Y-64195680D01*
X67261219Y-64119983D01*
X67262979Y-64049720D01*
X67265784Y-63989250D01*
X67269638Y-63942930D01*
X67274543Y-63915119D01*
X67277500Y-63909427D01*
X67293963Y-63903686D01*
X67331449Y-63894345D01*
X67386225Y-63882215D01*
X67454555Y-63868107D01*
X67532706Y-63852830D01*
X67575284Y-63844823D01*
X67656071Y-63829721D01*
X67728113Y-63816040D01*
X67787889Y-63804467D01*
X67831879Y-63795687D01*
X67856561Y-63790387D01*
X67860623Y-63789212D01*
X67867489Y-63775965D01*
X67882002Y-63744057D01*
X67902229Y-63698047D01*
X67926234Y-63642492D01*
X67952082Y-63581953D01*
X67977840Y-63520986D01*
X68001573Y-63464151D01*
X68021346Y-63416006D01*
X68035224Y-63381110D01*
X68041274Y-63364021D01*
X68041386Y-63363274D01*
X68034528Y-63349793D01*
X68015302Y-63318770D01*
X67985728Y-63273289D01*
X67947827Y-63216432D01*
X67903620Y-63151283D01*
X67877921Y-63113862D01*
X67831093Y-63045247D01*
X67789501Y-62982952D01*
X67755175Y-62930129D01*
X67730143Y-62889927D01*
X67716435Y-62865500D01*
X67714456Y-62860024D01*
X67722966Y-62847278D01*
X67746493Y-62820063D01*
X67782032Y-62781428D01*
X67826577Y-62734423D01*
X67877123Y-62682095D01*
X67930664Y-62627495D01*
X67984195Y-62573670D01*
X68034711Y-62523670D01*
X68079206Y-62480543D01*
X68114675Y-62447339D01*
X68138113Y-62427106D01*
X68145954Y-62422278D01*
X68158720Y-62429067D01*
X68189256Y-62448142D01*
X68234590Y-62477561D01*
X68291756Y-62515381D01*
X68357784Y-62559661D01*
X68407590Y-62593395D01*
X68659236Y-62764512D01*
X68868999Y-62678041D01*
X69078763Y-62591570D01*
X69135611Y-62290018D01*
X69192460Y-61988466D01*
X69820115Y-61988466D01*
X69876964Y-62290018D01*
X69876964Y-62290018D01*
G37*
X69876964Y-62290018D02*
X69933812Y-62591570D01*
X70353338Y-62764512D01*
X70604984Y-62593395D01*
X70675458Y-62545750D01*
X70739163Y-62503210D01*
X70793126Y-62467715D01*
X70834373Y-62441210D01*
X70859934Y-62425636D01*
X70866895Y-62422278D01*
X70879435Y-62430914D01*
X70906231Y-62454792D01*
X70944280Y-62490859D01*
X70990579Y-62536067D01*
X71042123Y-62587364D01*
X71095909Y-62641701D01*
X71148935Y-62696028D01*
X71198195Y-62747295D01*
X71240687Y-62792451D01*
X71273407Y-62828446D01*
X71293351Y-62852230D01*
X71298119Y-62860190D01*
X71291257Y-62874865D01*
X71272020Y-62907014D01*
X71242430Y-62953492D01*
X71204510Y-63011156D01*
X71160282Y-63076860D01*
X71134654Y-63114336D01*
X71087941Y-63182768D01*
X71046432Y-63244520D01*
X71012140Y-63296519D01*
X70987080Y-63335692D01*
X70973264Y-63358965D01*
X70971188Y-63363855D01*
X70975895Y-63377755D01*
X70988723Y-63410150D01*
X71007738Y-63456485D01*
X71031003Y-63512206D01*
X71056584Y-63572758D01*
X71082545Y-63633586D01*
X71106950Y-63690136D01*
X71127863Y-63737852D01*
X71143349Y-63772181D01*
X71151472Y-63788568D01*
X71151952Y-63789212D01*
X71164707Y-63792341D01*
X71198677Y-63799321D01*
X71250340Y-63809467D01*
X71316176Y-63822092D01*
X71392664Y-63836509D01*
X71437290Y-63844823D01*
X71519021Y-63860384D01*
X71592843Y-63875192D01*
X71655021Y-63888436D01*
X71701822Y-63899305D01*
X71729509Y-63906989D01*
X71735074Y-63909427D01*
X71740526Y-63925930D01*
X71744924Y-63963200D01*
X71748272Y-64016880D01*
X71750574Y-64082612D01*
X71751832Y-64156037D01*
X71752048Y-64232796D01*
X71751227Y-64308532D01*
X71749371Y-64378886D01*
X71746482Y-64439500D01*
X71742565Y-64486016D01*
X71737622Y-64514075D01*
X71734657Y-64519916D01*
X71716934Y-64526917D01*
X71679381Y-64536927D01*
X71626964Y-64548769D01*
X71564652Y-64561267D01*
X71542900Y-64565310D01*
X71438024Y-64584520D01*
X71355180Y-64599991D01*
X71291630Y-64612337D01*
X71244637Y-64622173D01*
X71211463Y-64630114D01*
X71189371Y-64636776D01*
X71175624Y-64642773D01*
X71167484Y-64648719D01*
X71166345Y-64649894D01*
X71154977Y-64668826D01*
X71137635Y-64705669D01*
X71116050Y-64755913D01*
X71091954Y-64815046D01*
X71067079Y-64878556D01*
X71043157Y-64941932D01*
X71021919Y-65000662D01*
X71005097Y-65050235D01*
X70994422Y-65086139D01*
X70991627Y-65103862D01*
X70991860Y-65104483D01*
X71001331Y-65118970D01*
X71022818Y-65150844D01*
X71054063Y-65196789D01*
X71092807Y-65253485D01*
X71136793Y-65317617D01*
X71149319Y-65335842D01*
X71193984Y-65401914D01*
X71233288Y-65462200D01*
X71265088Y-65513235D01*
X71287245Y-65551560D01*
X71297617Y-65573711D01*
X71298119Y-65576432D01*
X71289405Y-65590736D01*
X71265325Y-65619072D01*
X71228976Y-65658396D01*
X71183453Y-65705661D01*
X71131852Y-65757823D01*
X71077267Y-65811835D01*
X71022794Y-65864653D01*
X70971529Y-65913231D01*
X70926567Y-65954523D01*
X70891004Y-65985485D01*
X70867935Y-66003070D01*
X70861554Y-66005941D01*
X70846699Y-65999178D01*
X70816286Y-65980939D01*
X70775268Y-65954297D01*
X70743709Y-65932852D01*
X70686525Y-65893503D01*
X70618806Y-65847171D01*
X70550880Y-65800913D01*
X70514361Y-65776155D01*
X70390752Y-65692547D01*
X70286991Y-65748650D01*
X70239720Y-65773228D01*
X70199523Y-65792331D01*
X70172326Y-65803227D01*
X70165402Y-65804743D01*
X70157077Y-65793549D01*
X70140654Y-65761917D01*
X70117357Y-65712765D01*
X70088414Y-65649010D01*
X70055050Y-65573571D01*
X70018491Y-65489364D01*
X69979964Y-65399308D01*
X69940694Y-65306321D01*
X69901908Y-65213320D01*
X69864830Y-65123223D01*
X69830689Y-65038948D01*
X69800708Y-64963413D01*
X69776116Y-64899534D01*
X69758136Y-64850231D01*
X69747997Y-64818421D01*
X69746366Y-64807496D01*
X69759291Y-64793561D01*
X69787589Y-64770940D01*
X69825346Y-64744333D01*
X69828515Y-64742228D01*
X69926100Y-64664114D01*
X70004786Y-64572982D01*
X70063891Y-64471745D01*
X70102732Y-64363318D01*
X70120628Y-64250614D01*
X70116897Y-64136548D01*
X70090857Y-64024034D01*
X70041825Y-63915985D01*
X70027400Y-63892345D01*
X69952369Y-63796887D01*
X69863730Y-63720232D01*
X69764549Y-63662780D01*
X69657895Y-63624929D01*
X69546836Y-63607078D01*
X69434439Y-63609625D01*
X69323773Y-63632970D01*
X69217906Y-63677510D01*
X69119905Y-63743645D01*
X69089590Y-63770487D01*
X69012438Y-63854512D01*
X68956218Y-63942966D01*
X68917653Y-64042115D01*
X68896174Y-64140303D01*
X68890872Y-64250697D01*
X68908552Y-64361640D01*
X68947419Y-64469381D01*
X69005677Y-64570169D01*
X69081531Y-64660256D01*
X69173183Y-64735892D01*
X69185228Y-64743864D01*
X69223389Y-64769974D01*
X69252399Y-64792595D01*
X69266268Y-64807039D01*
X69266469Y-64807496D01*
X69263492Y-64823121D01*
X69251689Y-64858582D01*
X69232286Y-64910962D01*
X69206512Y-64977345D01*
X69175591Y-65054814D01*
X69140751Y-65140450D01*
X69103217Y-65231337D01*
X69064217Y-65324559D01*
X69024977Y-65417197D01*
X68986724Y-65506335D01*
X68950683Y-65589055D01*
X68918083Y-65662441D01*
X68890148Y-65723575D01*
X68868105Y-65769541D01*
X68853182Y-65797421D01*
X68847172Y-65804743D01*
X68828809Y-65799041D01*
X68794448Y-65783749D01*
X68750016Y-65761599D01*
X68725583Y-65748650D01*
X68621822Y-65692547D01*
X68498213Y-65776155D01*
X68435114Y-65818987D01*
X68366030Y-65866122D01*
X68301293Y-65910503D01*
X68268866Y-65932852D01*
X68223259Y-65963477D01*
X68184640Y-65987747D01*
X68158048Y-66002587D01*
X68149410Y-66005724D01*
X68136839Y-65997261D01*
X68109016Y-65973636D01*
X68068639Y-65937302D01*
X68018405Y-65890711D01*
X67961012Y-65836317D01*
X67924714Y-65801392D01*
X67861210Y-65738996D01*
X67806327Y-65683188D01*
X67762286Y-65636354D01*
X67731305Y-65600882D01*
X67715602Y-65579161D01*
X67714095Y-65574752D01*
X67721086Y-65557985D01*
X67740406Y-65524082D01*
X67769909Y-65476476D01*
X67807455Y-65418599D01*
X67850900Y-65353884D01*
X67863255Y-65335842D01*
X67908273Y-65270267D01*
X67948660Y-65211228D01*
X67982160Y-65162042D01*
X68006514Y-65126028D01*
X68019464Y-65106502D01*
X68020715Y-65104483D01*
X68018844Y-65088922D01*
X68008913Y-65054709D01*
X67992653Y-65006355D01*
X67971795Y-64948371D01*
X67948073Y-64885270D01*
X67923216Y-64821563D01*
X67898958Y-64761761D01*
X67877029Y-64710376D01*
X67859162Y-64671919D01*
X67847087Y-64650902D01*
X67846229Y-64649894D01*
X67838846Y-64643888D01*
X67826375Y-64637948D01*
X67806080Y-64631460D01*
X67775222Y-64623809D01*
X67731066Y-64614380D01*
X67670874Y-64602559D01*
X67591907Y-64587729D01*
X67491430Y-64569277D01*
X67469675Y-64565310D01*
X67405198Y-64552853D01*
X67348989Y-64540666D01*
X67306013Y-64529926D01*
X67281240Y-64521809D01*
X67277918Y-64519916D01*
X67272444Y-64503138D01*
X67267994Y-64465645D01*
X67264572Y-64411794D01*
X67262181Y-64345944D01*
X67260823Y-64272453D01*
X67260501Y-64195680D01*
X67261219Y-64119983D01*
X67262979Y-64049720D01*
X67265784Y-63989250D01*
X67269638Y-63942930D01*
X67274543Y-63915119D01*
X67277500Y-63909427D01*
X67293963Y-63903686D01*
X67331449Y-63894345D01*
X67386225Y-63882215D01*
X67454555Y-63868107D01*
X67532706Y-63852830D01*
X67575284Y-63844823D01*
X67656071Y-63829721D01*
X67728113Y-63816040D01*
X67787889Y-63804467D01*
X67831879Y-63795687D01*
X67856561Y-63790387D01*
X67860623Y-63789212D01*
X67867489Y-63775965D01*
X67882002Y-63744057D01*
X67902229Y-63698047D01*
X67926234Y-63642492D01*
X67952082Y-63581953D01*
X67977840Y-63520986D01*
X68001573Y-63464151D01*
X68021346Y-63416006D01*
X68035224Y-63381110D01*
X68041274Y-63364021D01*
X68041386Y-63363274D01*
X68034528Y-63349793D01*
X68015302Y-63318770D01*
X67985728Y-63273289D01*
X67947827Y-63216432D01*
X67903620Y-63151283D01*
X67877921Y-63113862D01*
X67831093Y-63045247D01*
X67789501Y-62982952D01*
X67755175Y-62930129D01*
X67730143Y-62889927D01*
X67716435Y-62865500D01*
X67714456Y-62860024D01*
X67722966Y-62847278D01*
X67746493Y-62820063D01*
X67782032Y-62781428D01*
X67826577Y-62734423D01*
X67877123Y-62682095D01*
X67930664Y-62627495D01*
X67984195Y-62573670D01*
X68034711Y-62523670D01*
X68079206Y-62480543D01*
X68114675Y-62447339D01*
X68138113Y-62427106D01*
X68145954Y-62422278D01*
X68158720Y-62429067D01*
X68189256Y-62448142D01*
X68234590Y-62477561D01*
X68291756Y-62515381D01*
X68357784Y-62559661D01*
X68407590Y-62593395D01*
X68659236Y-62764512D01*
X68868999Y-62678041D01*
X69078763Y-62591570D01*
X69135611Y-62290018D01*
X69192460Y-61988466D01*
X69820115Y-61988466D01*
X69876964Y-62290018D01*
G36*
X71299460Y-66458030D02*
X71342711Y-66471245D01*
X71370558Y-66487941D01*
X71379629Y-66501145D01*
X71377132Y-66516797D01*
X71360931Y-66541385D01*
X71347232Y-66558800D01*
X71318992Y-66590283D01*
X71297775Y-66603529D01*
X71279688Y-66602664D01*
X71226035Y-66589010D01*
X71186630Y-66589630D01*
X71154632Y-66605104D01*
X71143890Y-66614161D01*
X71109505Y-66646027D01*
X71109505Y-67062179D01*
X70971188Y-67062179D01*
X70971188Y-66458614D01*
X71040347Y-66458614D01*
X71081869Y-66460256D01*
X71103291Y-66466087D01*
X71109502Y-66477461D01*
X71109505Y-66477798D01*
X71112439Y-66489713D01*
X71125704Y-66488159D01*
X71144084Y-66479563D01*
X71182046Y-66463568D01*
X71212872Y-66453945D01*
X71252536Y-66451478D01*
X71299460Y-66458030D01*
X71299460Y-66458030D01*
G37*
X71299460Y-66458030D02*
X71342711Y-66471245D01*
X71370558Y-66487941D01*
X71379629Y-66501145D01*
X71377132Y-66516797D01*
X71360931Y-66541385D01*
X71347232Y-66558800D01*
X71318992Y-66590283D01*
X71297775Y-66603529D01*
X71279688Y-66602664D01*
X71226035Y-66589010D01*
X71186630Y-66589630D01*
X71154632Y-66605104D01*
X71143890Y-66614161D01*
X71109505Y-66646027D01*
X71109505Y-67062179D01*
X70971188Y-67062179D01*
X70971188Y-66458614D01*
X71040347Y-66458614D01*
X71081869Y-66460256D01*
X71103291Y-66466087D01*
X71109502Y-66477461D01*
X71109505Y-66477798D01*
X71112439Y-66489713D01*
X71125704Y-66488159D01*
X71144084Y-66479563D01*
X71182046Y-66463568D01*
X71212872Y-66453945D01*
X71252536Y-66451478D01*
X71299460Y-66458030D01*
G36*
X68745988Y-66469002D02*
X68777283Y-66483950D01*
X68807591Y-66505541D01*
X68830682Y-66530391D01*
X68847500Y-66562087D01*
X68858994Y-66604214D01*
X68866109Y-66660358D01*
X68869793Y-66734106D01*
X68870992Y-66829044D01*
X68871011Y-66838985D01*
X68871287Y-67062179D01*
X68732970Y-67062179D01*
X68732970Y-66856418D01*
X68732872Y-66780189D01*
X68732191Y-66724939D01*
X68730349Y-66686501D01*
X68726767Y-66660706D01*
X68720868Y-66643384D01*
X68712073Y-66630368D01*
X68699820Y-66617507D01*
X68656953Y-66589873D01*
X68610157Y-66584745D01*
X68565576Y-66602217D01*
X68550072Y-66615221D01*
X68538690Y-66627447D01*
X68530519Y-66640540D01*
X68525026Y-66658615D01*
X68521680Y-66685787D01*
X68519949Y-66726170D01*
X68519303Y-66783879D01*
X68519208Y-66854132D01*
X68519208Y-67062179D01*
X68380891Y-67062179D01*
X68380891Y-66458614D01*
X68450050Y-66458614D01*
X68491572Y-66460256D01*
X68512994Y-66466087D01*
X68519205Y-66477461D01*
X68519208Y-66477798D01*
X68522090Y-66488938D01*
X68534801Y-66487674D01*
X68560074Y-66475434D01*
X68617395Y-66457424D01*
X68682963Y-66455421D01*
X68745988Y-66469002D01*
X68745988Y-66469002D01*
G37*
X68745988Y-66469002D02*
X68777283Y-66483950D01*
X68807591Y-66505541D01*
X68830682Y-66530391D01*
X68847500Y-66562087D01*
X68858994Y-66604214D01*
X68866109Y-66660358D01*
X68869793Y-66734106D01*
X68870992Y-66829044D01*
X68871011Y-66838985D01*
X68871287Y-67062179D01*
X68732970Y-67062179D01*
X68732970Y-66856418D01*
X68732872Y-66780189D01*
X68732191Y-66724939D01*
X68730349Y-66686501D01*
X68726767Y-66660706D01*
X68720868Y-66643384D01*
X68712073Y-66630368D01*
X68699820Y-66617507D01*
X68656953Y-66589873D01*
X68610157Y-66584745D01*
X68565576Y-66602217D01*
X68550072Y-66615221D01*
X68538690Y-66627447D01*
X68530519Y-66640540D01*
X68525026Y-66658615D01*
X68521680Y-66685787D01*
X68519949Y-66726170D01*
X68519303Y-66783879D01*
X68519208Y-66854132D01*
X68519208Y-67062179D01*
X68380891Y-67062179D01*
X68380891Y-66458614D01*
X68450050Y-66458614D01*
X68491572Y-66460256D01*
X68512994Y-66466087D01*
X68519205Y-66477461D01*
X68519208Y-66477798D01*
X68522090Y-66488938D01*
X68534801Y-66487674D01*
X68560074Y-66475434D01*
X68617395Y-66457424D01*
X68682963Y-66455421D01*
X68745988Y-66469002D01*
G36*
X72177898Y-66456457D02*
X72210096Y-66464279D01*
X72271825Y-66492921D01*
X72324610Y-66536667D01*
X72361141Y-66589117D01*
X72366160Y-66600893D01*
X72373045Y-66631740D01*
X72377864Y-66677371D01*
X72379505Y-66723492D01*
X72379505Y-66810693D01*
X72197178Y-66810693D01*
X72121979Y-66810978D01*
X72069003Y-66812704D01*
X72035325Y-66817181D01*
X72018020Y-66825720D01*
X72014163Y-66839630D01*
X72020829Y-66860222D01*
X72032770Y-66884315D01*
X72066080Y-66924525D01*
X72112368Y-66944558D01*
X72168944Y-66943905D01*
X72233031Y-66922101D01*
X72288417Y-66895193D01*
X72334375Y-66931532D01*
X72380333Y-66967872D01*
X72337096Y-67007819D01*
X72279374Y-67045563D01*
X72208386Y-67068320D01*
X72132029Y-67074688D01*
X72058199Y-67063268D01*
X72046287Y-67059393D01*
X71981399Y-67025506D01*
X71933130Y-66974986D01*
X71900465Y-66906325D01*
X71882385Y-66818014D01*
X71882175Y-66816121D01*
X71880556Y-66719878D01*
X71887100Y-66685542D01*
X72014852Y-66685542D01*
X72026584Y-66690822D01*
X72058438Y-66694867D01*
X72105397Y-66697176D01*
X72135154Y-66697525D01*
X72190648Y-66697306D01*
X72225346Y-66695916D01*
X72243601Y-66692251D01*
X72249766Y-66685210D01*
X72248195Y-66673690D01*
X72246878Y-66669233D01*
X72224382Y-66627355D01*
X72189003Y-66593604D01*
X72157780Y-66578773D01*
X72116301Y-66579668D01*
X72074269Y-66598164D01*
X72039012Y-66628786D01*
X72017854Y-66666062D01*
X72014852Y-66685542D01*
X71887100Y-66685542D01*
X71896690Y-66635229D01*
X71928698Y-66564191D01*
X71974701Y-66508779D01*
X72032821Y-66471009D01*
X72101180Y-66452896D01*
X72177898Y-66456457D01*
X72177898Y-66456457D01*
G37*
X72177898Y-66456457D02*
X72210096Y-66464279D01*
X72271825Y-66492921D01*
X72324610Y-66536667D01*
X72361141Y-66589117D01*
X72366160Y-66600893D01*
X72373045Y-66631740D01*
X72377864Y-66677371D01*
X72379505Y-66723492D01*
X72379505Y-66810693D01*
X72197178Y-66810693D01*
X72121979Y-66810978D01*
X72069003Y-66812704D01*
X72035325Y-66817181D01*
X72018020Y-66825720D01*
X72014163Y-66839630D01*
X72020829Y-66860222D01*
X72032770Y-66884315D01*
X72066080Y-66924525D01*
X72112368Y-66944558D01*
X72168944Y-66943905D01*
X72233031Y-66922101D01*
X72288417Y-66895193D01*
X72334375Y-66931532D01*
X72380333Y-66967872D01*
X72337096Y-67007819D01*
X72279374Y-67045563D01*
X72208386Y-67068320D01*
X72132029Y-67074688D01*
X72058199Y-67063268D01*
X72046287Y-67059393D01*
X71981399Y-67025506D01*
X71933130Y-66974986D01*
X71900465Y-66906325D01*
X71882385Y-66818014D01*
X71882175Y-66816121D01*
X71880556Y-66719878D01*
X71887100Y-66685542D01*
X72014852Y-66685542D01*
X72026584Y-66690822D01*
X72058438Y-66694867D01*
X72105397Y-66697176D01*
X72135154Y-66697525D01*
X72190648Y-66697306D01*
X72225346Y-66695916D01*
X72243601Y-66692251D01*
X72249766Y-66685210D01*
X72248195Y-66673690D01*
X72246878Y-66669233D01*
X72224382Y-66627355D01*
X72189003Y-66593604D01*
X72157780Y-66578773D01*
X72116301Y-66579668D01*
X72074269Y-66598164D01*
X72039012Y-66628786D01*
X72017854Y-66666062D01*
X72014852Y-66685542D01*
X71887100Y-66685542D01*
X71896690Y-66635229D01*
X71928698Y-66564191D01*
X71974701Y-66508779D01*
X72032821Y-66471009D01*
X72101180Y-66452896D01*
X72177898Y-66456457D01*
G36*
X71717226Y-66463880D02*
X71790080Y-66494830D01*
X71813027Y-66509895D01*
X71842354Y-66533048D01*
X71860764Y-66551253D01*
X71863961Y-66557183D01*
X71854935Y-66570340D01*
X71831837Y-66592667D01*
X71813344Y-66608250D01*
X71762728Y-66648926D01*
X71722760Y-66615295D01*
X71691874Y-66593584D01*
X71661759Y-66586090D01*
X71627292Y-66587920D01*
X71572561Y-66601528D01*
X71534886Y-66629772D01*
X71511991Y-66675433D01*
X71501597Y-66741289D01*
X71501595Y-66741331D01*
X71502494Y-66814939D01*
X71516463Y-66868946D01*
X71544328Y-66905716D01*
X71563325Y-66918168D01*
X71613776Y-66933673D01*
X71667663Y-66933683D01*
X71714546Y-66918638D01*
X71725644Y-66911287D01*
X71753476Y-66892511D01*
X71775236Y-66889434D01*
X71798704Y-66903409D01*
X71824649Y-66928510D01*
X71865716Y-66970880D01*
X71820121Y-67008464D01*
X71749674Y-67050882D01*
X71670233Y-67071785D01*
X71587215Y-67070272D01*
X71532694Y-67056411D01*
X71468970Y-67022135D01*
X71418005Y-66968212D01*
X71394851Y-66930149D01*
X71376099Y-66875536D01*
X71366715Y-66806369D01*
X71366643Y-66731407D01*
X71375824Y-66659409D01*
X71394199Y-66599137D01*
X71397093Y-66592958D01*
X71439952Y-66532351D01*
X71497979Y-66488224D01*
X71566591Y-66461493D01*
X71641201Y-66453073D01*
X71717226Y-66463880D01*
X71717226Y-66463880D01*
G37*
X71717226Y-66463880D02*
X71790080Y-66494830D01*
X71813027Y-66509895D01*
X71842354Y-66533048D01*
X71860764Y-66551253D01*
X71863961Y-66557183D01*
X71854935Y-66570340D01*
X71831837Y-66592667D01*
X71813344Y-66608250D01*
X71762728Y-66648926D01*
X71722760Y-66615295D01*
X71691874Y-66593584D01*
X71661759Y-66586090D01*
X71627292Y-66587920D01*
X71572561Y-66601528D01*
X71534886Y-66629772D01*
X71511991Y-66675433D01*
X71501597Y-66741289D01*
X71501595Y-66741331D01*
X71502494Y-66814939D01*
X71516463Y-66868946D01*
X71544328Y-66905716D01*
X71563325Y-66918168D01*
X71613776Y-66933673D01*
X71667663Y-66933683D01*
X71714546Y-66918638D01*
X71725644Y-66911287D01*
X71753476Y-66892511D01*
X71775236Y-66889434D01*
X71798704Y-66903409D01*
X71824649Y-66928510D01*
X71865716Y-66970880D01*
X71820121Y-67008464D01*
X71749674Y-67050882D01*
X71670233Y-67071785D01*
X71587215Y-67070272D01*
X71532694Y-67056411D01*
X71468970Y-67022135D01*
X71418005Y-66968212D01*
X71394851Y-66930149D01*
X71376099Y-66875536D01*
X71366715Y-66806369D01*
X71366643Y-66731407D01*
X71375824Y-66659409D01*
X71394199Y-66599137D01*
X71397093Y-66592958D01*
X71439952Y-66532351D01*
X71497979Y-66488224D01*
X71566591Y-66461493D01*
X71641201Y-66453073D01*
X71717226Y-66463880D01*
G36*
X70493367Y-66654342D02*
X70494555Y-66746563D01*
X70498897Y-66816610D01*
X70507558Y-66867381D01*
X70521704Y-66901772D01*
X70542500Y-66922679D01*
X70571110Y-66933000D01*
X70606535Y-66935636D01*
X70643636Y-66932682D01*
X70671818Y-66921889D01*
X70692243Y-66900360D01*
X70706079Y-66865199D01*
X70714491Y-66813510D01*
X70718643Y-66742394D01*
X70719703Y-66654342D01*
X70719703Y-66458614D01*
X70858020Y-66458614D01*
X70858020Y-67062179D01*
X70788862Y-67062179D01*
X70747170Y-67060489D01*
X70725701Y-67054556D01*
X70719703Y-67043293D01*
X70716091Y-67033261D01*
X70701714Y-67035383D01*
X70672736Y-67049580D01*
X70606319Y-67071480D01*
X70535875Y-67069928D01*
X70468377Y-67046147D01*
X70436233Y-67027362D01*
X70411715Y-67007022D01*
X70393804Y-66981573D01*
X70381479Y-66947458D01*
X70373723Y-66901121D01*
X70369516Y-66839007D01*
X70367840Y-66757561D01*
X70367624Y-66694578D01*
X70367624Y-66458614D01*
X70493367Y-66458614D01*
X70493367Y-66654342D01*
X70493367Y-66654342D01*
G37*
X70493367Y-66654342D02*
X70494555Y-66746563D01*
X70498897Y-66816610D01*
X70507558Y-66867381D01*
X70521704Y-66901772D01*
X70542500Y-66922679D01*
X70571110Y-66933000D01*
X70606535Y-66935636D01*
X70643636Y-66932682D01*
X70671818Y-66921889D01*
X70692243Y-66900360D01*
X70706079Y-66865199D01*
X70714491Y-66813510D01*
X70718643Y-66742394D01*
X70719703Y-66654342D01*
X70719703Y-66458614D01*
X70858020Y-66458614D01*
X70858020Y-67062179D01*
X70788862Y-67062179D01*
X70747170Y-67060489D01*
X70725701Y-67054556D01*
X70719703Y-67043293D01*
X70716091Y-67033261D01*
X70701714Y-67035383D01*
X70672736Y-67049580D01*
X70606319Y-67071480D01*
X70535875Y-67069928D01*
X70468377Y-67046147D01*
X70436233Y-67027362D01*
X70411715Y-67007022D01*
X70393804Y-66981573D01*
X70381479Y-66947458D01*
X70373723Y-66901121D01*
X70369516Y-66839007D01*
X70367840Y-66757561D01*
X70367624Y-66694578D01*
X70367624Y-66458614D01*
X70493367Y-66458614D01*
X70493367Y-66654342D01*
G36*
X70110762Y-66466055D02*
X70174363Y-66500692D01*
X70224123Y-66555372D01*
X70247568Y-66599842D01*
X70257634Y-66639121D01*
X70264156Y-66695116D01*
X70266951Y-66759621D01*
X70265836Y-66824429D01*
X70260626Y-66881334D01*
X70254541Y-66911727D01*
X70234014Y-66953306D01*
X70198463Y-66997468D01*
X70155619Y-67036087D01*
X70113211Y-67061034D01*
X70112177Y-67061430D01*
X70059553Y-67072331D01*
X69997188Y-67072601D01*
X69937924Y-67062676D01*
X69915040Y-67054722D01*
X69856102Y-67021300D01*
X69813890Y-66977511D01*
X69786156Y-66919538D01*
X69770651Y-66843565D01*
X69767143Y-66803771D01*
X69767590Y-66753766D01*
X69902376Y-66753766D01*
X69906917Y-66826732D01*
X69919986Y-66882334D01*
X69940756Y-66917861D01*
X69955552Y-66928020D01*
X69993464Y-66935104D01*
X70038527Y-66933007D01*
X70077487Y-66922812D01*
X70087704Y-66917204D01*
X70114659Y-66884538D01*
X70132451Y-66834545D01*
X70140024Y-66773705D01*
X70136325Y-66708497D01*
X70128057Y-66669253D01*
X70104320Y-66623805D01*
X70066849Y-66595396D01*
X70021720Y-66585573D01*
X69975011Y-66595887D01*
X69939132Y-66621112D01*
X69920277Y-66641925D01*
X69909272Y-66662439D01*
X69904026Y-66690203D01*
X69902449Y-66732762D01*
X69902376Y-66753766D01*
X69767590Y-66753766D01*
X69768094Y-66697580D01*
X69785388Y-66610501D01*
X69819029Y-66542530D01*
X69869018Y-66493664D01*
X69935356Y-66463899D01*
X69949601Y-66460448D01*
X70035210Y-66452345D01*
X70110762Y-66466055D01*
X70110762Y-66466055D01*
G37*
X70110762Y-66466055D02*
X70174363Y-66500692D01*
X70224123Y-66555372D01*
X70247568Y-66599842D01*
X70257634Y-66639121D01*
X70264156Y-66695116D01*
X70266951Y-66759621D01*
X70265836Y-66824429D01*
X70260626Y-66881334D01*
X70254541Y-66911727D01*
X70234014Y-66953306D01*
X70198463Y-66997468D01*
X70155619Y-67036087D01*
X70113211Y-67061034D01*
X70112177Y-67061430D01*
X70059553Y-67072331D01*
X69997188Y-67072601D01*
X69937924Y-67062676D01*
X69915040Y-67054722D01*
X69856102Y-67021300D01*
X69813890Y-66977511D01*
X69786156Y-66919538D01*
X69770651Y-66843565D01*
X69767143Y-66803771D01*
X69767590Y-66753766D01*
X69902376Y-66753766D01*
X69906917Y-66826732D01*
X69919986Y-66882334D01*
X69940756Y-66917861D01*
X69955552Y-66928020D01*
X69993464Y-66935104D01*
X70038527Y-66933007D01*
X70077487Y-66922812D01*
X70087704Y-66917204D01*
X70114659Y-66884538D01*
X70132451Y-66834545D01*
X70140024Y-66773705D01*
X70136325Y-66708497D01*
X70128057Y-66669253D01*
X70104320Y-66623805D01*
X70066849Y-66595396D01*
X70021720Y-66585573D01*
X69975011Y-66595887D01*
X69939132Y-66621112D01*
X69920277Y-66641925D01*
X69909272Y-66662439D01*
X69904026Y-66690203D01*
X69902449Y-66732762D01*
X69902376Y-66753766D01*
X69767590Y-66753766D01*
X69768094Y-66697580D01*
X69785388Y-66610501D01*
X69819029Y-66542530D01*
X69869018Y-66493664D01*
X69935356Y-66463899D01*
X69949601Y-66460448D01*
X70035210Y-66452345D01*
X70110762Y-66466055D01*
G36*
X69514017Y-66456452D02*
X69561634Y-66465482D01*
X69611034Y-66484370D01*
X69616312Y-66486777D01*
X69653774Y-66506476D01*
X69679717Y-66524781D01*
X69688103Y-66536508D01*
X69680117Y-66555632D01*
X69660720Y-66583850D01*
X69652110Y-66594384D01*
X69616628Y-66635847D01*
X69570885Y-66608858D01*
X69527350Y-66590878D01*
X69477050Y-66581267D01*
X69428812Y-66580660D01*
X69391467Y-66589691D01*
X69382505Y-66595327D01*
X69365437Y-66621171D01*
X69363363Y-66650941D01*
X69376134Y-66674197D01*
X69383688Y-66678708D01*
X69406325Y-66684309D01*
X69446115Y-66690892D01*
X69495166Y-66697183D01*
X69504215Y-66698170D01*
X69582996Y-66711798D01*
X69640136Y-66734946D01*
X69678030Y-66769752D01*
X69699079Y-66818354D01*
X69705635Y-66877718D01*
X69696577Y-66945198D01*
X69667164Y-66998188D01*
X69617278Y-67036783D01*
X69546800Y-67061081D01*
X69468565Y-67070667D01*
X69404766Y-67070552D01*
X69353016Y-67061845D01*
X69317673Y-67049825D01*
X69273017Y-67028880D01*
X69231747Y-67004574D01*
X69217079Y-66993876D01*
X69179357Y-66963084D01*
X69224852Y-66917049D01*
X69270347Y-66871013D01*
X69322072Y-66905243D01*
X69373952Y-66930952D01*
X69429351Y-66944399D01*
X69482605Y-66945818D01*
X69528049Y-66935443D01*
X69560016Y-66913507D01*
X69570338Y-66894998D01*
X69568789Y-66865314D01*
X69543140Y-66842615D01*
X69493460Y-66826940D01*
X69439031Y-66819695D01*
X69355264Y-66805873D01*
X69293033Y-66779796D01*
X69251507Y-66740699D01*
X69229853Y-66687820D01*
X69226853Y-66625126D01*
X69241671Y-66559642D01*
X69275454Y-66510144D01*
X69328505Y-66476408D01*
X69401126Y-66458207D01*
X69454928Y-66454639D01*
X69514017Y-66456452D01*
X69514017Y-66456452D01*
G37*
X69514017Y-66456452D02*
X69561634Y-66465482D01*
X69611034Y-66484370D01*
X69616312Y-66486777D01*
X69653774Y-66506476D01*
X69679717Y-66524781D01*
X69688103Y-66536508D01*
X69680117Y-66555632D01*
X69660720Y-66583850D01*
X69652110Y-66594384D01*
X69616628Y-66635847D01*
X69570885Y-66608858D01*
X69527350Y-66590878D01*
X69477050Y-66581267D01*
X69428812Y-66580660D01*
X69391467Y-66589691D01*
X69382505Y-66595327D01*
X69365437Y-66621171D01*
X69363363Y-66650941D01*
X69376134Y-66674197D01*
X69383688Y-66678708D01*
X69406325Y-66684309D01*
X69446115Y-66690892D01*
X69495166Y-66697183D01*
X69504215Y-66698170D01*
X69582996Y-66711798D01*
X69640136Y-66734946D01*
X69678030Y-66769752D01*
X69699079Y-66818354D01*
X69705635Y-66877718D01*
X69696577Y-66945198D01*
X69667164Y-66998188D01*
X69617278Y-67036783D01*
X69546800Y-67061081D01*
X69468565Y-67070667D01*
X69404766Y-67070552D01*
X69353016Y-67061845D01*
X69317673Y-67049825D01*
X69273017Y-67028880D01*
X69231747Y-67004574D01*
X69217079Y-66993876D01*
X69179357Y-66963084D01*
X69224852Y-66917049D01*
X69270347Y-66871013D01*
X69322072Y-66905243D01*
X69373952Y-66930952D01*
X69429351Y-66944399D01*
X69482605Y-66945818D01*
X69528049Y-66935443D01*
X69560016Y-66913507D01*
X69570338Y-66894998D01*
X69568789Y-66865314D01*
X69543140Y-66842615D01*
X69493460Y-66826940D01*
X69439031Y-66819695D01*
X69355264Y-66805873D01*
X69293033Y-66779796D01*
X69251507Y-66740699D01*
X69229853Y-66687820D01*
X69226853Y-66625126D01*
X69241671Y-66559642D01*
X69275454Y-66510144D01*
X69328505Y-66476408D01*
X69401126Y-66458207D01*
X69454928Y-66454639D01*
X69514017Y-66456452D01*
G36*
X68143301Y-66472614D02*
X68155832Y-66478514D01*
X68199201Y-66510283D01*
X68240210Y-66556646D01*
X68270832Y-66607696D01*
X68279541Y-66631166D01*
X68287488Y-66673091D01*
X68292226Y-66723757D01*
X68292801Y-66744679D01*
X68292871Y-66810693D01*
X67912917Y-66810693D01*
X67921017Y-66845273D01*
X67940896Y-66886170D01*
X67975653Y-66921514D01*
X68017002Y-66944282D01*
X68043351Y-66949010D01*
X68079084Y-66943273D01*
X68121718Y-66928882D01*
X68136201Y-66922262D01*
X68189760Y-66895513D01*
X68235467Y-66930376D01*
X68261842Y-66953955D01*
X68275876Y-66973417D01*
X68276586Y-66979129D01*
X68264049Y-66992973D01*
X68236572Y-67014012D01*
X68211634Y-67030425D01*
X68144336Y-67059930D01*
X68068890Y-67073284D01*
X67994112Y-67069812D01*
X67934505Y-67051663D01*
X67873059Y-67012784D01*
X67829392Y-66961595D01*
X67802074Y-66895367D01*
X67789678Y-66811371D01*
X67788579Y-66772936D01*
X67792978Y-66684861D01*
X67793518Y-66682299D01*
X67919418Y-66682299D01*
X67922885Y-66690558D01*
X67937137Y-66695113D01*
X67966530Y-66697065D01*
X68015425Y-66697517D01*
X68034252Y-66697525D01*
X68091533Y-66696843D01*
X68127859Y-66694364D01*
X68147396Y-66689443D01*
X68154310Y-66681434D01*
X68154555Y-66678862D01*
X68146664Y-66658423D01*
X68126915Y-66629789D01*
X68118425Y-66619763D01*
X68086906Y-66591408D01*
X68054051Y-66580259D01*
X68036349Y-66579327D01*
X67988461Y-66590981D01*
X67948301Y-66622285D01*
X67922827Y-66667752D01*
X67922375Y-66669233D01*
X67919418Y-66682299D01*
X67793518Y-66682299D01*
X67807608Y-66615510D01*
X67833962Y-66560025D01*
X67866193Y-66520639D01*
X67925783Y-66477931D01*
X67995832Y-66455109D01*
X68070339Y-66453046D01*
X68143301Y-66472614D01*
X68143301Y-66472614D01*
G37*
X68143301Y-66472614D02*
X68155832Y-66478514D01*
X68199201Y-66510283D01*
X68240210Y-66556646D01*
X68270832Y-66607696D01*
X68279541Y-66631166D01*
X68287488Y-66673091D01*
X68292226Y-66723757D01*
X68292801Y-66744679D01*
X68292871Y-66810693D01*
X67912917Y-66810693D01*
X67921017Y-66845273D01*
X67940896Y-66886170D01*
X67975653Y-66921514D01*
X68017002Y-66944282D01*
X68043351Y-66949010D01*
X68079084Y-66943273D01*
X68121718Y-66928882D01*
X68136201Y-66922262D01*
X68189760Y-66895513D01*
X68235467Y-66930376D01*
X68261842Y-66953955D01*
X68275876Y-66973417D01*
X68276586Y-66979129D01*
X68264049Y-66992973D01*
X68236572Y-67014012D01*
X68211634Y-67030425D01*
X68144336Y-67059930D01*
X68068890Y-67073284D01*
X67994112Y-67069812D01*
X67934505Y-67051663D01*
X67873059Y-67012784D01*
X67829392Y-66961595D01*
X67802074Y-66895367D01*
X67789678Y-66811371D01*
X67788579Y-66772936D01*
X67792978Y-66684861D01*
X67793518Y-66682299D01*
X67919418Y-66682299D01*
X67922885Y-66690558D01*
X67937137Y-66695113D01*
X67966530Y-66697065D01*
X68015425Y-66697517D01*
X68034252Y-66697525D01*
X68091533Y-66696843D01*
X68127859Y-66694364D01*
X68147396Y-66689443D01*
X68154310Y-66681434D01*
X68154555Y-66678862D01*
X68146664Y-66658423D01*
X68126915Y-66629789D01*
X68118425Y-66619763D01*
X68086906Y-66591408D01*
X68054051Y-66580259D01*
X68036349Y-66579327D01*
X67988461Y-66590981D01*
X67948301Y-66622285D01*
X67922827Y-66667752D01*
X67922375Y-66669233D01*
X67919418Y-66682299D01*
X67793518Y-66682299D01*
X67807608Y-66615510D01*
X67833962Y-66560025D01*
X67866193Y-66520639D01*
X67925783Y-66477931D01*
X67995832Y-66455109D01*
X68070339Y-66453046D01*
X68143301Y-66472614D01*
G36*
X66961739Y-66465148D02*
X67027521Y-66494231D01*
X67077460Y-66542793D01*
X67111626Y-66610908D01*
X67130093Y-66698651D01*
X67131417Y-66712351D01*
X67132454Y-66808939D01*
X67119007Y-66893602D01*
X67091892Y-66962221D01*
X67077373Y-66984294D01*
X67026799Y-67031011D01*
X66962391Y-67061268D01*
X66890334Y-67073824D01*
X66816815Y-67067439D01*
X66760928Y-67047772D01*
X66712868Y-67014629D01*
X66673588Y-66971175D01*
X66672908Y-66970158D01*
X66656956Y-66943338D01*
X66646590Y-66916368D01*
X66640312Y-66882332D01*
X66636627Y-66834310D01*
X66635003Y-66794931D01*
X66634328Y-66759219D01*
X66760045Y-66759219D01*
X66761274Y-66794770D01*
X66765734Y-66842094D01*
X66773603Y-66872465D01*
X66787793Y-66894072D01*
X66801083Y-66906694D01*
X66848198Y-66933122D01*
X66897495Y-66936653D01*
X66943407Y-66917639D01*
X66966362Y-66896331D01*
X66982904Y-66874859D01*
X66992579Y-66854313D01*
X66996826Y-66827574D01*
X66997080Y-66787523D01*
X66995772Y-66750638D01*
X66992957Y-66697947D01*
X66988495Y-66663772D01*
X66980452Y-66641480D01*
X66966897Y-66624442D01*
X66956155Y-66614703D01*
X66911223Y-66589123D01*
X66862751Y-66587847D01*
X66822106Y-66602999D01*
X66787433Y-66634642D01*
X66766776Y-66686620D01*
X66760045Y-66759219D01*
X66634328Y-66759219D01*
X66633521Y-66716621D01*
X66636052Y-66658056D01*
X66643638Y-66614007D01*
X66657319Y-66579248D01*
X66678135Y-66548551D01*
X66685853Y-66539436D01*
X66734111Y-66494021D01*
X66785872Y-66467493D01*
X66849172Y-66456379D01*
X66880039Y-66455471D01*
X66961739Y-66465148D01*
X66961739Y-66465148D01*
G37*
X66961739Y-66465148D02*
X67027521Y-66494231D01*
X67077460Y-66542793D01*
X67111626Y-66610908D01*
X67130093Y-66698651D01*
X67131417Y-66712351D01*
X67132454Y-66808939D01*
X67119007Y-66893602D01*
X67091892Y-66962221D01*
X67077373Y-66984294D01*
X67026799Y-67031011D01*
X66962391Y-67061268D01*
X66890334Y-67073824D01*
X66816815Y-67067439D01*
X66760928Y-67047772D01*
X66712868Y-67014629D01*
X66673588Y-66971175D01*
X66672908Y-66970158D01*
X66656956Y-66943338D01*
X66646590Y-66916368D01*
X66640312Y-66882332D01*
X66636627Y-66834310D01*
X66635003Y-66794931D01*
X66634328Y-66759219D01*
X66760045Y-66759219D01*
X66761274Y-66794770D01*
X66765734Y-66842094D01*
X66773603Y-66872465D01*
X66787793Y-66894072D01*
X66801083Y-66906694D01*
X66848198Y-66933122D01*
X66897495Y-66936653D01*
X66943407Y-66917639D01*
X66966362Y-66896331D01*
X66982904Y-66874859D01*
X66992579Y-66854313D01*
X66996826Y-66827574D01*
X66997080Y-66787523D01*
X66995772Y-66750638D01*
X66992957Y-66697947D01*
X66988495Y-66663772D01*
X66980452Y-66641480D01*
X66966897Y-66624442D01*
X66956155Y-66614703D01*
X66911223Y-66589123D01*
X66862751Y-66587847D01*
X66822106Y-66602999D01*
X66787433Y-66634642D01*
X66766776Y-66686620D01*
X66760045Y-66759219D01*
X66634328Y-66759219D01*
X66633521Y-66716621D01*
X66636052Y-66658056D01*
X66643638Y-66614007D01*
X66657319Y-66579248D01*
X66678135Y-66548551D01*
X66685853Y-66539436D01*
X66734111Y-66494021D01*
X66785872Y-66467493D01*
X66849172Y-66456379D01*
X66880039Y-66455471D01*
X66961739Y-66465148D01*
G36*
X71532581Y-67404970D02*
X71592685Y-67420597D01*
X71643021Y-67452848D01*
X71667393Y-67476940D01*
X71707345Y-67533895D01*
X71730242Y-67599965D01*
X71738108Y-67681182D01*
X71738148Y-67687748D01*
X71738218Y-67753763D01*
X71358264Y-67753763D01*
X71366363Y-67788342D01*
X71380987Y-67819659D01*
X71406581Y-67852291D01*
X71411935Y-67857500D01*
X71457943Y-67885694D01*
X71510410Y-67890475D01*
X71570803Y-67871926D01*
X71581040Y-67866931D01*
X71612439Y-67851745D01*
X71633470Y-67843094D01*
X71637139Y-67842293D01*
X71649948Y-67850063D01*
X71674378Y-67869072D01*
X71686779Y-67879460D01*
X71712476Y-67903321D01*
X71720915Y-67919077D01*
X71715058Y-67933571D01*
X71711928Y-67937534D01*
X71690725Y-67954879D01*
X71655738Y-67975959D01*
X71631337Y-67988265D01*
X71562072Y-68009946D01*
X71485388Y-68016971D01*
X71412765Y-68008647D01*
X71392426Y-68002686D01*
X71329476Y-67968952D01*
X71282815Y-67917045D01*
X71252173Y-67846459D01*
X71237282Y-67756692D01*
X71235647Y-67709753D01*
X71240421Y-67641413D01*
X71360990Y-67641413D01*
X71372652Y-67646465D01*
X71403998Y-67650429D01*
X71449571Y-67652768D01*
X71480446Y-67653169D01*
X71535981Y-67652783D01*
X71571033Y-67650975D01*
X71590262Y-67646773D01*
X71598330Y-67639203D01*
X71599901Y-67628218D01*
X71589121Y-67594381D01*
X71561980Y-67560940D01*
X71526277Y-67535272D01*
X71490560Y-67524772D01*
X71442048Y-67534086D01*
X71400053Y-67561013D01*
X71370936Y-67599827D01*
X71360990Y-67641413D01*
X71240421Y-67641413D01*
X71242599Y-67610236D01*
X71264055Y-67530949D01*
X71300470Y-67471263D01*
X71352297Y-67430549D01*
X71419990Y-67408179D01*
X71456662Y-67403871D01*
X71532581Y-67404970D01*
X71532581Y-67404970D01*
G37*
X71532581Y-67404970D02*
X71592685Y-67420597D01*
X71643021Y-67452848D01*
X71667393Y-67476940D01*
X71707345Y-67533895D01*
X71730242Y-67599965D01*
X71738108Y-67681182D01*
X71738148Y-67687748D01*
X71738218Y-67753763D01*
X71358264Y-67753763D01*
X71366363Y-67788342D01*
X71380987Y-67819659D01*
X71406581Y-67852291D01*
X71411935Y-67857500D01*
X71457943Y-67885694D01*
X71510410Y-67890475D01*
X71570803Y-67871926D01*
X71581040Y-67866931D01*
X71612439Y-67851745D01*
X71633470Y-67843094D01*
X71637139Y-67842293D01*
X71649948Y-67850063D01*
X71674378Y-67869072D01*
X71686779Y-67879460D01*
X71712476Y-67903321D01*
X71720915Y-67919077D01*
X71715058Y-67933571D01*
X71711928Y-67937534D01*
X71690725Y-67954879D01*
X71655738Y-67975959D01*
X71631337Y-67988265D01*
X71562072Y-68009946D01*
X71485388Y-68016971D01*
X71412765Y-68008647D01*
X71392426Y-68002686D01*
X71329476Y-67968952D01*
X71282815Y-67917045D01*
X71252173Y-67846459D01*
X71237282Y-67756692D01*
X71235647Y-67709753D01*
X71240421Y-67641413D01*
X71360990Y-67641413D01*
X71372652Y-67646465D01*
X71403998Y-67650429D01*
X71449571Y-67652768D01*
X71480446Y-67653169D01*
X71535981Y-67652783D01*
X71571033Y-67650975D01*
X71590262Y-67646773D01*
X71598330Y-67639203D01*
X71599901Y-67628218D01*
X71589121Y-67594381D01*
X71561980Y-67560940D01*
X71526277Y-67535272D01*
X71490560Y-67524772D01*
X71442048Y-67534086D01*
X71400053Y-67561013D01*
X71370936Y-67599827D01*
X71360990Y-67641413D01*
X71240421Y-67641413D01*
X71242599Y-67610236D01*
X71264055Y-67530949D01*
X71300470Y-67471263D01*
X71352297Y-67430549D01*
X71419990Y-67408179D01*
X71456662Y-67403871D01*
X71532581Y-67404970D01*
G36*
X71135255Y-67401486D02*
X71183595Y-67411015D01*
X71211114Y-67425125D01*
X71240064Y-67448568D01*
X71198876Y-67500571D01*
X71173482Y-67532064D01*
X71156238Y-67547428D01*
X71139102Y-67549776D01*
X71114027Y-67542217D01*
X71102257Y-67537941D01*
X71054270Y-67531631D01*
X71010324Y-67545156D01*
X70978060Y-67575710D01*
X70972819Y-67585452D01*
X70967112Y-67611258D01*
X70962706Y-67658817D01*
X70959811Y-67724758D01*
X70958631Y-67805710D01*
X70958614Y-67817226D01*
X70958614Y-68017822D01*
X70820297Y-68017822D01*
X70820297Y-67401683D01*
X70889456Y-67401683D01*
X70929333Y-67402725D01*
X70950107Y-67407358D01*
X70957789Y-67417849D01*
X70958614Y-67427745D01*
X70958614Y-67453806D01*
X70991745Y-67427745D01*
X71029735Y-67409965D01*
X71080770Y-67401174D01*
X71135255Y-67401486D01*
X71135255Y-67401486D01*
G37*
X71135255Y-67401486D02*
X71183595Y-67411015D01*
X71211114Y-67425125D01*
X71240064Y-67448568D01*
X71198876Y-67500571D01*
X71173482Y-67532064D01*
X71156238Y-67547428D01*
X71139102Y-67549776D01*
X71114027Y-67542217D01*
X71102257Y-67537941D01*
X71054270Y-67531631D01*
X71010324Y-67545156D01*
X70978060Y-67575710D01*
X70972819Y-67585452D01*
X70967112Y-67611258D01*
X70962706Y-67658817D01*
X70959811Y-67724758D01*
X70958631Y-67805710D01*
X70958614Y-67817226D01*
X70958614Y-68017822D01*
X70820297Y-68017822D01*
X70820297Y-67401683D01*
X70889456Y-67401683D01*
X70929333Y-67402725D01*
X70950107Y-67407358D01*
X70957789Y-67417849D01*
X70958614Y-67427745D01*
X70958614Y-67453806D01*
X70991745Y-67427745D01*
X71029735Y-67409965D01*
X71080770Y-67401174D01*
X71135255Y-67401486D01*
G36*
X70538411Y-67405417D02*
X70591411Y-67418290D01*
X70606731Y-67425110D01*
X70636428Y-67442974D01*
X70659220Y-67463093D01*
X70676083Y-67488962D01*
X70687998Y-67524073D01*
X70695942Y-67571920D01*
X70700894Y-67635996D01*
X70703831Y-67719794D01*
X70704947Y-67775768D01*
X70709052Y-68017822D01*
X70638932Y-68017822D01*
X70596393Y-68016038D01*
X70574476Y-68009942D01*
X70568812Y-67999706D01*
X70565821Y-67988637D01*
X70552451Y-67990754D01*
X70534233Y-67999629D01*
X70488624Y-68013233D01*
X70430007Y-68016899D01*
X70368354Y-68010903D01*
X70313638Y-67995521D01*
X70308730Y-67993386D01*
X70258723Y-67958255D01*
X70225756Y-67909419D01*
X70210587Y-67852333D01*
X70211746Y-67831824D01*
X70335508Y-67831824D01*
X70346413Y-67859425D01*
X70378745Y-67879204D01*
X70430910Y-67889819D01*
X70458787Y-67891228D01*
X70505247Y-67887620D01*
X70536129Y-67873597D01*
X70543664Y-67866931D01*
X70564076Y-67830666D01*
X70568812Y-67797773D01*
X70568812Y-67753763D01*
X70507513Y-67753763D01*
X70436256Y-67757395D01*
X70386276Y-67768818D01*
X70354696Y-67788824D01*
X70347626Y-67797743D01*
X70335508Y-67831824D01*
X70211746Y-67831824D01*
X70213971Y-67792456D01*
X70236663Y-67735244D01*
X70267624Y-67696580D01*
X70286376Y-67679864D01*
X70304733Y-67668878D01*
X70328619Y-67662180D01*
X70363957Y-67658326D01*
X70416669Y-67655873D01*
X70437577Y-67655168D01*
X70568812Y-67650879D01*
X70568620Y-67611158D01*
X70563537Y-67569405D01*
X70545162Y-67544158D01*
X70508039Y-67528030D01*
X70507043Y-67527742D01*
X70454410Y-67521400D01*
X70402906Y-67529684D01*
X70364630Y-67549827D01*
X70349272Y-67559773D01*
X70332730Y-67558397D01*
X70307275Y-67543987D01*
X70292328Y-67533817D01*
X70263091Y-67512088D01*
X70244980Y-67495800D01*
X70242074Y-67491137D01*
X70254040Y-67467005D01*
X70289396Y-67438185D01*
X70304753Y-67428461D01*
X70348901Y-67411714D01*
X70408398Y-67402227D01*
X70474487Y-67400095D01*
X70538411Y-67405417D01*
X70538411Y-67405417D01*
G37*
X70538411Y-67405417D02*
X70591411Y-67418290D01*
X70606731Y-67425110D01*
X70636428Y-67442974D01*
X70659220Y-67463093D01*
X70676083Y-67488962D01*
X70687998Y-67524073D01*
X70695942Y-67571920D01*
X70700894Y-67635996D01*
X70703831Y-67719794D01*
X70704947Y-67775768D01*
X70709052Y-68017822D01*
X70638932Y-68017822D01*
X70596393Y-68016038D01*
X70574476Y-68009942D01*
X70568812Y-67999706D01*
X70565821Y-67988637D01*
X70552451Y-67990754D01*
X70534233Y-67999629D01*
X70488624Y-68013233D01*
X70430007Y-68016899D01*
X70368354Y-68010903D01*
X70313638Y-67995521D01*
X70308730Y-67993386D01*
X70258723Y-67958255D01*
X70225756Y-67909419D01*
X70210587Y-67852333D01*
X70211746Y-67831824D01*
X70335508Y-67831824D01*
X70346413Y-67859425D01*
X70378745Y-67879204D01*
X70430910Y-67889819D01*
X70458787Y-67891228D01*
X70505247Y-67887620D01*
X70536129Y-67873597D01*
X70543664Y-67866931D01*
X70564076Y-67830666D01*
X70568812Y-67797773D01*
X70568812Y-67753763D01*
X70507513Y-67753763D01*
X70436256Y-67757395D01*
X70386276Y-67768818D01*
X70354696Y-67788824D01*
X70347626Y-67797743D01*
X70335508Y-67831824D01*
X70211746Y-67831824D01*
X70213971Y-67792456D01*
X70236663Y-67735244D01*
X70267624Y-67696580D01*
X70286376Y-67679864D01*
X70304733Y-67668878D01*
X70328619Y-67662180D01*
X70363957Y-67658326D01*
X70416669Y-67655873D01*
X70437577Y-67655168D01*
X70568812Y-67650879D01*
X70568620Y-67611158D01*
X70563537Y-67569405D01*
X70545162Y-67544158D01*
X70508039Y-67528030D01*
X70507043Y-67527742D01*
X70454410Y-67521400D01*
X70402906Y-67529684D01*
X70364630Y-67549827D01*
X70349272Y-67559773D01*
X70332730Y-67558397D01*
X70307275Y-67543987D01*
X70292328Y-67533817D01*
X70263091Y-67512088D01*
X70244980Y-67495800D01*
X70242074Y-67491137D01*
X70254040Y-67467005D01*
X70289396Y-67438185D01*
X70304753Y-67428461D01*
X70348901Y-67411714D01*
X70408398Y-67402227D01*
X70474487Y-67400095D01*
X70538411Y-67405417D01*
G36*
X69781524Y-67404237D02*
X69831255Y-67407971D01*
X69961291Y-67797773D01*
X69981678Y-67728614D01*
X69993946Y-67685874D01*
X70010085Y-67628115D01*
X70027512Y-67564625D01*
X70036726Y-67530570D01*
X70071388Y-67401683D01*
X70214391Y-67401683D01*
X70171646Y-67536857D01*
X70150596Y-67603342D01*
X70125167Y-67683539D01*
X70098610Y-67767193D01*
X70074902Y-67841782D01*
X70020902Y-68011535D01*
X69962598Y-68015328D01*
X69904295Y-68019122D01*
X69872679Y-67914734D01*
X69853182Y-67849889D01*
X69831904Y-67778400D01*
X69813308Y-67715263D01*
X69812574Y-67712750D01*
X69798684Y-67669969D01*
X69786429Y-67640779D01*
X69777846Y-67629741D01*
X69776082Y-67631018D01*
X69769891Y-67648130D01*
X69758128Y-67684787D01*
X69742225Y-67736378D01*
X69723614Y-67798294D01*
X69713543Y-67832352D01*
X69659007Y-68017822D01*
X69543264Y-68017822D01*
X69450737Y-67725471D01*
X69424744Y-67643462D01*
X69401066Y-67568987D01*
X69380820Y-67505544D01*
X69365126Y-67456632D01*
X69355102Y-67425749D01*
X69352055Y-67416726D01*
X69354467Y-67407487D01*
X69373408Y-67403441D01*
X69412823Y-67403846D01*
X69418993Y-67404152D01*
X69492086Y-67407971D01*
X69539957Y-67584010D01*
X69557553Y-67648211D01*
X69573277Y-67704649D01*
X69585746Y-67748422D01*
X69593574Y-67774630D01*
X69595020Y-67778903D01*
X69601014Y-67773990D01*
X69613101Y-67748532D01*
X69629893Y-67705997D01*
X69650003Y-67649850D01*
X69667003Y-67599130D01*
X69731794Y-67400504D01*
X69781524Y-67404237D01*
X69781524Y-67404237D01*
G37*
X69781524Y-67404237D02*
X69831255Y-67407971D01*
X69961291Y-67797773D01*
X69981678Y-67728614D01*
X69993946Y-67685874D01*
X70010085Y-67628115D01*
X70027512Y-67564625D01*
X70036726Y-67530570D01*
X70071388Y-67401683D01*
X70214391Y-67401683D01*
X70171646Y-67536857D01*
X70150596Y-67603342D01*
X70125167Y-67683539D01*
X70098610Y-67767193D01*
X70074902Y-67841782D01*
X70020902Y-68011535D01*
X69962598Y-68015328D01*
X69904295Y-68019122D01*
X69872679Y-67914734D01*
X69853182Y-67849889D01*
X69831904Y-67778400D01*
X69813308Y-67715263D01*
X69812574Y-67712750D01*
X69798684Y-67669969D01*
X69786429Y-67640779D01*
X69777846Y-67629741D01*
X69776082Y-67631018D01*
X69769891Y-67648130D01*
X69758128Y-67684787D01*
X69742225Y-67736378D01*
X69723614Y-67798294D01*
X69713543Y-67832352D01*
X69659007Y-68017822D01*
X69543264Y-68017822D01*
X69450737Y-67725471D01*
X69424744Y-67643462D01*
X69401066Y-67568987D01*
X69380820Y-67505544D01*
X69365126Y-67456632D01*
X69355102Y-67425749D01*
X69352055Y-67416726D01*
X69354467Y-67407487D01*
X69373408Y-67403441D01*
X69412823Y-67403846D01*
X69418993Y-67404152D01*
X69492086Y-67407971D01*
X69539957Y-67584010D01*
X69557553Y-67648211D01*
X69573277Y-67704649D01*
X69585746Y-67748422D01*
X69593574Y-67774630D01*
X69595020Y-67778903D01*
X69601014Y-67773990D01*
X69613101Y-67748532D01*
X69629893Y-67705997D01*
X69650003Y-67649850D01*
X69667003Y-67599130D01*
X69731794Y-67400504D01*
X69781524Y-67404237D01*
G36*
X69298812Y-68017822D02*
X69229654Y-68017822D01*
X69189512Y-68016645D01*
X69168606Y-68011772D01*
X69161078Y-68001186D01*
X69160495Y-67994029D01*
X69159226Y-67979676D01*
X69151221Y-67976923D01*
X69130185Y-67985771D01*
X69113827Y-67994029D01*
X69051023Y-68013597D01*
X68982752Y-68014729D01*
X68927248Y-68000135D01*
X68875562Y-67964877D01*
X68836162Y-67912835D01*
X68814587Y-67851450D01*
X68814038Y-67848018D01*
X68810833Y-67810571D01*
X68809239Y-67756813D01*
X68809367Y-67716155D01*
X68946721Y-67716155D01*
X68949903Y-67770194D01*
X68957141Y-67814735D01*
X68966940Y-67839888D01*
X69004011Y-67874260D01*
X69048026Y-67886582D01*
X69093416Y-67876618D01*
X69132203Y-67846895D01*
X69146892Y-67826905D01*
X69155481Y-67803050D01*
X69159504Y-67768230D01*
X69160495Y-67715930D01*
X69158722Y-67664139D01*
X69154037Y-67618634D01*
X69147397Y-67588181D01*
X69146290Y-67585452D01*
X69119509Y-67553000D01*
X69080421Y-67535183D01*
X69036685Y-67532306D01*
X68995962Y-67544674D01*
X68965913Y-67572593D01*
X68962796Y-67578148D01*
X68953039Y-67612022D01*
X68947723Y-67660728D01*
X68946721Y-67716155D01*
X68809367Y-67716155D01*
X68809432Y-67695540D01*
X68810336Y-67662563D01*
X68816486Y-67580981D01*
X68829267Y-67519730D01*
X68850529Y-67474449D01*
X68882122Y-67440779D01*
X68912793Y-67421014D01*
X68955646Y-67407120D01*
X69008944Y-67402354D01*
X69063520Y-67406236D01*
X69110208Y-67418282D01*
X69134876Y-67432693D01*
X69160495Y-67455878D01*
X69160495Y-67162773D01*
X69298812Y-67162773D01*
X69298812Y-68017822D01*
X69298812Y-68017822D01*
G37*
X69298812Y-68017822D02*
X69229654Y-68017822D01*
X69189512Y-68016645D01*
X69168606Y-68011772D01*
X69161078Y-68001186D01*
X69160495Y-67994029D01*
X69159226Y-67979676D01*
X69151221Y-67976923D01*
X69130185Y-67985771D01*
X69113827Y-67994029D01*
X69051023Y-68013597D01*
X68982752Y-68014729D01*
X68927248Y-68000135D01*
X68875562Y-67964877D01*
X68836162Y-67912835D01*
X68814587Y-67851450D01*
X68814038Y-67848018D01*
X68810833Y-67810571D01*
X68809239Y-67756813D01*
X68809367Y-67716155D01*
X68946721Y-67716155D01*
X68949903Y-67770194D01*
X68957141Y-67814735D01*
X68966940Y-67839888D01*
X69004011Y-67874260D01*
X69048026Y-67886582D01*
X69093416Y-67876618D01*
X69132203Y-67846895D01*
X69146892Y-67826905D01*
X69155481Y-67803050D01*
X69159504Y-67768230D01*
X69160495Y-67715930D01*
X69158722Y-67664139D01*
X69154037Y-67618634D01*
X69147397Y-67588181D01*
X69146290Y-67585452D01*
X69119509Y-67553000D01*
X69080421Y-67535183D01*
X69036685Y-67532306D01*
X68995962Y-67544674D01*
X68965913Y-67572593D01*
X68962796Y-67578148D01*
X68953039Y-67612022D01*
X68947723Y-67660728D01*
X68946721Y-67716155D01*
X68809367Y-67716155D01*
X68809432Y-67695540D01*
X68810336Y-67662563D01*
X68816486Y-67580981D01*
X68829267Y-67519730D01*
X68850529Y-67474449D01*
X68882122Y-67440779D01*
X68912793Y-67421014D01*
X68955646Y-67407120D01*
X69008944Y-67402354D01*
X69063520Y-67406236D01*
X69110208Y-67418282D01*
X69134876Y-67432693D01*
X69160495Y-67455878D01*
X69160495Y-67162773D01*
X69298812Y-67162773D01*
X69298812Y-68017822D01*
G36*
X68506644Y-67403020D02*
X68525461Y-67408660D01*
X68531527Y-67421053D01*
X68531782Y-67426647D01*
X68532871Y-67442230D01*
X68540368Y-67444676D01*
X68560619Y-67433993D01*
X68572649Y-67426694D01*
X68610600Y-67411063D01*
X68655928Y-67403334D01*
X68703456Y-67402740D01*
X68748005Y-67408513D01*
X68784398Y-67419884D01*
X68807457Y-67436088D01*
X68812004Y-67456355D01*
X68809709Y-67461843D01*
X68792980Y-67484626D01*
X68767037Y-67512647D01*
X68762345Y-67517177D01*
X68737617Y-67538005D01*
X68716282Y-67544735D01*
X68686445Y-67540038D01*
X68674492Y-67536917D01*
X68637295Y-67529421D01*
X68611141Y-67532792D01*
X68589054Y-67544681D01*
X68568822Y-67560635D01*
X68553921Y-67580700D01*
X68543566Y-67608702D01*
X68536971Y-67648467D01*
X68533351Y-67703823D01*
X68531922Y-67778594D01*
X68531782Y-67823740D01*
X68531782Y-68017822D01*
X68406040Y-68017822D01*
X68406040Y-67401683D01*
X68468911Y-67401683D01*
X68506644Y-67403020D01*
X68506644Y-67403020D01*
G37*
X68506644Y-67403020D02*
X68525461Y-67408660D01*
X68531527Y-67421053D01*
X68531782Y-67426647D01*
X68532871Y-67442230D01*
X68540368Y-67444676D01*
X68560619Y-67433993D01*
X68572649Y-67426694D01*
X68610600Y-67411063D01*
X68655928Y-67403334D01*
X68703456Y-67402740D01*
X68748005Y-67408513D01*
X68784398Y-67419884D01*
X68807457Y-67436088D01*
X68812004Y-67456355D01*
X68809709Y-67461843D01*
X68792980Y-67484626D01*
X68767037Y-67512647D01*
X68762345Y-67517177D01*
X68737617Y-67538005D01*
X68716282Y-67544735D01*
X68686445Y-67540038D01*
X68674492Y-67536917D01*
X68637295Y-67529421D01*
X68611141Y-67532792D01*
X68589054Y-67544681D01*
X68568822Y-67560635D01*
X68553921Y-67580700D01*
X68543566Y-67608702D01*
X68536971Y-67648467D01*
X68533351Y-67703823D01*
X68531922Y-67778594D01*
X68531782Y-67823740D01*
X68531782Y-68017822D01*
X68406040Y-68017822D01*
X68406040Y-67401683D01*
X68468911Y-67401683D01*
X68506644Y-67403020D01*
G36*
X68115790Y-67406555D02*
X68174945Y-67422339D01*
X68219977Y-67450948D01*
X68251754Y-67488419D01*
X68261634Y-67504411D01*
X68268927Y-67521163D01*
X68274026Y-67542592D01*
X68277321Y-67572616D01*
X68279203Y-67615154D01*
X68280063Y-67674122D01*
X68280293Y-67753440D01*
X68280297Y-67774484D01*
X68280297Y-68017822D01*
X68219941Y-68017822D01*
X68181443Y-68015126D01*
X68152977Y-68008295D01*
X68145845Y-68004083D01*
X68126348Y-67996813D01*
X68106434Y-68004083D01*
X68073647Y-68013160D01*
X68026022Y-68016813D01*
X67973236Y-68015228D01*
X67924964Y-68008589D01*
X67896782Y-68000072D01*
X67842247Y-67965063D01*
X67808165Y-67916479D01*
X67792843Y-67851882D01*
X67792701Y-67850223D01*
X67794045Y-67821566D01*
X67915644Y-67821566D01*
X67926274Y-67854161D01*
X67943590Y-67872505D01*
X67978348Y-67886379D01*
X68024227Y-67891917D01*
X68071012Y-67889191D01*
X68108486Y-67878274D01*
X68118985Y-67871269D01*
X68137332Y-67838904D01*
X68141980Y-67802111D01*
X68141980Y-67753763D01*
X68072418Y-67753763D01*
X68006333Y-67758850D01*
X67956236Y-67773263D01*
X67925071Y-67795729D01*
X67915644Y-67821566D01*
X67794045Y-67821566D01*
X67796013Y-67779647D01*
X67819290Y-67723845D01*
X67863052Y-67681647D01*
X67869101Y-67677808D01*
X67895093Y-67665309D01*
X67927265Y-67657740D01*
X67972240Y-67654061D01*
X68025669Y-67653216D01*
X68141980Y-67653169D01*
X68141980Y-67604411D01*
X68137047Y-67566581D01*
X68124457Y-67541236D01*
X68122983Y-67539887D01*
X68094966Y-67528800D01*
X68052674Y-67524503D01*
X68005936Y-67526615D01*
X67964582Y-67534756D01*
X67940043Y-67546965D01*
X67926747Y-67556746D01*
X67912706Y-67558613D01*
X67893329Y-67550600D01*
X67864024Y-67530739D01*
X67820197Y-67497063D01*
X67816175Y-67493909D01*
X67818236Y-67482236D01*
X67835432Y-67462822D01*
X67861567Y-67441248D01*
X67890448Y-67423096D01*
X67899522Y-67418809D01*
X67932620Y-67410256D01*
X67981120Y-67404155D01*
X68035305Y-67401708D01*
X68037839Y-67401703D01*
X68115790Y-67406555D01*
X68115790Y-67406555D01*
G37*
X68115790Y-67406555D02*
X68174945Y-67422339D01*
X68219977Y-67450948D01*
X68251754Y-67488419D01*
X68261634Y-67504411D01*
X68268927Y-67521163D01*
X68274026Y-67542592D01*
X68277321Y-67572616D01*
X68279203Y-67615154D01*
X68280063Y-67674122D01*
X68280293Y-67753440D01*
X68280297Y-67774484D01*
X68280297Y-68017822D01*
X68219941Y-68017822D01*
X68181443Y-68015126D01*
X68152977Y-68008295D01*
X68145845Y-68004083D01*
X68126348Y-67996813D01*
X68106434Y-68004083D01*
X68073647Y-68013160D01*
X68026022Y-68016813D01*
X67973236Y-68015228D01*
X67924964Y-68008589D01*
X67896782Y-68000072D01*
X67842247Y-67965063D01*
X67808165Y-67916479D01*
X67792843Y-67851882D01*
X67792701Y-67850223D01*
X67794045Y-67821566D01*
X67915644Y-67821566D01*
X67926274Y-67854161D01*
X67943590Y-67872505D01*
X67978348Y-67886379D01*
X68024227Y-67891917D01*
X68071012Y-67889191D01*
X68108486Y-67878274D01*
X68118985Y-67871269D01*
X68137332Y-67838904D01*
X68141980Y-67802111D01*
X68141980Y-67753763D01*
X68072418Y-67753763D01*
X68006333Y-67758850D01*
X67956236Y-67773263D01*
X67925071Y-67795729D01*
X67915644Y-67821566D01*
X67794045Y-67821566D01*
X67796013Y-67779647D01*
X67819290Y-67723845D01*
X67863052Y-67681647D01*
X67869101Y-67677808D01*
X67895093Y-67665309D01*
X67927265Y-67657740D01*
X67972240Y-67654061D01*
X68025669Y-67653216D01*
X68141980Y-67653169D01*
X68141980Y-67604411D01*
X68137047Y-67566581D01*
X68124457Y-67541236D01*
X68122983Y-67539887D01*
X68094966Y-67528800D01*
X68052674Y-67524503D01*
X68005936Y-67526615D01*
X67964582Y-67534756D01*
X67940043Y-67546965D01*
X67926747Y-67556746D01*
X67912706Y-67558613D01*
X67893329Y-67550600D01*
X67864024Y-67530739D01*
X67820197Y-67497063D01*
X67816175Y-67493909D01*
X67818236Y-67482236D01*
X67835432Y-67462822D01*
X67861567Y-67441248D01*
X67890448Y-67423096D01*
X67899522Y-67418809D01*
X67932620Y-67410256D01*
X67981120Y-67404155D01*
X68035305Y-67401708D01*
X68037839Y-67401703D01*
X68115790Y-67406555D01*
G36*
X67591241Y-66469184D02*
X67617753Y-66482282D01*
X67650447Y-66505106D01*
X67674275Y-66529996D01*
X67690594Y-66561249D01*
X67700760Y-66603166D01*
X67706128Y-66660044D01*
X67708056Y-66736184D01*
X67708169Y-66768917D01*
X67707839Y-66840656D01*
X67706473Y-66891927D01*
X67703500Y-66927404D01*
X67698351Y-66951763D01*
X67690457Y-66969680D01*
X67682243Y-66981902D01*
X67629813Y-67033905D01*
X67568070Y-67065184D01*
X67501464Y-67074592D01*
X67434442Y-67060980D01*
X67413208Y-67051354D01*
X67362376Y-67024859D01*
X67362376Y-67440052D01*
X67399475Y-67420868D01*
X67448357Y-67406025D01*
X67508439Y-67402222D01*
X67568436Y-67409243D01*
X67613744Y-67425013D01*
X67651325Y-67455047D01*
X67683436Y-67498024D01*
X67685850Y-67502436D01*
X67696033Y-67523221D01*
X67703470Y-67544170D01*
X67708589Y-67569548D01*
X67711819Y-67603618D01*
X67713587Y-67650641D01*
X67714323Y-67714882D01*
X67714456Y-67787176D01*
X67714456Y-68017822D01*
X67576139Y-68017822D01*
X67576139Y-67592533D01*
X67537451Y-67559979D01*
X67497262Y-67533940D01*
X67459203Y-67529205D01*
X67420934Y-67541389D01*
X67400538Y-67553320D01*
X67385358Y-67570313D01*
X67374562Y-67595995D01*
X67367317Y-67633991D01*
X67362792Y-67687926D01*
X67360156Y-67761425D01*
X67359228Y-67810347D01*
X67356089Y-68011535D01*
X67290074Y-68015336D01*
X67224060Y-68019136D01*
X67224060Y-66770650D01*
X67362376Y-66770650D01*
X67365903Y-66840254D01*
X67377785Y-66888569D01*
X67399980Y-66918631D01*
X67434441Y-66933471D01*
X67469258Y-66936436D01*
X67508671Y-66933028D01*
X67534829Y-66919617D01*
X67551186Y-66901896D01*
X67564063Y-66882835D01*
X67571728Y-66861601D01*
X67575139Y-66831849D01*
X67575251Y-66787236D01*
X67574103Y-66749880D01*
X67571468Y-66693604D01*
X67567544Y-66656658D01*
X67560937Y-66633223D01*
X67550251Y-66617480D01*
X67540167Y-66608380D01*
X67498030Y-66588537D01*
X67448160Y-66585332D01*
X67419524Y-66592168D01*
X67391172Y-66616464D01*
X67372391Y-66663728D01*
X67363288Y-66733624D01*
X67362376Y-66770650D01*
X67224060Y-66770650D01*
X67224060Y-66458614D01*
X67293218Y-66458614D01*
X67334740Y-66460256D01*
X67356162Y-66466087D01*
X67362374Y-66477461D01*
X67362376Y-66477798D01*
X67365258Y-66488938D01*
X67377970Y-66487673D01*
X67403243Y-66475433D01*
X67462131Y-66456707D01*
X67528385Y-66454739D01*
X67591241Y-66469184D01*
X67591241Y-66469184D01*
G37*
X67591241Y-66469184D02*
X67617753Y-66482282D01*
X67650447Y-66505106D01*
X67674275Y-66529996D01*
X67690594Y-66561249D01*
X67700760Y-66603166D01*
X67706128Y-66660044D01*
X67708056Y-66736184D01*
X67708169Y-66768917D01*
X67707839Y-66840656D01*
X67706473Y-66891927D01*
X67703500Y-66927404D01*
X67698351Y-66951763D01*
X67690457Y-66969680D01*
X67682243Y-66981902D01*
X67629813Y-67033905D01*
X67568070Y-67065184D01*
X67501464Y-67074592D01*
X67434442Y-67060980D01*
X67413208Y-67051354D01*
X67362376Y-67024859D01*
X67362376Y-67440052D01*
X67399475Y-67420868D01*
X67448357Y-67406025D01*
X67508439Y-67402222D01*
X67568436Y-67409243D01*
X67613744Y-67425013D01*
X67651325Y-67455047D01*
X67683436Y-67498024D01*
X67685850Y-67502436D01*
X67696033Y-67523221D01*
X67703470Y-67544170D01*
X67708589Y-67569548D01*
X67711819Y-67603618D01*
X67713587Y-67650641D01*
X67714323Y-67714882D01*
X67714456Y-67787176D01*
X67714456Y-68017822D01*
X67576139Y-68017822D01*
X67576139Y-67592533D01*
X67537451Y-67559979D01*
X67497262Y-67533940D01*
X67459203Y-67529205D01*
X67420934Y-67541389D01*
X67400538Y-67553320D01*
X67385358Y-67570313D01*
X67374562Y-67595995D01*
X67367317Y-67633991D01*
X67362792Y-67687926D01*
X67360156Y-67761425D01*
X67359228Y-67810347D01*
X67356089Y-68011535D01*
X67290074Y-68015336D01*
X67224060Y-68019136D01*
X67224060Y-66770650D01*
X67362376Y-66770650D01*
X67365903Y-66840254D01*
X67377785Y-66888569D01*
X67399980Y-66918631D01*
X67434441Y-66933471D01*
X67469258Y-66936436D01*
X67508671Y-66933028D01*
X67534829Y-66919617D01*
X67551186Y-66901896D01*
X67564063Y-66882835D01*
X67571728Y-66861601D01*
X67575139Y-66831849D01*
X67575251Y-66787236D01*
X67574103Y-66749880D01*
X67571468Y-66693604D01*
X67567544Y-66656658D01*
X67560937Y-66633223D01*
X67550251Y-66617480D01*
X67540167Y-66608380D01*
X67498030Y-66588537D01*
X67448160Y-66585332D01*
X67419524Y-66592168D01*
X67391172Y-66616464D01*
X67372391Y-66663728D01*
X67363288Y-66733624D01*
X67362376Y-66770650D01*
X67224060Y-66770650D01*
X67224060Y-66458614D01*
X67293218Y-66458614D01*
X67334740Y-66460256D01*
X67356162Y-66466087D01*
X67362374Y-66477461D01*
X67362376Y-66477798D01*
X67365258Y-66488938D01*
X67377970Y-66487673D01*
X67403243Y-66475433D01*
X67462131Y-66456707D01*
X67528385Y-66454739D01*
X67591241Y-66469184D01*
G04 #@! TO.C,J1*
D10*
X52202380Y-66583333D02*
X52916666Y-66583333D01*
X53059523Y-66630952D01*
X53154761Y-66726190D01*
X53202380Y-66869047D01*
X53202380Y-66964285D01*
X53202380Y-65583333D02*
X53202380Y-66154761D01*
X53202380Y-65869047D02*
X52202380Y-65869047D01*
X52345238Y-65964285D01*
X52440476Y-66059523D01*
X52488095Y-66154761D01*
G04 #@! TO.C,C3*
X63607142Y-59166666D02*
X63654761Y-59214285D01*
X63702380Y-59357142D01*
X63702380Y-59452380D01*
X63654761Y-59595238D01*
X63559523Y-59690476D01*
X63464285Y-59738095D01*
X63273809Y-59785714D01*
X63130952Y-59785714D01*
X62940476Y-59738095D01*
X62845238Y-59690476D01*
X62750000Y-59595238D01*
X62702380Y-59452380D01*
X62702380Y-59357142D01*
X62750000Y-59214285D01*
X62797619Y-59166666D01*
X62702380Y-58833333D02*
X62702380Y-58214285D01*
X63083333Y-58547619D01*
X63083333Y-58404761D01*
X63130952Y-58309523D01*
X63178571Y-58261904D01*
X63273809Y-58214285D01*
X63511904Y-58214285D01*
X63607142Y-58261904D01*
X63654761Y-58309523D01*
X63702380Y-58404761D01*
X63702380Y-58690476D01*
X63654761Y-58785714D01*
X63607142Y-58833333D01*
G04 #@! TO.C,C4*
X64927142Y-59666666D02*
X64974761Y-59714285D01*
X65022380Y-59857142D01*
X65022380Y-59952380D01*
X64974761Y-60095238D01*
X64879523Y-60190476D01*
X64784285Y-60238095D01*
X64593809Y-60285714D01*
X64450952Y-60285714D01*
X64260476Y-60238095D01*
X64165238Y-60190476D01*
X64070000Y-60095238D01*
X64022380Y-59952380D01*
X64022380Y-59857142D01*
X64070000Y-59714285D01*
X64117619Y-59666666D01*
X64355714Y-58809523D02*
X65022380Y-58809523D01*
X63974761Y-59047619D02*
X64689047Y-59285714D01*
X64689047Y-58666666D01*
G04 #@! TO.C,C5*
X67787142Y-52166666D02*
X67834761Y-52214285D01*
X67882380Y-52357142D01*
X67882380Y-52452380D01*
X67834761Y-52595238D01*
X67739523Y-52690476D01*
X67644285Y-52738095D01*
X67453809Y-52785714D01*
X67310952Y-52785714D01*
X67120476Y-52738095D01*
X67025238Y-52690476D01*
X66930000Y-52595238D01*
X66882380Y-52452380D01*
X66882380Y-52357142D01*
X66930000Y-52214285D01*
X66977619Y-52166666D01*
X66882380Y-51261904D02*
X66882380Y-51738095D01*
X67358571Y-51785714D01*
X67310952Y-51738095D01*
X67263333Y-51642857D01*
X67263333Y-51404761D01*
X67310952Y-51309523D01*
X67358571Y-51261904D01*
X67453809Y-51214285D01*
X67691904Y-51214285D01*
X67787142Y-51261904D01*
X67834761Y-51309523D01*
X67882380Y-51404761D01*
X67882380Y-51642857D01*
X67834761Y-51738095D01*
X67787142Y-51785714D01*
G04 #@! TO.C,C6*
X70357142Y-58166666D02*
X70404761Y-58214285D01*
X70452380Y-58357142D01*
X70452380Y-58452380D01*
X70404761Y-58595238D01*
X70309523Y-58690476D01*
X70214285Y-58738095D01*
X70023809Y-58785714D01*
X69880952Y-58785714D01*
X69690476Y-58738095D01*
X69595238Y-58690476D01*
X69500000Y-58595238D01*
X69452380Y-58452380D01*
X69452380Y-58357142D01*
X69500000Y-58214285D01*
X69547619Y-58166666D01*
X69452380Y-57309523D02*
X69452380Y-57500000D01*
X69500000Y-57595238D01*
X69547619Y-57642857D01*
X69690476Y-57738095D01*
X69880952Y-57785714D01*
X70261904Y-57785714D01*
X70357142Y-57738095D01*
X70404761Y-57690476D01*
X70452380Y-57595238D01*
X70452380Y-57404761D01*
X70404761Y-57309523D01*
X70357142Y-57261904D01*
X70261904Y-57214285D01*
X70023809Y-57214285D01*
X69928571Y-57261904D01*
X69880952Y-57309523D01*
X69833333Y-57404761D01*
X69833333Y-57595238D01*
X69880952Y-57690476D01*
X69928571Y-57738095D01*
X70023809Y-57785714D01*
G04 #@! TO.C,D1*
X52261904Y-54702380D02*
X52261904Y-53702380D01*
X52500000Y-53702380D01*
X52642857Y-53750000D01*
X52738095Y-53845238D01*
X52785714Y-53940476D01*
X52833333Y-54130952D01*
X52833333Y-54273809D01*
X52785714Y-54464285D01*
X52738095Y-54559523D01*
X52642857Y-54654761D01*
X52500000Y-54702380D01*
X52261904Y-54702380D01*
X53785714Y-54702380D02*
X53214285Y-54702380D01*
X53500000Y-54702380D02*
X53500000Y-53702380D01*
X53404761Y-53845238D01*
X53309523Y-53940476D01*
X53214285Y-53988095D01*
G04 #@! TO.C,D2*
X52261904Y-48702380D02*
X52261904Y-47702380D01*
X52500000Y-47702380D01*
X52642857Y-47750000D01*
X52738095Y-47845238D01*
X52785714Y-47940476D01*
X52833333Y-48130952D01*
X52833333Y-48273809D01*
X52785714Y-48464285D01*
X52738095Y-48559523D01*
X52642857Y-48654761D01*
X52500000Y-48702380D01*
X52261904Y-48702380D01*
X53214285Y-47797619D02*
X53261904Y-47750000D01*
X53357142Y-47702380D01*
X53595238Y-47702380D01*
X53690476Y-47750000D01*
X53738095Y-47797619D01*
X53785714Y-47892857D01*
X53785714Y-47988095D01*
X53738095Y-48130952D01*
X53166666Y-48702380D01*
X53785714Y-48702380D01*
G04 #@! TO.C,JP1*
X59952380Y-60833333D02*
X60666666Y-60833333D01*
X60809523Y-60880952D01*
X60904761Y-60976190D01*
X60952380Y-61119047D01*
X60952380Y-61214285D01*
X60952380Y-60357142D02*
X59952380Y-60357142D01*
X59952380Y-59976190D01*
X60000000Y-59880952D01*
X60047619Y-59833333D01*
X60142857Y-59785714D01*
X60285714Y-59785714D01*
X60380952Y-59833333D01*
X60428571Y-59880952D01*
X60476190Y-59976190D01*
X60476190Y-60357142D01*
X60952380Y-58833333D02*
X60952380Y-59404761D01*
X60952380Y-59119047D02*
X59952380Y-59119047D01*
X60095238Y-59214285D01*
X60190476Y-59309523D01*
X60238095Y-59404761D01*
G04 #@! TO.C,R1*
X63083333Y-54202380D02*
X62750000Y-53726190D01*
X62511904Y-54202380D02*
X62511904Y-53202380D01*
X62892857Y-53202380D01*
X62988095Y-53250000D01*
X63035714Y-53297619D01*
X63083333Y-53392857D01*
X63083333Y-53535714D01*
X63035714Y-53630952D01*
X62988095Y-53678571D01*
X62892857Y-53726190D01*
X62511904Y-53726190D01*
X64035714Y-54202380D02*
X63464285Y-54202380D01*
X63750000Y-54202380D02*
X63750000Y-53202380D01*
X63654761Y-53345238D01*
X63559523Y-53440476D01*
X63464285Y-53488095D01*
G04 #@! TO.C,R3*
X60333333Y-52452380D02*
X60000000Y-51976190D01*
X59761904Y-52452380D02*
X59761904Y-51452380D01*
X60142857Y-51452380D01*
X60238095Y-51500000D01*
X60285714Y-51547619D01*
X60333333Y-51642857D01*
X60333333Y-51785714D01*
X60285714Y-51880952D01*
X60238095Y-51928571D01*
X60142857Y-51976190D01*
X59761904Y-51976190D01*
X60666666Y-51452380D02*
X61285714Y-51452380D01*
X60952380Y-51833333D01*
X61095238Y-51833333D01*
X61190476Y-51880952D01*
X61238095Y-51928571D01*
X61285714Y-52023809D01*
X61285714Y-52261904D01*
X61238095Y-52357142D01*
X61190476Y-52404761D01*
X61095238Y-52452380D01*
X60809523Y-52452380D01*
X60714285Y-52404761D01*
X60666666Y-52357142D01*
G04 #@! TO.C,R4*
X60333333Y-50452380D02*
X60000000Y-49976190D01*
X59761904Y-50452380D02*
X59761904Y-49452380D01*
X60142857Y-49452380D01*
X60238095Y-49500000D01*
X60285714Y-49547619D01*
X60333333Y-49642857D01*
X60333333Y-49785714D01*
X60285714Y-49880952D01*
X60238095Y-49928571D01*
X60142857Y-49976190D01*
X59761904Y-49976190D01*
X61190476Y-49785714D02*
X61190476Y-50452380D01*
X60952380Y-49404761D02*
X60714285Y-50119047D01*
X61333333Y-50119047D01*
G04 #@! TO.C,R7*
X62202380Y-57416666D02*
X61726190Y-57750000D01*
X62202380Y-57988095D02*
X61202380Y-57988095D01*
X61202380Y-57607142D01*
X61250000Y-57511904D01*
X61297619Y-57464285D01*
X61392857Y-57416666D01*
X61535714Y-57416666D01*
X61630952Y-57464285D01*
X61678571Y-57511904D01*
X61726190Y-57607142D01*
X61726190Y-57988095D01*
X61202380Y-57083333D02*
X61202380Y-56416666D01*
X62202380Y-56845238D01*
G04 #@! TO.C,R8*
X68083333Y-59452380D02*
X67750000Y-58976190D01*
X67511904Y-59452380D02*
X67511904Y-58452380D01*
X67892857Y-58452380D01*
X67988095Y-58500000D01*
X68035714Y-58547619D01*
X68083333Y-58642857D01*
X68083333Y-58785714D01*
X68035714Y-58880952D01*
X67988095Y-58928571D01*
X67892857Y-58976190D01*
X67511904Y-58976190D01*
X68654761Y-58880952D02*
X68559523Y-58833333D01*
X68511904Y-58785714D01*
X68464285Y-58690476D01*
X68464285Y-58642857D01*
X68511904Y-58547619D01*
X68559523Y-58500000D01*
X68654761Y-58452380D01*
X68845238Y-58452380D01*
X68940476Y-58500000D01*
X68988095Y-58547619D01*
X69035714Y-58642857D01*
X69035714Y-58690476D01*
X68988095Y-58785714D01*
X68940476Y-58833333D01*
X68845238Y-58880952D01*
X68654761Y-58880952D01*
X68559523Y-58928571D01*
X68511904Y-58976190D01*
X68464285Y-59071428D01*
X68464285Y-59261904D01*
X68511904Y-59357142D01*
X68559523Y-59404761D01*
X68654761Y-59452380D01*
X68845238Y-59452380D01*
X68940476Y-59404761D01*
X68988095Y-59357142D01*
X69035714Y-59261904D01*
X69035714Y-59071428D01*
X68988095Y-58976190D01*
X68940476Y-58928571D01*
X68845238Y-58880952D01*
G04 #@! TO.C,U2*
X63488095Y-40952380D02*
X63488095Y-41761904D01*
X63535714Y-41857142D01*
X63583333Y-41904761D01*
X63678571Y-41952380D01*
X63869047Y-41952380D01*
X63964285Y-41904761D01*
X64011904Y-41857142D01*
X64059523Y-41761904D01*
X64059523Y-40952380D01*
X64488095Y-41047619D02*
X64535714Y-41000000D01*
X64630952Y-40952380D01*
X64869047Y-40952380D01*
X64964285Y-41000000D01*
X65011904Y-41047619D01*
X65059523Y-41142857D01*
X65059523Y-41238095D01*
X65011904Y-41380952D01*
X64440476Y-41952380D01*
X65059523Y-41952380D01*
G04 #@! TD*
M02*
